<svg xmlns="http://www.w3.org/2000/svg" viewBox="0 0 253 277"><g fill="none" stroke-width="2"><path stroke="#277c7c" d="M86.66 25.88q-16.71 0-28.45 10.62" vector-effect="non-scaling-stroke"/><path stroke="#2b7b60" d="M58.21 36.5q-5.19 4.35-6.87 7.12-1.61 2.67-3.17 3.94a1.63 1.29 19.3 0 1-.89.31q-11.78.35-21.82 6.38" vector-effect="non-scaling-stroke"/><path stroke="#27733d" d="M25.46 54.25q-18.75 11.27-22.17 33" vector-effect="non-scaling-stroke"/><path stroke="#528539" d="M3.29 87.25q-1.8 15.5 5.15 29.34" vector-effect="non-scaling-stroke"/><path stroke="#73882f" d="M8.44 116.59q-1.76 2.46-2.15 4.66" vector-effect="non-scaling-stroke"/><path stroke="#92912a" d="M6.29 121.25q-7.97 19.95 1.59 39.05a1.27 1.21 40.7 0 1 .09.92c-1.14 3.92-3.19 7.77-3.96 11.35q-5.99 27.7 15.24 46.47" vector-effect="non-scaling-stroke"/><path stroke="#957e27" d="M19.25 219.04q11.88 9.98 27.41 10.5c1.26.04 1.91.55 2.59 1.5" vector-effect="non-scaling-stroke"/><path stroke="#946126" d="M49.25 231.04Q59.52 246.9 78 251.21" vector-effect="non-scaling-stroke"/><path stroke="#953d26" d="M78 251.21q4.29 1.07 8.14.88a2 1.99 72.7 0 1 1.8.95q6.75 10.97 18.27 16.71" vector-effect="non-scaling-stroke"/><path stroke="#942433" d="M106.21 269.75c21.19 11.36 46.55 3.25 59.47-16.3q.96-1.46 2.07-1.49" vector-effect="non-scaling-stroke"/><path stroke="#942248" d="M167.75 251.96q15.78-.55 27.75-10.67" vector-effect="non-scaling-stroke"/><path stroke="#93265a" d="M195.5 241.29c4.66-3.72 6.87-7.32 10.2-11.46a1.12 1.08 17.5 0 1 .82-.41q12.76-.62 23.48-7.38" vector-effect="non-scaling-stroke"/><path stroke="#912569" d="M230 222.04c20.13-13.52 26.96-38.27 15.73-59.89a1.7 1.68-47.2 0 1-.05-1.45c5.85-13.42 7.68-25.4 1.53-39.2" vector-effect="non-scaling-stroke"/><path stroke="#753270" d="m247.21 121.5-2.11-5.31a1.09.97 51 0 1 .04-.89q6.91-12.78 5.34-27.36" vector-effect="non-scaling-stroke"/><path stroke="#4f407c" d="M250.48 87.94c-3.77-23.55-21.61-39.34-45.42-40.18a.42.4-84.4 0 1-.38-.49q.23-1.4-1.18-1.81" vector-effect="non-scaling-stroke"/><path stroke="#345284" d="M203.5 45.46c-7.82-11.94-21.65-19.72-36.25-20.06a1.46 1.42-15.8 0 1-1.16-.63Q158.08 12.91 146 7.29" vector-effect="non-scaling-stroke"/><path stroke="#277890" d="M146 7.29q-8.44-4.05-15.5-4.3-28.17-1-43.84 22.89" vector-effect="non-scaling-stroke"/><path stroke="#2698df" d="m146 7.29-.54 1.46" vector-effect="non-scaling-stroke"/><path stroke="#1a6d84" d="M145.46 8.75c-20.4-8.86-42.76-2.36-55.12 15.6a.51.51 19.9 0 0 .37.79q23.05 2.1 36.04 21.4" vector-effect="non-scaling-stroke"/><path stroke="#21aee8" d="M126.75 46.54q2.27.83 2.17 3.08" vector-effect="non-scaling-stroke"/><path stroke="#1a6d84" d="M128.92 49.62q7.76 16.93 3.05 35.1-.12.48.21.13 11.44-12.01 28.07-14.14" vector-effect="non-scaling-stroke"/><path stroke="#2698df" d="m160.25 70.71.25 1.75" vector-effect="non-scaling-stroke"/><path stroke="#1a6d84" d="M160.5 72.46q-19.17 3.3-30.71 18.79" vector-effect="non-scaling-stroke"/><path stroke="#1ec3dc" d="m129.79 91.25-2.29-1.04" vector-effect="non-scaling-stroke"/><path stroke="#1a6d84" d="M127.5 90.21q8.21-18.98-.07-37.93-.53-1.21-1.1-.01c-3.8 8.06-3.91 14.73-4.12 23.73" vector-effect="non-scaling-stroke"/><path stroke="#1ec3dc" d="m122.21 76-1.92.25" vector-effect="non-scaling-stroke"/><path stroke="#1a6d84" d="M120.29 76.25q-1.57-13.74 4.71-26.03.36-.71-.43-.64-9.3.76-17.78 4.92" vector-effect="non-scaling-stroke"/><path stroke="#1ac2d7" d="m106.79 54.5-.79-1.96" vector-effect="non-scaling-stroke"/><path stroke="#1a6d84" d="M106 52.54q8.44-4.51 16.67-4.85 2.3-.1.89-1.91Q109.45 27.7 88.07 27.7" vector-effect="non-scaling-stroke"/><path stroke="#1ac2d7" d="M88.07 27.7q-1.21.99-2.07-.16" vector-effect="non-scaling-stroke"/><path stroke="#1a6d84" d="m86 27.54-.96-.29" vector-effect="non-scaling-stroke"/><path stroke="#1ac2d7" d="M85.04 27.25q-.59-1.85 1.62-1.37" vector-effect="non-scaling-stroke"/><path stroke="#1ec4a8" d="m84.29 59.75-1.79 1.29" vector-effect="non-scaling-stroke"/><path stroke="#1a7070" d="M106 52.54q-10.92 5.59-17.91 16.02" vector-effect="non-scaling-stroke"/><path stroke="#1e6f54" d="M88.09 68.56q-2.75-4-3.8-8.81" vector-effect="non-scaling-stroke"/><path stroke="#1a7070" d="M84.29 59.75q-3.81-16.3 3.78-32.05" vector-effect="non-scaling-stroke"/><path stroke="#274778" d="M145.46 8.75q10.69 5.31 17.69 14.91a1.3.89 39.9 0 1 .25.9q-.22 1.01-1.65.73" vector-effect="non-scaling-stroke"/><path stroke="#215d80" d="M161.75 25.29c-16.24 1.68-25.25 9.13-35 21.25" vector-effect="non-scaling-stroke"/><path stroke="#1a7070" d="M86 27.54q-8.03 16.01-3.5 33.5" vector-effect="non-scaling-stroke"/><path stroke="#1e6f54" d="m82.5 61.04.16.94q.12.68-.46.09-12.49-13.02-30.51-14.5a.65.58-69.2 0 1-.38-.99q3.18-4.74 7.44-8.54" vector-effect="non-scaling-stroke"/><path stroke="#215d80" d="M161.25 27.46q-20.44 2.62-31.92 19.43a.44.44 19.3 0 0 .33.68q21.4 1.73 34.13 18.68" vector-effect="non-scaling-stroke"/><path stroke="#215d80" d="M162 67.04q-12.31-15.78-33.08-17.42" vector-effect="non-scaling-stroke"/><path stroke="#1e7175" d="M120.29 76.25q.36 4.4 1.88 8.52a.43.26 65.9 0 1-.05.43c-.07.05-.65-.15-.68-.18q-10.01-11.05-24.69-13.73" vector-effect="non-scaling-stroke"/><path stroke="#1a7070" d="M89.97 69.51q6.71-9.77 16.82-15.01" vector-effect="non-scaling-stroke"/><path stroke="#4e60cc" d="m203.5 45.46-1.04 1.04" vector-effect="non-scaling-stroke"/><path stroke="#274778" d="M202.46 46.5q-11.24-16.53-33.23-19.36-1.65-.21-.89 1.27 6.79 13.18 3.94 28.84c-.16.89-2.68 7.56 1.47 2.71" vector-effect="non-scaling-stroke"/><path stroke="#3164c5" d="M173.75 59.96q1.27.02 1.29 1.29" vector-effect="non-scaling-stroke"/><path stroke="#274778" d="M175.04 61.25q-3.75 3.74-6.47 8.26a.32.32 18.9 0 0 .24.48q10.9 1.23 20.44 6.55" vector-effect="non-scaling-stroke"/><path stroke="#4e60cc" d="M189.25 76.54 187.96 78" vector-effect="non-scaling-stroke"/><path stroke="#274778" d="M187.96 78q-8.99-4.76-19.18-5.68a.35.35-5.2 0 0-.37.44q.4 1.49 1.59 4.67 4.31 11.59 2.33 24.36c-.13.83-3.39 8.73 1.42 3.17" vector-effect="non-scaling-stroke"/><path stroke="#4e60cc" d="m173.75 104.96.75 2.33" vector-effect="non-scaling-stroke"/><path stroke="#274778" d="m174.5 107.29-5.45 6.57a.57.51-49.6 0 0 .02.76q.45.4 1.14.38" vector-effect="non-scaling-stroke"/><path stroke="#5c62d4" d="M170.21 115q-1.15 1.08-.71 2.46" vector-effect="non-scaling-stroke"/><path stroke="#274778" d="m169.5 117.46-.46.04" vector-effect="non-scaling-stroke"/><path stroke="#4e60cc" d="M169.04 117.5q-2.29-.13-2.58 2.25" vector-effect="non-scaling-stroke"/><path stroke="#274778" d="m166.46 119.75-.46-.04" vector-effect="non-scaling-stroke"/><path stroke="#4b60c7" d="M166 119.71q1.42-2.22.04-4.21" vector-effect="non-scaling-stroke"/><path stroke="#2e88dc" d="m166.04 115.5-1.04-1.29" vector-effect="non-scaling-stroke"/><path stroke="#2f81da" d="M165 114.21q.45-1.77-1.16-1.77-1.83 0-.58-1.22 1.13-1.11.53-2.72" vector-effect="non-scaling-stroke"/><path stroke="#274778" d="m163.79 108.5 1.41 3.68q.7 1.84 1.51.04 8.39-18.69.01-37.41a1.17.65 73.3 0 0-.71-.69q-.41-.06-.72.38" vector-effect="non-scaling-stroke"/><path stroke="#2f81da" d="M165.29 74.5q-.58-1.08-2-.8" vector-effect="non-scaling-stroke"/><path stroke="#274778" d="M163.29 73.7q.38-2.04-2.79-1.24m-.25-1.75 3.25-.62a.33.33-21.9 0 0 .22-.51L162 67.04" vector-effect="non-scaling-stroke"/><path stroke="#2e88dc" d="m162 67.04 1.79-.79" vector-effect="non-scaling-stroke"/><path stroke="#274778" d="m163.79 66.25 1.58 1.85a.75.65 38.5 0 0 1.18-.05q9.34-20.58-1.12-40.51a.84.71 70.9 0 0-.76-.45l-3.42.37" vector-effect="non-scaling-stroke"/><path stroke="#2e88dc" d="M161.25 27.46q.77-.94.5-2.17" vector-effect="non-scaling-stroke"/><path stroke="#1e7175" d="M127.5 90.21c-2 1.75-5.09-13.01-5.29-14.21" vector-effect="non-scaling-stroke"/><path stroke="#1a7070" d="M85.04 27.25q-14.88 1.27-26.29 10.79" vector-effect="non-scaling-stroke"/><path stroke="#1ec4a8" d="m58.75 38.04-.54-1.54" vector-effect="non-scaling-stroke"/><path stroke="#22557f" d="M163.29 73.7q-9.85 13.35-25.83 17.8" vector-effect="non-scaling-stroke"/><path stroke="#1e7175" d="M129.79 91.25q-.68.63-.38 1.14a.9.58-15.2 0 0 .84.27l7.21-1.16" vector-effect="non-scaling-stroke"/><path stroke="#26abd7" d="M137.46 91.5q1.34.33 1.2 2.02" vector-effect="non-scaling-stroke"/><path stroke="#1e7175" d="m138.66 93.52 12.38 5.98" vector-effect="non-scaling-stroke"/><path stroke="#26abd7" d="m151.04 99.5-1.54 1.29" vector-effect="non-scaling-stroke"/><path stroke="#1e7175" d="M149.5 100.79q-9.05-5.19-19.44-5.7-.5-.03-.23.4 5.14 8.19 13.46 13.26" vector-effect="non-scaling-stroke"/><path stroke="#25b3d9" d="M143.29 108.75q-.58 1.15-1.79 1.29" vector-effect="non-scaling-stroke"/><path stroke="#1e7175" d="M141.5 110.04q-5.34-3.38-9.69-8.09-.4-.43-.25.03 4.5 14.09.13 28.22-.17.55.25.18l1.31-1.17" vector-effect="non-scaling-stroke"/><path stroke="#25b3d9" d="m133.25 129.21 1.75.83" vector-effect="non-scaling-stroke"/><path stroke="#1e7175" d="m135 130.04-4.5 5.25" vector-effect="non-scaling-stroke"/><path stroke="#46aaba" d="M130.5 135.29q-3.08-.04-1.29 2.21" vector-effect="non-scaling-stroke"/><path stroke="#1e7175" d="m129.21 137.5.04.21" vector-effect="non-scaling-stroke"/><path stroke="#438ac4" d="m129.25 137.71-1.25.75" vector-effect="non-scaling-stroke"/><path stroke="#8bc074" d="m128 138.46-.5-1" vector-effect="non-scaling-stroke"/><path stroke="#60d280" d="m127.5 137.46-.54-1.46" vector-effect="non-scaling-stroke"/><path stroke="#1e7175" d="M126.96 136q9.29-19.29.36-38.83-.55-1.22-1.06.02l-1.51 3.6" vector-effect="non-scaling-stroke"/><path stroke="#20c9a9" d="M124.75 100.79q-1.14.34-1.8-.38-.49-.53-.27.15.76 2.31-.93 1.94" vector-effect="non-scaling-stroke"/><path stroke="#22ca9e" d="m121.75 102.5-1.75-1.29" vector-effect="non-scaling-stroke"/><path stroke="#1e7175" d="m120 101.21 4.15-5.32q.88-1.13-.58-1.02l-4.57.34" vector-effect="non-scaling-stroke"/><path stroke="#20c9a9" d="M119 95.21q-1.47-1.71-3.09-1.52" vector-effect="non-scaling-stroke"/><path stroke="#1e7175" d="m115.91 93.69-1.66-.73m1-1.75 8.76 1.54q1 .17.42-.67-10.2-14.7-27.68-18.87" vector-effect="non-scaling-stroke"/><path stroke="#1ec4a8" d="M88.09 68.56q.5 1.03 1.88.95" vector-effect="non-scaling-stroke"/><path stroke="#1e6f54" d="M89.97 69.51q3.13 1.36 6.78 1.78" vector-effect="non-scaling-stroke"/><path stroke="#22c5ad" d="M96.75 71.29v1.92" vector-effect="non-scaling-stroke"/><path stroke="#1e6f54" d="m96.75 73.21-5.42-.8q-1.84-.27-.74 1.23 9.41 12.88 24.66 17.57" vector-effect="non-scaling-stroke"/><path stroke="#22c5ad" d="M115.25 91.21q-1.1.56-1 1.75" vector-effect="non-scaling-stroke"/><path stroke="#1e6f54" d="M114.25 92.96q-12.01-3.41-20.62-12.42a.4.35 36.5 0 0-.62.05c-.14.35 1.25 7.14 1.28 8.41" vector-effect="non-scaling-stroke"/><path stroke="#21c570" d="M94.29 89q-.44 1.15-1.75 1" vector-effect="non-scaling-stroke"/><path stroke="#1e6f54" d="M92.54 90q-1.26-8.29-4.59-15.94-.34-.79-.62 0l-3.58 10.23" vector-effect="non-scaling-stroke"/><path stroke="#21c570" d="m83.75 84.29-1.71-.79" vector-effect="non-scaling-stroke"/><path stroke="#1e6f54" d="M82.04 83.5q1.12-5.46 3.39-10.33.5-1.06-.67-.93-8.05.93-15.51 4.05" vector-effect="non-scaling-stroke"/><path stroke="#21c570" d="m69.25 76.29-.5-2" vector-effect="non-scaling-stroke"/><path stroke="#1e6f54" d="M68.75 74.29q7.82-3.49 16.47-4.1.55-.03.28-.43-12.72-18.41-35.25-20.01a1.49 1.47-74.9 0 0-1.45.84q-3.35 7-4.84 14.66" vector-effect="non-scaling-stroke"/><path stroke="#21c570" d="M43.96 65.25 42.04 65" vector-effect="non-scaling-stroke"/><path stroke="#1e6f54" d="M42.04 65q1.02-7.45 4.3-14.34a.36.36-74.8 0 0-.29-.51c-6.08-.64-13.92 2.5-19.05 5.14" vector-effect="non-scaling-stroke"/><path stroke="#1ebb69" d="m27 55.29-1.54-1.04" vector-effect="non-scaling-stroke"/><path stroke="#5d3478" d="M168.96 126q3.79 13.58-.42 27" vector-effect="non-scaling-stroke"/><path stroke="#841a5d" d="m168.54 153-2.24 5.01q-.22.47-.47 0-2.87-5.32-4.12-11.26" vector-effect="non-scaling-stroke"/><path stroke="#48377b" d="M161.71 146.75q-1.73-12.73 2.79-24.71" vector-effect="non-scaling-stroke"/><path stroke="#4676d0" d="M166.04 115.5q-1.16 2.18-3.79 1.96" vector-effect="non-scaling-stroke"/><path stroke="#215d80" d="M162.25 117.46q-15.77 1.73-27.25 12.58" vector-effect="non-scaling-stroke"/><path stroke="#423570" d="m202.46 46.5.04 1.29" vector-effect="non-scaling-stroke"/><path stroke="#25396a" d="M202.5 47.79q-16.69.76-28.75 12.17" vector-effect="non-scaling-stroke"/><path stroke="#25396a" d="M202.25 49.46q-15.38 1.87-27.21 11.79" vector-effect="non-scaling-stroke"/><path stroke="#3f346c" d="m166 119.71-1.5 2.33" vector-effect="non-scaling-stroke"/><path stroke="#6c50ca" d="M164.5 122.04q-1.18-.16-1.93.57a1.89 1.36-66.2 0 1-.82.48q-2.22.51-1.19 2.34" vector-effect="non-scaling-stroke"/><path stroke="#3f346c" d="M160.56 125.43c-5.95 5.55-13.13 10.37-21.04 12.41q-3.21.82-.01 1.68 8.55 2.3 15.95 7.87" vector-effect="non-scaling-stroke"/><path stroke="#a833ad" d="M155.46 147.39q-1.56 1.45.29 3.07" vector-effect="non-scaling-stroke"/><path stroke="#3f346c" d="M155.75 150.46q-10.82-9.69-26.22-10.34" vector-effect="non-scaling-stroke"/><path stroke="#a833ad" d="M129.53 140.12q1.64-2.4-1.74-1.37" vector-effect="non-scaling-stroke"/><path stroke="#ac836b" d="m127.79 138.75.21-.29" vector-effect="non-scaling-stroke"/><path stroke="#3f346c" d="M129.25 137.71q21.44-1.93 33.71-19.2c.52-.74.29-1.29-.71-1.05" vector-effect="non-scaling-stroke"/><path stroke="#22557f" d="M165.29 74.5q-7.37 16.7-1.5 34" vector-effect="non-scaling-stroke"/><path stroke="#2997e3" d="m165 114.21-1.21.54" vector-effect="non-scaling-stroke"/><path stroke="#22557f" d="M163.79 114.75q-5.68-8.47-14.29-13.96m1.54-1.29 9.41 7.23q.61.46.4-.26-3.76-13.21.17-26.42.14-.49-.24-.08-8.91 9.73-22.12 13.55" vector-effect="non-scaling-stroke"/><path stroke="#9040b8" d="m250.48 87.94-1.69.31" vector-effect="non-scaling-stroke"/><path stroke="#423570" d="M248.79 88.25c-2.62-21.7-19.79-36.96-41.13-38.73a.41.41-9.4 0 0-.41.57q9.5 21.36.11 41.71c-.18.39-.13.6.14.91" vector-effect="non-scaling-stroke"/><path stroke="#854ecc" d="m207.5 92.71-1.4.95a.57.54 52.1 0 1-.72-.11q-1.22-1.36-1.67.7" vector-effect="non-scaling-stroke"/><path stroke="#7750cc" d="m203.71 94.25-.87.89" vector-effect="non-scaling-stroke"/><path stroke="#423570" d="M202.84 95.14q-16.52.82-28.34 12.15" vector-effect="non-scaling-stroke"/><path stroke="#423570" d="M173.75 104.96c7.99-7.72 17.57-11.07 28.59-12.44a.32.31-19.7 0 0 .23-.48q-5.69-8.71-14.61-14.04" vector-effect="non-scaling-stroke"/><path stroke="#423570" d="M189.25 76.54q9.49 5.58 15.5 14.75.29.44.51-.03 9.71-20.46-.18-40.84a1.61 1.07 79.8 0 0-.7-.73q-.98-.4-2.13-.23" vector-effect="non-scaling-stroke"/><path stroke="#4c52be" d="M202.25 49.46q-.49-.89.25-1.67" vector-effect="non-scaling-stroke"/><path stroke="#5d3478" d="M179.75 129.46q-4.64-3.55-8.46-7.96" vector-effect="non-scaling-stroke"/><path stroke="#503678" d="M205 96.29c-7.18 9.47-15.96 16.44-27.38 19.57a.86.45-10.3 0 0-.62.48q-.05.31.48.44 12.18 3.06 20.56 11.72" vector-effect="non-scaling-stroke"/><path stroke="#503678" d="M196.5 129.54q-11.51-10.37-27-12.08m.71-2.46q20.81-2.58 32.63-19.86" vector-effect="non-scaling-stroke"/><path stroke="#423570" d="M169.04 117.5q.47 2.31 2.25 4" vector-effect="non-scaling-stroke"/><path stroke="#854ecc" d="M171.29 121.5q-.74.68-1.77.59-.5-.04-.27.36.81 1.46 2.27 2.45" vector-effect="non-scaling-stroke"/><path stroke="#423570" d="m171.52 124.9-.52.14" vector-effect="non-scaling-stroke"/><path stroke="#854ecc" d="M171 125.04q-1.65-1.16-2.04.96" vector-effect="non-scaling-stroke"/><path stroke="#423570" d="m168.96 126-2.5-6.25" vector-effect="non-scaling-stroke"/><path stroke="#1e7446" d="M120 101.21q-6.1 6.3-14.04 10.04" vector-effect="non-scaling-stroke"/><path stroke="#5c7c28" d="M105.96 111.25q-6.87 2.86-14.25 4" vector-effect="non-scaling-stroke"/><path stroke="#85851e" d="m91.71 115.25-1.5-.25" vector-effect="non-scaling-stroke"/><path stroke="#1c7351" d="M119 95.21q-12.89 2.8-22.71 11.54" vector-effect="non-scaling-stroke"/><path stroke="#1e7446" d="M121.75 102.5q-6.86 6.95-15.75 10.96" vector-effect="non-scaling-stroke"/><path stroke="#60d451" d="M106 113.46q.32-1.09-.04-2.21" vector-effect="non-scaling-stroke"/><path stroke="#5c7c28" d="m126.96 136-1.92-3.28" vector-effect="non-scaling-stroke"/><path stroke="#387730" d="m125.04 132.72-2.08-6.97" vector-effect="non-scaling-stroke"/><path stroke="#1c7351" d="M122.96 125.75q-2.49-12.75 1.79-24.96" vector-effect="non-scaling-stroke"/><path stroke="#215d80" d="M141.5 110.04q6.61 3.95 14.02 6.07.47.14-.01.26-13.01 3.21-22.26 12.84m30.54-14.46q-11.07-.2-20.5-6" vector-effect="non-scaling-stroke"/><path stroke="#425461" d="m129.21 137.5 1.29-2.21" vector-effect="non-scaling-stroke"/><path stroke="#7ad83b" d="M121.54 130.5q1.14 2.19 3.5 2.22" vector-effect="non-scaling-stroke"/><path stroke="#c9cb27" d="M127.5 137.46q-.89.43-1.44-.07a.64.62 51.5 0 0-.71-.09q-.28.15-.6.16" vector-effect="non-scaling-stroke"/><path stroke="#5c7c28" d="M124.75 137.46q-12.21-17.49-33.56-20.02" vector-effect="non-scaling-stroke"/><path stroke="#387730" d="m120.79 125 .75 5.5" vector-effect="non-scaling-stroke"/><path stroke="#5c7c28" d="M121.54 130.5q-9.06-10.59-22.57-13.79-1.23-.29 0-.73l7.03-2.52" vector-effect="non-scaling-stroke"/><path stroke="#3acf64" d="M122.96 125.75q-.71-1.45-2.17-.75" vector-effect="non-scaling-stroke"/><path stroke="#1c7351" d="M120.79 125q-1.65-11.35.96-22.5m-5.84-8.81q-11.31 3.28-20.16 11.02" vector-effect="non-scaling-stroke"/><path stroke="#457a2d" d="m95.75 104.71-2.56 2.39q-.48.45-.34-.17l.44-1.93" vector-effect="non-scaling-stroke"/><path stroke="#1d7138" d="M93.29 105q2.13-7.9 1-16" vector-effect="non-scaling-stroke"/><path stroke="#f5781d" d="M127 139.54q-1.74-.85-2.59.5" vector-effect="non-scaling-stroke"/><path stroke="#876a1c" d="M124.41 140.04Q104.24 141.3 92 156.79" vector-effect="non-scaling-stroke"/><path stroke="#f4a419" d="m92 156.79-3.46.46" vector-effect="non-scaling-stroke"/><path stroke="#1d7138" d="M82.04 83.5q-1.84 7.16-1 14.5" vector-effect="non-scaling-stroke"/><path stroke="#457a2d" d="m81.04 98 1.47 9.04q.1.57-.26.2-12.57-13.25-30.99-14.58a.32.31 18.6 0 1-.25-.49l.45-.67" vector-effect="non-scaling-stroke"/><path stroke="#1d7138" d="M51.46 91.5q6.84-9.98 17.79-15.21" vector-effect="non-scaling-stroke"/><path stroke="#1d7138" d="M68.75 74.29q-12.34 5.87-20 17.17" vector-effect="non-scaling-stroke"/><path stroke="#457a2d" d="m48.75 91.46-.54-.46" vector-effect="non-scaling-stroke"/><path stroke="#1d7138" d="M48.21 91q-5.5-12.29-4.25-25.75M92.54 90q.29 7.09-1.25 14" vector-effect="non-scaling-stroke"/><path stroke="#457a2d" d="m91.29 104-3.07 8.71q-.46 1.29-1.04.01-3.27-7.14-4.22-15.22" vector-effect="non-scaling-stroke"/><path stroke="#1d7138" d="M82.96 97.5q-.52-6.66.79-13.21" vector-effect="non-scaling-stroke"/><path stroke="#48d049" d="m82.96 97.5-1.92.5m-32.83-7-1.75.5" vector-effect="non-scaling-stroke"/><path stroke="#1d7138" d="M42.04 65q-2 14 4.42 26.5" vector-effect="non-scaling-stroke"/><path stroke="#457a2d" d="M46.46 91.5c.18.68-.1 1-.77 1.06q-22.84 2.17-35.86 20.89a.29.29-41.3 0 1-.5-.03Q3.38 101.27 4.96 88" vector-effect="non-scaling-stroke"/><path stroke="#1a6731" d="M4.96 88Q8.39 66.43 27 55.29" vector-effect="non-scaling-stroke"/><path stroke="#45c642" d="M4.96 88q-.48-1.03-1.67-.75" vector-effect="non-scaling-stroke"/><path stroke="#48d049" d="M51.46 91.5q-1.42.9-2.71-.04" vector-effect="non-scaling-stroke"/><path stroke="#48377b" d="M160 147.04q-2.08-10.81.56-21.61" vector-effect="non-scaling-stroke"/><path stroke="#f0198f" d="M230 222.04q-1.45.13-1-1.5" vector-effect="non-scaling-stroke"/><path stroke="#841a5d" d="M229 220.54c18.54-12.39 25.93-36.22 15.5-56.45a.4.28 52.7 0 0-.56-.18q-12.81 18.78-35.69 20.98a.86.85-15.7 0 0-.7 1.22q6.7 13.53 3.66 28.89" vector-effect="non-scaling-stroke"/><path stroke="#f0198f" d="m211.21 215-1.75-1.75" vector-effect="non-scaling-stroke"/><path stroke="#841a5d" d="M209.46 213.25q2.04-13.78-3.94-26.32-.47-1-1.08-.08-6.36 9.63-16.69 15.11" vector-effect="non-scaling-stroke"/><path stroke="#f0198f" d="M187.75 201.96q.12-.93.79-1.29.35-.19-.03-.27l-1.76-.36" vector-effect="non-scaling-stroke"/><path stroke="#841a5d" d="M186.75 200.04q9.78-5.32 15.82-14.34a.55.54 19.1 0 0-.42-.84q-17.75-1.45-30.18-14.07-1.22-1.23-.74.45 3.55 12.41.02 24.8" vector-effect="non-scaling-stroke"/><path stroke="#f0198f" d="m171.25 196.04-2.21.21" vector-effect="non-scaling-stroke"/><path stroke="#841a5d" d="M169.04 196.25q4.57-15.94-2.4-31.27-.71-1.56-1.27.01l-3.16 9.01" vector-effect="non-scaling-stroke"/><path stroke="#f0198f" d="M162.21 174q-1.46.02-1.75-1.25" vector-effect="non-scaling-stroke"/><path stroke="#841a5d" d="M160.46 172.75q.41-1.12.34-2.25-.03-.52-.39-.15-8.57 8.86-20.41 12.44" vector-effect="non-scaling-stroke"/><path stroke="#f1157d" d="M140 182.79q-.72-.82-.75-2" vector-effect="non-scaling-stroke"/><path stroke="#841a5d" d="M139.25 180.79q14.17-4.41 23.71-17.06 1.15-1.53-.76-1.3-16.02 1.96-26.7 12.36" vector-effect="non-scaling-stroke"/><path stroke="#f1157d" d="m135.5 174.79-2.25-1.33" vector-effect="non-scaling-stroke"/><path stroke="#841a5d" d="M133.25 173.46q9.07-8.81 20.75-11.99 1.26-.34 0-.68-12.66-3.42-21.47-13.07-.32-.35-.52-.28a.58.31 70.9 0 0-.1.65q2.49 7.52 1.63 15.41" vector-effect="non-scaling-stroke"/><path stroke="#f1157d" d="m133.54 163.5-2 1.5" vector-effect="non-scaling-stroke"/><path stroke="#841a5d" d="M131.54 165q.87-12.25-4.35-23.39" vector-effect="non-scaling-stroke"/><path stroke="#f1285e" d="m127.19 141.61-.19-2.07" vector-effect="non-scaling-stroke"/><path stroke="#f1695d" d="m127 139.54.79-.79" vector-effect="non-scaling-stroke"/><path stroke="#841a5d" d="M129.53 140.12q11.38 17.78 32.74 20.13 2.21.24.9-1.55-3.14-4.33-7.42-8.24m-.29-3.07 5.39 5.17q.27.26.2-.1l-1.05-5.42" vector-effect="non-scaling-stroke"/><path stroke="#b135bc" d="m160 147.04 1.71-.29" vector-effect="non-scaling-stroke"/><path stroke="#c733b9" d="M168.54 153q1.11-.66 2.25-.25" vector-effect="non-scaling-stroke"/><path stroke="#841a5d" d="m170.79 152.75 1.21-.79m1.79.79-4.73 5.81q-1.58 1.93.95 1.6 14.91-1.93 25.99-11.7" vector-effect="non-scaling-stroke"/><path stroke="#841a5d" d="M197.79 149.5q-8.53 8.51-19.46 11.26-1.64.41 0 .88 16.84 4.79 26.39 19.41.25.39.55-.19 8.24-16.4 2.27-33.86" vector-effect="non-scaling-stroke"/><path stroke="#841a5d" d="M209.29 145.75q6.46 18.49-1.96 36.09-.46.95.64.84 22.6-2.25 34.77-21.24a.86.81 46.1 0 0-.01-.91q-7.91-12.4-21.52-18.03" vector-effect="non-scaling-stroke"/><path stroke="#5d3478" d="M171 125.04q4.08 13.89-.21 27.71M229.46 102q-8.7-5.53-17.46-6.53c-1.37-.15-5.51-1.62-4.47.72q4.59 10.31 4.43 20.81" vector-effect="non-scaling-stroke"/><path stroke="#5d3478" d="M210.04 118q.4-11.57-5.04-21.71" vector-effect="non-scaling-stroke"/><path stroke="#934fd4" d="M205 96.29q.63-1.5-1.29-2.04" vector-effect="non-scaling-stroke"/><path stroke="#d225a5" d="m247.21 121.5-1.17.75" vector-effect="non-scaling-stroke"/><path stroke="#682664" d="m246.04 122.25-1.68-3.52q-.24-.49-.47-.13-9.98 14.98-27.38 19.67a.38.36-6.5 0 0-.29.34c-.01.12 5.14 1.79 5.78 2.1" vector-effect="non-scaling-stroke"/><path stroke="#d225a5" d="m222 140.71-.79 1.79" vector-effect="non-scaling-stroke"/><path stroke="#682664" d="m221.21 142.5-8.17-2.22a1.18.1 14.9 0 1-.99-.35q-.51-.74-1.22-.08a1.31.91 25.4 0 1-1.09.18l-2.23-.57q-.64-.17-.37.56l2.15 5.73" vector-effect="non-scaling-stroke"/><path stroke="#d225a5" d="m209.29 145.75-1.75 1.25" vector-effect="non-scaling-stroke"/><path stroke="#682664" d="M207.54 147q-.72-2.89-2.43-5.28a.39.35-42.8 0 0-.59.01l-6.73 7.77" vector-effect="non-scaling-stroke"/><path stroke="#d225a5" d="M197.79 149.5q-.58-1.09-1.79-1.04" vector-effect="non-scaling-stroke"/><path stroke="#682664" d="M196 148.46q3.87-3.57 6.71-8.03.54-.84-.46-.76-16.51 1.34-28.46 13.08" vector-effect="non-scaling-stroke"/><path stroke="#d225a5" d="m173.79 152.75-1.79-.79" vector-effect="non-scaling-stroke"/><path stroke="#682664" d="M172 151.96q8.71-9.54 21.31-12.94 1.73-.47-.01-.91-8.3-2.09-15.34-7.36" vector-effect="non-scaling-stroke"/><path stroke="#ab3fbf" d="M177.96 130.75q.52-1.18 1.79-1.29" vector-effect="non-scaling-stroke"/><path stroke="#682664" d="M179.75 129.46q10.26 7.13 22.69 7.95.57.03.22-.39l-6.16-7.48" vector-effect="non-scaling-stroke"/><path stroke="#9e41c0" d="m196.5 129.54 1.54-1.04" vector-effect="non-scaling-stroke"/><path stroke="#682664" d="M198.04 128.5q3.35 2.83 5.66 6.56 1.16 1.88 2.13-.1 3.71-7.65 4.21-16.96" vector-effect="non-scaling-stroke"/><path stroke="#ab3fbf" d="M210.04 118q.82-.8 1.92-1" vector-effect="non-scaling-stroke"/><path stroke="#682664" d="M211.96 117q.04 10.4-4.68 19.82a.32.3-76 0 0 .26.46c13.59-.11 27.54-8.59 34.69-20.21a2.11 2.1 44.1 0 0-.04-2.26q-5.09-7.65-12.73-12.81" vector-effect="non-scaling-stroke"/><path stroke="#ab3fbf" d="M229.46 102q1.05-.45 1.08-1.5" vector-effect="non-scaling-stroke"/><path stroke="#682664" d="M248.79 88.25c.96 7.49.02 18.23-4.57 24.99a.35.34-45.2 0 1-.57.01q-5.41-7.68-13.11-12.75" vector-effect="non-scaling-stroke"/><path stroke="#5d3478" d="M230.54 100.5q-10.28-7.41-23.04-7.79m-29.54 38.04q-3.7-2.35-6.44-5.85" vector-effect="non-scaling-stroke"/><path stroke="#48d049" d="M91.29 104q1.33-.06 2 1" vector-effect="non-scaling-stroke"/><path stroke="#47d262" d="M95.75 104.71q2 .15.54 2.04" vector-effect="non-scaling-stroke"/><path stroke="#457a2d" d="M96.29 106.75q-3.66 3.69-6.08 8.25" vector-effect="non-scaling-stroke"/><path stroke="#b0e42f" d="m90.21 115-2.25-.81a.47.46-70.2 0 0-.6.29q-.65 1.92-2.1.5" vector-effect="non-scaling-stroke"/><path stroke="#457a2d" d="M85.26 114.98Q73.33 97.03 51.57 94.85q-.99-.1-.43.73 6.87 10.21 18.11 15.63" vector-effect="non-scaling-stroke"/><path stroke="#b0e42f" d="M69.25 111.21q-1.21.31-1.54 1.54" vector-effect="non-scaling-stroke"/><path stroke="#457a2d" d="M67.71 112.75q-11.37-5.54-18.41-16.16a.52.52-48.1 0 0-.9.05q-4.04 7.87-4.69 16.36" vector-effect="non-scaling-stroke"/><path stroke="#b0e42f" d="M43.71 113q-.6-1.56-1.67-.5" vector-effect="non-scaling-stroke"/><path stroke="#457a2d" d="M42.04 112.5q.41-8.56 3.8-15.43 1.24-2.51-1.53-2.13-21.77 2.97-33.34 21.15" vector-effect="non-scaling-stroke"/><path stroke="#91db34" d="m10.97 116.09-2.53.5" vector-effect="non-scaling-stroke"/><path stroke="#c7e629" d="M91.71 115.25q.07.86-.52 2.19" vector-effect="non-scaling-stroke"/><path stroke="#85851e" d="M91.19 117.44q-1.53.1-.34 1.68 11.51 15.22 30.73 18.27" vector-effect="non-scaling-stroke"/><path stroke="#f2d41d" d="M121.58 137.39q-1.26 2.99-5.08 1.32" vector-effect="non-scaling-stroke"/><path stroke="#85851e" d="M116.5 138.71q-13.53-3.64-23.34-13.54-.34-.35-.23.12 2.13 8.47 1.78 17.21" vector-effect="non-scaling-stroke"/><path stroke="#f2d41d" d="M94.71 142.5q-1.08.87-2.42.75" vector-effect="non-scaling-stroke"/><path stroke="#85851e" d="M92.29 143.25q1.23-12.64-4.56-23.81-.23-.45-.44.02-8.86 19.31 0 38.79" vector-effect="non-scaling-stroke"/><path stroke="#f2bf1b" d="M87.29 158.25q-.64 1.44-2.25 1.25" vector-effect="non-scaling-stroke"/><path stroke="#85851e" d="M85.04 159.5q-12.09-17.51-33.37-19.49-1.01-.09-.44.74 7.35 10.76 19.27 16.04" vector-effect="non-scaling-stroke"/><path stroke="#f3dd1d" d="M70.5 156.79q.24 1.02-.5 1.92" vector-effect="non-scaling-stroke"/><path stroke="#85851e" d="M70 158.71q-12.64-5.11-20.59-16.73-.7-1.01-1.23.1-8.85 18.47-.39 37.92" vector-effect="non-scaling-stroke"/><path stroke="#f3dd1d" d="m47.79 180-1.79.79" vector-effect="non-scaling-stroke"/><path stroke="#85851e" d="M46 180.79q-9.15-20.17.51-40.09.47-.98-.5-.89-22.18 2.08-34.59 20.39a1.89 1.76 45.9 0 0 .04 2.03q11.92 17.8 33.29 20.31" vector-effect="non-scaling-stroke"/><path stroke="#f3dd1d" d="m44.75 182.54-.31 2.23" vector-effect="non-scaling-stroke"/><path stroke="#85851e" d="M44.44 184.77q-21.93-2.57-34.58-20.63a.3.3 40.4 0 0-.51.04c-9.37 18.53-4.32 40.4 11.44 53.57" vector-effect="non-scaling-stroke"/><path stroke="#f3dd1d" d="M20.79 217.75q.03 1.37-1.54 1.29" vector-effect="non-scaling-stroke"/><path stroke="#d1e624" d="M6.29 121.25q1.07-.94 1.92 0" vector-effect="non-scaling-stroke"/><path stroke="#85851e" d="M8.21 121.25q-7.69 18.86 1.02 37.11.33.69.73.1 9.92-14.69 27.05-19.44.8-.22.01-.45-15.67-4.56-25.56-17.32" vector-effect="non-scaling-stroke"/><path stroke="#d1e624" d="M11.46 121.25q-.13-1.63 1.29-2.04" vector-effect="non-scaling-stroke"/><path stroke="#876a1c" d="m124.75 137.46-3.17-.07m-5.08 1.32q-13.44 3.48-23.33 13.13-.36.34-.26-.14l1.8-9.2" vector-effect="non-scaling-stroke"/><path stroke="#88441b" d="M101 158.29Q95.77 160 90.29 160" vector-effect="non-scaling-stroke"/><path stroke="#87551a" d="M90.29 160q.47-1.79 1.71-3.21" vector-effect="non-scaling-stroke"/><path stroke="#876a1c" d="M92.29 143.25q-1.02 7.23-3.75 14" vector-effect="non-scaling-stroke"/><path stroke="#87551a" d="m88.54 157.25-1.25 1" vector-effect="non-scaling-stroke"/><path stroke="#88291d" d="M127.19 141.61q-1.38 1.05-1.69 2.43" vector-effect="non-scaling-stroke"/><path stroke="#f5253d" d="M125.5 144.04c-.74-2.49-3.47 3.07-3.81 3.62" vector-effect="non-scaling-stroke"/><path stroke="#88291d" d="M121.69 147.66q-8.62 8.97-20.4 12.59" vector-effect="non-scaling-stroke"/><path stroke="#f6521c" d="m101.29 160.25-.29-1.96" vector-effect="non-scaling-stroke"/><path stroke="#88291d" d="M101 158.29q14.97-4.97 23.41-18.25" vector-effect="non-scaling-stroke"/><path stroke="#f57e18" d="M90.29 160q-2.22 2.02-2.95 4.38" vector-effect="non-scaling-stroke"/><path stroke="#87551a" d="M87.34 164.38q-8.01 17.25-1.63 34.87" vector-effect="non-scaling-stroke"/><path stroke="#f56c18" d="m85.71 199.25-1.92.75" vector-effect="non-scaling-stroke"/><path stroke="#87551a" d="M83.79 200q-5.49-14.28-1.3-29.02.34-1.21-.64-.31L79 173.29m-1.75-1.33q4.46-3.87 7.72-8.79a.49.39-62.6 0 0-.14-.69q-.26-.08-.58-.02" vector-effect="non-scaling-stroke"/><path stroke="#861a4e" d="m169.04 196.25-2.38 6.47q-.51 1.4-1.14.01-6.22-13.83-3.31-28.73M229 220.54q-9.74 6.07-21.18 6.87a.31.31 9.8 0 1-.31-.43q2.51-5.79 3.7-11.98" vector-effect="non-scaling-stroke"/><path stroke="#861a4e" d="M160.46 172.75q-3.25 12.51.79 24.55.59 1.77-.65.38-7.98-8.87-19.35-12.47" vector-effect="non-scaling-stroke"/><path stroke="#841a5d" d="M246.04 122.25q6.9 18.48-1.57 36.05a.29.29-49.3 0 1-.5.04q-8.29-12.15-21.97-17.63" vector-effect="non-scaling-stroke"/><path stroke="#861a4e" d="M187.75 201.96q-8.31 4.5-18.8 5.39-.81.07-.33.74 12.93 17.95 35.15 19.58a.75.65-72.3 0 0 .67-.41q3.5-6.64 5.02-14.01" vector-effect="non-scaling-stroke"/><path stroke="#f3166e" d="m195.5 241.29-1.5-1.33" vector-effect="non-scaling-stroke"/><path stroke="#861a4e" d="M194 239.96q4.83-4.4 8.73-9.6.53-.7-.14-.75-18.29-1.39-30.93-14.54-.47-.49-.36.15l1.24 7.28" vector-effect="non-scaling-stroke"/><path stroke="#f3166e" d="M172.54 222.5q-.82 1.26-2 1" vector-effect="non-scaling-stroke"/><path stroke="#861a4e" d="M170.54 223.5q-.92-7.31-4.09-13.96-.63-1.33-1.42-.1-7.75 11.95-21.53 17.02" vector-effect="non-scaling-stroke"/><path stroke="#f31859" d="M143.5 226.46q.17-1.21-1-1.67" vector-effect="non-scaling-stroke"/><path stroke="#861a4e" d="M142.5 224.79q12.95-5.21 20.94-16.61.53-.76-.4-.8-7.4-.37-14.55-3.48m1.01-1.69q6.33 2.26 13.01 3.04 1.68.19.71-1.2-8.13-11.65-22.01-16.8m45.54 12.79q-8.2 4.44-17.62 5.24a.96.89-81.3 0 1-.88-1.3l3-7.94" vector-effect="non-scaling-stroke"/><path stroke="#87173c" d="M131.54 165q-.69 8.26-4.26 15.52-.5 1.03-.97-.02-8.12-18.07-.81-36.46m8.04 19.46c.32 3.98-1.14 6.86-1.25 10.44q-.02.4.3.12l.66-.6m2.25 1.33-5.96 6.76q-1.26 1.43.58 1.06l9.13-1.82m.75 2-2.03.78q-.47.18 0 .36l3.28 1.28" vector-effect="non-scaling-stroke"/><path stroke="#f3166e" d="M141.25 185.21q-1.11 1-.04 2.04" vector-effect="non-scaling-stroke"/><path stroke="#87173c" d="M141.21 187.25q-5.77-1.77-11.62-2.11-.77-.05-.32.59 7.86 10.99 20.23 16.48" vector-effect="non-scaling-stroke"/><path stroke="#f3166e" d="M149.5 202.21q-.88.33-1.01 1.69" vector-effect="non-scaling-stroke"/><path stroke="#87173c" d="M148.49 203.9q-9.31-3.77-16.08-11.09-.96-1.04-.54.32 2.57 8.39 1.84 17.62" vector-effect="non-scaling-stroke"/><path stroke="#f41447" d="m133.71 210.75-2.33.24" vector-effect="non-scaling-stroke"/><path stroke="#87173c" d="M131.38 210.99q1.31-12.47-4.01-23.54-.6-1.25-1.13.04l-2.03 5.01" vector-effect="non-scaling-stroke"/><path stroke="#f41447" d="M124.21 192.5q-1.73-1.29-2.25-3.5" vector-effect="non-scaling-stroke"/><path stroke="#87173c" d="m121.96 189 2.17-3.05a.36.34-64 0 0-.17-.54q-1.88-.53-3.71.3" vector-effect="non-scaling-stroke"/><path stroke="#f51d40" d="M120.25 185.71q.3-.73 1.01-.76a1.1.96 12.5 0 0 .83-.45q.57-.89.03-1.62a.77.65-24.4 0 0-.79-.22q-.82.24-1.29-.41" vector-effect="non-scaling-stroke"/><path stroke="#87173c" d="M120.04 182.25q1.95-.24 3.7.52 1.51.66.54-.78-3.69-5.47-8.78-9.7" vector-effect="non-scaling-stroke"/><path stroke="#f5253d" d="M115.5 172.29q1.25-.1 1.54-1.29" vector-effect="non-scaling-stroke"/><path stroke="#87173c" d="m117.04 171 3.92 3.53q1.01.91.69-.34-3.31-13.13.04-26.53" vector-effect="non-scaling-stroke"/><path stroke="#85851e" d="M85.26 114.98q-8.63-.39-16.01-3.77" vector-effect="non-scaling-stroke"/><path stroke="#667c23" d="m11.46 121.25-1.67-2.34a.29.29 40.1 0 0-.5.04l-1.08 2.3" vector-effect="non-scaling-stroke"/><path stroke="#85851e" d="M42.04 112.5c-1.32 8.71 1.12 16.51 4.22 24.59a.32.31 81.5 0 1-.31.43q-20.74-1.83-33.2-18.31" vector-effect="non-scaling-stroke"/><path stroke="#667c23" d="m12.75 119.21-1.78-3.12" vector-effect="non-scaling-stroke"/><path stroke="#85851e" d="M67.71 112.75q4.43 2.19 9.27 3.45.53.13.02.27-17.44 4.6-27.75 19.29-.61.86-1.05-.09-5.11-11.06-4.49-22.67" vector-effect="non-scaling-stroke"/><path stroke="#f5ad19" d="M84.46 160.25q.52 1.27-.21 2.21" vector-effect="non-scaling-stroke"/><path stroke="#88731b" d="M84.25 162.46q-21.2 2.41-33.24 19.82-.25.36.18.33 14.75-1.24 26.06-10.65" vector-effect="non-scaling-stroke"/><path stroke="#f5ad19" d="M77.25 171.96q1.45.06 1.75 1.33" vector-effect="non-scaling-stroke"/><path stroke="#88731b" d="M79 173.29q-11.84 10.42-27.7 11.57-.88.06-.37.77 4.89 6.82 11.82 11.91" vector-effect="non-scaling-stroke"/><path stroke="#f5ad19" d="M62.75 197.54q.08 1.21-1 1.75" vector-effect="non-scaling-stroke"/><path stroke="#88731b" d="M61.75 199.29q-7.43-4.84-12.33-12.33-.66-1.03-1.19.08-10.2 21.31 1.94 41.01" vector-effect="non-scaling-stroke"/><path stroke="#f5ad19" d="M50.17 228.05q1.38 1.94-.92 2.99" vector-effect="non-scaling-stroke"/><path stroke="#88731b" d="M20.79 217.75q11.21 9.02 25.64 9.89a.22.2 77 0 0 .18-.32q-9.94-20.76-.13-41.55a.72.53-62.5 0 0-.13-.84q-.75-.46-1.91-.16M70 158.71l6.76 2.54q.52.2.01.34-17.26 4.63-27.43 19.24a.67.61-59.3 0 1-.8.25q-.65-.33-.75-1.08m-1.79.79q1.52 2.6-1.25 1.75" vector-effect="non-scaling-stroke"/><path stroke="#87551a" d="m85.04 159.5-.58.75" vector-effect="non-scaling-stroke"/><path stroke="#88731b" d="M84.46 160.25q-7.21-.83-13.96-3.46" vector-effect="non-scaling-stroke"/><path stroke="#f6521c" d="M98.75 161.71q-1.18.45-1.25 1.75" vector-effect="non-scaling-stroke"/><path stroke="#88441b" d="m97.5 163.46-6.19-1.04a.5.46 7.2 0 0-.58.41c-.13 1.76 2.93 4.56 4.06 5.92" vector-effect="non-scaling-stroke"/><path stroke="#f64a1f" d="M94.79 168.75q.11 1.26-1.47 1.32" vector-effect="non-scaling-stroke"/><path stroke="#88441b" d="M93.32 170.07q-.75 1.94.39 4.18" vector-effect="non-scaling-stroke"/><path stroke="#f65b19" d="m93.71 174.25-2 1.25" vector-effect="non-scaling-stroke"/><path stroke="#88441b" d="M91.71 175.5q-.95-6.07-4.37-11.12" vector-effect="non-scaling-stroke"/><path stroke="#88291d" d="M117.04 171q-7.96-6.95-18.29-9.29" vector-effect="non-scaling-stroke"/><path stroke="#88441b" d="M98.75 161.71q.71-1.29 2.54-1.46" vector-effect="non-scaling-stroke"/><path stroke="#88321a" d="M91.71 175.5q2.52 13.89-3.28 26.7-.78 1.73-1.48.04l-1.24-2.99m-1.92.75 1.73 4.47a.48.47-19.1 0 1-.31.63q-1.45.42-2.96-.06" vector-effect="non-scaling-stroke"/><path stroke="#87551a" d="M82.25 205.04q-10.6-1.6-19.5-7.5" vector-effect="non-scaling-stroke"/><path stroke="#88321a" d="M114.25 186.79q-15.07 4.89-23.32 16.84-1.38 1.99 1.01 1.62 12.69-1.95 22.06-8.54" vector-effect="non-scaling-stroke"/><path stroke="#f52f25" d="M114 196.71q.7 1.04.25 2.25" vector-effect="non-scaling-stroke"/><path stroke="#88321a" d="M114.25 198.96q-10.59 7.6-23.7 8.4-.77.05-.33.68 4.71 6.69 11.28 11.67" vector-effect="non-scaling-stroke"/><path stroke="#f52f25" d="m101.5 219.71-1.75 1.08" vector-effect="non-scaling-stroke"/><path stroke="#88321a" d="M99.75 220.79q-6.56-4.76-11.1-11.46-.69-1.02-1.22.15-9.23 20.36.73 40.35a1.01.9 74.4 0 0 .89.57q6-.26 11.7-2.11" vector-effect="non-scaling-stroke"/><path stroke="#f52f25" d="M100.75 248.29q1.36.32 1.54 1.71" vector-effect="non-scaling-stroke"/><path stroke="#88321a" d="M102.29 250q-5.69 2.04-11.73 2.41a.3.29-17.4 0 0-.24.45q6.17 10.02 16.72 15.39" vector-effect="non-scaling-stroke"/><path stroke="#f52f25" d="m107.04 268.25-.83 1.5" vector-effect="non-scaling-stroke"/><path stroke="#f56c18" d="m78 251.21.25-1.67" vector-effect="non-scaling-stroke"/><path stroke="#88321a" d="m78.25 249.54 6.65.77q1.14.13.65-.94-7.57-16.32-3.02-34.28" vector-effect="non-scaling-stroke"/><path stroke="#f56c18" d="M82.53 215.09q-.95-1.09-1.78-1.13" vector-effect="non-scaling-stroke"/><path stroke="#88321a" d="m80.75 213.96 4.25-6.03q.37-.52-.23-.56l-2.27-.16" vector-effect="non-scaling-stroke"/><path stroke="#f56c18" d="M82.5 207.21q1.13-1.27-.25-2.17" vector-effect="non-scaling-stroke"/><path stroke="#87173c" d="M170.54 223.5q1.59 13.27-4.25 25.25m27.71-8.79q-11.06 8.84-25.25 10.08" vector-effect="non-scaling-stroke"/><path stroke="#87173c" d="M168.21 249.5q6.33-12.83 4.33-27" vector-effect="non-scaling-stroke"/><path stroke="#871927" d="M133.71 210.75q-.97 8.66-4.79 16.48-.25.52.33.48 6.75-.48 13.25-2.92m1 1.67q-6.6 2.98-12.39 3.26-2.41.11-.89 1.99 13.55 16.76 33.79 18.31 1.78.14 2.28-1.27" vector-effect="non-scaling-stroke"/><path stroke="#f41447" d="M166.29 248.75q1.08-.01 1.92.75" vector-effect="non-scaling-stroke"/><path stroke="#871927" d="m168.21 249.5.54.54" vector-effect="non-scaling-stroke"/><path stroke="#f41447" d="M168.75 250.04q-.99.78-1 1.92" vector-effect="non-scaling-stroke"/><path stroke="#871927" d="M107.04 268.25c20.6 9.55 43.74 3.92 56.6-15.1a.54.51 19.1 0 0-.42-.8q-22.8-2.22-35.72-20.83a.66.63 45.7 0 0-1.06-.04q-9.48 13.72-24.15 18.52" vector-effect="non-scaling-stroke"/><path stroke="#871927" d="M100.75 248.29q15.1-4.66 23.7-17.81.51-.78-.42-.83-13.57-.69-24.28-8.86" vector-effect="non-scaling-stroke"/><path stroke="#871927" d="M101.5 219.71q10.3 6.9 22.71 7.97 1.07.1.54-.99-7.83-16.03-3.09-33.45.14-.5-.33-.12l-7.08 5.84" vector-effect="non-scaling-stroke"/><path stroke="#882120" d="M120.04 182.25q-14.71-2.94-25.25-13.5" vector-effect="non-scaling-stroke"/><path stroke="#871927" d="M131.38 210.99q-.74 7.62-3.97 14.33-.5 1.05-.98-.01-7.18-15.91-2.22-32.81" vector-effect="non-scaling-stroke"/><path stroke="#882120" d="m120.25 185.71-6 1.08" vector-effect="non-scaling-stroke"/><path stroke="#f6381e" d="m114.25 186.79-1-1.75" vector-effect="non-scaling-stroke"/><path stroke="#882120" d="m113.25 185.04 3.46-1.08q.47-.15-.01-.26-13.67-3.2-23.38-13.63" vector-effect="non-scaling-stroke"/><path stroke="#88291d" d="M115.5 172.29q-8.1-6.23-18-8.83" vector-effect="non-scaling-stroke"/><path stroke="#871927" d="m121.96 189-7.96 7.71" vector-effect="non-scaling-stroke"/><path stroke="#87551a" d="M61.75 199.29q9.38 6.5 20.75 7.92m-1.75 6.75q-12.13 11.97-30.58 14.09" vector-effect="non-scaling-stroke"/><path stroke="#87551a" d="M82.53 215.09q-12.93 13.4-31.24 14.74-.81.06-.35.74 9.98 14.5 27.31 18.97" vector-effect="non-scaling-stroke"/><path stroke="#88321a" d="M113.25 185.04q-11.97 3.74-20.59 12.79-.34.35-.18-.12 3.85-11.51 1.23-23.46" vector-effect="non-scaling-stroke"/><path stroke="#85851e" d="M84.76 117.43c-13.7 1.01-25.61 7.98-33.49 19.35q-.56.81.47.71 21.23-2.12 33.32-19.44.47-.68-.3-.62" vector-effect="non-scaling-stroke"/><path stroke="#85851e" d="M60.08 138.78q12.8 3.88 22.13 13.35.35.36.25-.12c-2.17-10.65-2.14-15.72-.1-26.5q.12-.64-.29-.21-9.16 9.54-21.91 13.09-.71.2-.08.39" vector-effect="non-scaling-stroke"/><path stroke="#676db1" d="M135 138.5q-.06.36.18.57a.54.48-63.8 0 0 .81-.33q.21-.84-.48-.74a.62.6-88.5 0 0-.51.5" vector-effect="non-scaling-stroke"/><path stroke="#841a5d" d="M202.59 181.78c-7.85-11.41-19.92-18.49-33.81-19.43q-.74-.05-.26.63 12.23 17.53 33.73 19.58.95.09.34-.78" vector-effect="non-scaling-stroke"/></g><path fill="#343234" d="m121.56 0 8.74.06q4.58 1.07 9.19 1.93c4.45.84 14.31 6.02 18.34 10.44q.15.16.94.51 2.48 1.1 3.44 3.61a1.87.63 76.4 0 0 .58.92q1.9 1.39 2.61 3.6a1.37.25 29 0 0 .84.69q2.86 1.73 6.23 1.19a1.73.88 43.8 0 1 1.06.32q1.89 1.22 4.22.65a.9.86 66.1 0 1 .95.39q.62.94 1.79.67a1.48.56 35.6 0 1 .94.25c2.51 1.34 5.08 1.95 7.86 3.77 5.91 3.86 10.98 7.7 14.22 13.02.79 1.3 2.34 1.77 2.52 3.45a.6.46 85.9 0 0 .47.53h6a1.95 1.52-22.3 0 1 1 .28q1.66 1.13 3.75.66a1.46.43 28.7 0 1 .95.21c2.64 1.16 5.73 1.83 8.02 3q4.75 2.42 8.55 6.13c1.92 1.88 4.75 2.97 6.24 5.86.72 1.4 1.56 2.06 2.6 3.09 1.74 1.72 2.44 4.31 3.72 6.39 1.86 3.01 2.62 5.71 3.72 8.87q.78 2.22.83 3.07c.46 7.17.99 15.16-1.24 22.05q-1.34 4.15-3.12 8.16c-1.55 3.52 1.25 6.12 2.15 8.64q2.38 6.74 3.33 13.9v6.25q-1.16 2.44-1.04 5.14a1.07.39 82.6 0 1-.19.84q-1.03.83-.76 2.2a1.26.74-37.8 0 1-.37.93q-1.04 1.16-.6 2.83a1.36.34-59 0 1-.31 1.01l-2.71 5.24a1.99 1.96 36.1 0 0 .38 2.32l2.28 2.24a1.16 1.05 28.4 0 1 .33.94q-.19 1.12.54 1.95a1.38.69 38.2 0 1 .4.85q-.18 4.08 2.05 7.51v14c-2.42 8.7-5.6 16.79-11.66 23.59q-5.74 6.42-12.78 11.46c-2.76 1.98-6.06 2.49-9.31 3.38-1.13.32-2.32 1.24-4.01 1.07a1.91 1.37-49.2 0 0-1.01.24q-2.17 1.2-4.74.61a1.39.34-25.8 0 0-.95.2c-4.16 1.68-5.32 4.98-7.61 7.38q-3.87 4.08-8.3 7.52c-3.04 2.37-6.69 3.88-10.21 5.74a1.6.66-37.7 0 1-.92.25q-1.88-.22-3.4.89a1.05 1.03-55.7 0 1-.85.17q-2.09-.48-3.75.66a1.93 1.43 20.8 0 1-1 .28l-4.75-.01a1.21.89-69.3 0 0-.88.57c-7.85 12.41-18.11 20.15-32.93 22.44h-13.5c-13.66-1.78-27.23-8.87-33.57-21.21a1.11.65 72.7 0 0-.65-.59l-6.98-1.17q-5.45-.92-5.92-1.08c-10.63-3.63-20.82-10.72-26.56-20.57a.76.73-19 0 0-.75-.35c-2.31.31-4.12-.78-5.95-1.03-15.95-2.19-27.81-11.16-35.14-25.33-.84-1.62-1.26-3.9-2.48-5.72a1.21.18 55 0 1-.47-.94q.32-1.6-.92-2.57a1.03.34-76.9 0 1-.08-.9q.56-3.04-.97-5.6v-11.25c1.86-1.52.4-3.73 1.6-5.71q.27-.45.28-.9c.08-2.6 1.48-4.43 2.18-6.81q.48-1.64 1.47-3.13a1.04.58-49.2 0 0 .18-.87l-3.33-6.62a1.02.01 63.4 0 1-.44-.91q.49-1.87-.72-3.18a1.19.94-63.6 0 1-.21-.99q.54-2.42-1.01-4.13v-11.75q1.61-2.33.99-5.25a1.19 1.07-32.7 0 1 .26-.96q1.08-1.27.71-2.97a1.45.68-48.7 0 1 .27-.92c1.68-2.77 1.87-5.33 3.41-7.53a.83.75-42.2 0 0 .08-.82l-3.44-6.73a2.04.96 49.7 0 1-.27-1.01q.1-1.21-.83-1.94a.86.58-71.2 0 1-.21-.77q.58-3.16-.97-5.85V88.69c1.62-1.29.87-4.85 1.27-6.79q.21-1 1.39-4.31c6.35-17.8 22.87-32.16 42.51-31.65a1.28 1.17 23 0 0 .88-.31c2.11-1.91 3.43-4.46 5.19-6.24q3.05-3.08 6.14-6.12a1.37.6 7 0 1 .87-.26l.25-.01a.43.29 11.4 0 0 .27-.11q3.65-4.48 8.72-5.88 2.35-.65 3.71-1.66a1.07.23-38.5 0 1 .81-.4q1.44.41 2.3-.62a1.04.75-58.5 0 1 .93-.39q1.77.48 3.1-.57a1.73 1.13-55.2 0 1 .91-.37h6a1.24.89-61.8 0 0 .79-.39c1.78-1.89 7.86-11.75 10.07-11.65a1.09.66 12.9 0 0 .79-.26c2.1-2.46 5.55-3.03 7.22-5.16a1.19 1.12-72.8 0 1 .79-.45c2.31-.23 3.87-1.64 5.94-2.17q2.54-.66 4.93-1.81a1.49 1.34 35.8 0 1 .93-.1q2.72.59 4.85-1.01Zm-34.9 25.88q-16.71 0-28.45 10.62-5.19 4.35-6.87 7.12-1.61 2.67-3.17 3.94a1.63 1.29 19.3 0 1-.89.31q-11.78.35-21.82 6.38-18.75 11.27-22.17 33-1.8 15.5 5.15 29.34-1.76 2.46-2.15 4.66-7.97 19.95 1.59 39.05a1.27 1.21 40.7 0 1 .09.92c-1.14 3.92-3.19 7.77-3.96 11.35q-5.99 27.7 15.24 46.47 11.88 9.98 27.41 10.5c1.26.04 1.91.55 2.59 1.5Q59.52 246.9 78 251.21q4.29 1.07 8.14.88a2 1.99 72.7 0 1 1.8.95q6.75 10.97 18.27 16.71c21.19 11.36 46.55 3.25 59.47-16.3q.96-1.46 2.07-1.49 15.78-.55 27.75-10.67c4.66-3.72 6.87-7.32 10.2-11.46a1.12 1.08 17.5 0 1 .82-.41q12.76-.62 23.48-7.38c20.13-13.52 26.96-38.27 15.73-59.89a1.7 1.68-47.2 0 1-.05-1.45c5.85-13.42 7.68-25.4 1.53-39.2l-2.11-5.31a1.09.97 51 0 1 .04-.89q6.91-12.78 5.34-27.36c-3.77-23.55-21.61-39.34-45.42-40.18a.42.4-84.4 0 1-.38-.49q.23-1.4-1.18-1.81c-7.82-11.94-21.65-19.72-36.25-20.06a1.46 1.42-15.8 0 1-1.16-.63Q158.08 12.91 146 7.29q-8.44-4.05-15.5-4.3-28.17-1-43.84 22.89Z"/><path fill="#19beeb" d="m146 7.29-.54 1.46c-20.4-8.86-42.76-2.36-55.12 15.6a.51.51 19.9 0 0 .37.79q23.05 2.1 36.04 21.4 2.27.83 2.17 3.08 7.76 16.93 3.05 35.1-.12.48.21.13 11.44-12.01 28.07-14.14l.25 1.75q-19.17 3.3-30.71 18.79l-2.29-1.04q8.21-18.98-.07-37.93-.53-1.21-1.1-.01c-3.8 8.06-3.91 14.73-4.12 23.73l-1.92.25q-1.57-13.74 4.71-26.03.36-.71-.43-.64-9.3.76-17.78 4.92l-.79-1.96q8.44-4.51 16.67-4.85 2.3-.1.89-1.91Q109.45 27.7 88.07 27.7q-1.21.99-2.07-.16l-.96-.29q-.59-1.85 1.62-1.37Q102.33 1.99 130.5 2.99q7.06.25 15.5 4.3Z"/><path fill="#1a1b1c" d="M145.46 8.75q10.69 5.31 17.69 14.91a1.3.89 39.9 0 1 .25.9q-.22 1.01-1.65.73c-16.24 1.68-25.25 9.13-35 21.25q-12.99-19.3-36.04-21.4a.51.51 19.9 0 1-.37-.79C102.7 6.39 125.06-.11 145.46 8.75Z"/><path fill="#3372d3" d="M146 7.29q12.08 5.62 20.09 17.48a1.46 1.42-15.8 0 0 1.16.63c14.6.34 28.43 8.12 36.25 20.06l-1.04 1.04q-11.24-16.53-33.23-19.36-1.65-.21-.89 1.27 6.79 13.18 3.94 28.84c-.16.89-2.68 7.56 1.47 2.71q1.27.02 1.29 1.29-3.75 3.74-6.47 8.26a.32.32 18.9 0 0 .24.48q10.9 1.23 20.44 6.55L187.96 78q-8.99-4.76-19.18-5.68a.35.35-5.2 0 0-.37.44q.4 1.49 1.59 4.67 4.31 11.59 2.33 24.36c-.13.83-3.39 8.73 1.42 3.17l.75 2.33-5.45 6.57a.57.51-49.6 0 0 .02.76q.45.4 1.14.38-1.15 1.08-.71 2.46l-.46.04q-2.29-.13-2.58 2.25l-.46-.04q1.42-2.22.04-4.21l-1.04-1.29q.45-1.77-1.16-1.77-1.83 0-.58-1.22 1.13-1.11.53-2.72l1.41 3.68q.7 1.84 1.51.04 8.39-18.69.01-37.41a1.17.65 73.3 0 0-.71-.69q-.41-.06-.72.38-.58-1.08-2-.8.38-2.04-2.79-1.24l-.25-1.75 3.25-.62a.33.33-21.9 0 0 .22-.51L162 67.04l1.79-.79 1.58 1.85a.75.65 38.5 0 0 1.18-.05q9.34-20.58-1.12-40.51a.84.71 70.9 0 0-.76-.45l-3.42.37q.77-.94.5-2.17 1.43.28 1.65-.73a1.3.89 39.9 0 0-.25-.9q-7-9.6-17.69-14.91l.54-1.46Z"/><path fill="#289ee4" d="M161.75 25.29q.27 1.23-.5 2.17-20.44 2.62-31.92 19.43a.44.44 19.3 0 0 .33.68q21.4 1.73 34.13 18.68l-1.79.79q-12.31-15.78-33.08-17.42.1-2.25-2.17-3.08c9.75-12.12 18.76-19.57 35-21.25Z"/><path fill="#1ac5c3" d="M86.66 25.88q-2.21-.48-1.62 1.37-14.88 1.27-26.29 10.79l-.54-1.54q11.74-10.62 28.45-10.62Z"/><path fill="#1a1b1c" d="M163.79 66.25q-12.73-16.95-34.13-18.68a.44.44 19.3 0 1-.33-.68q11.48-16.81 31.92-19.43l3.42-.37a.84.71 70.9 0 1 .76.45q10.46 19.93 1.12 40.51a.75.65 38.5 0 1-1.18.05l-1.58-1.85Z"/><path fill="#1a1b1c" d="m202.46 46.5.04 1.29q-16.69.76-28.75 12.17c-4.15 4.85-1.63-1.82-1.47-2.71q2.85-15.66-3.94-28.84-.76-1.48.89-1.27 21.99 2.83 33.23 19.36ZM85.04 27.25l.96.29q-8.03 16.01-3.5 33.5l.16.94q.12.68-.46.09-12.49-13.02-30.51-14.5a.65.58-69.2 0 1-.38-.99q3.18-4.74 7.44-8.54 11.41-9.52 26.29-10.79Z"/><path fill="#1a1b1c" d="M106 52.54q-10.92 5.59-17.91 16.02-2.75-4-3.8-8.81-3.81-16.3 3.78-32.05 21.38 0 35.49 18.08 1.41 1.81-.89 1.91-8.23.34-16.67 4.85Z"/><path fill="#1ac5c3" d="M86 27.54q.86 1.15 2.07.16-7.59 15.75-3.78 32.05l-1.79 1.29q-4.53-17.49 3.5-33.5Z"/><path fill="#21c38c" d="m58.21 36.5.54 1.54q-4.26 3.8-7.44 8.54a.65.58-69.2 0 0 .38.99q18.02 1.48 30.51 14.5.58.59.46-.09l-.16-.94 1.79-1.29q1.05 4.81 3.8 8.81.5 1.03 1.88.95 3.13 1.36 6.78 1.78v1.92l-5.42-.8q-1.84-.27-.74 1.23 9.41 12.88 24.66 17.57-1.1.56-1 1.75-12.01-3.41-20.62-12.42a.4.35 36.5 0 0-.62.05c-.14.35 1.25 7.14 1.28 8.41q-.44 1.15-1.75 1-1.26-8.29-4.59-15.94-.34-.79-.62 0l-3.58 10.23-1.71-.79q1.12-5.46 3.39-10.33.5-1.06-.67-.93-8.05.93-15.51 4.05l-.5-2q7.82-3.49 16.47-4.1.55-.03.28-.43-12.72-18.41-35.25-20.01a1.49 1.47-74.9 0 0-1.45.84q-3.35 7-4.84 14.66L42.04 65q1.02-7.45 4.3-14.34a.36.36-74.8 0 0-.29-.51c-6.08-.64-13.92 2.5-19.05 5.14l-1.54-1.04q10.04-6.03 21.82-6.38a1.63 1.29 19.3 0 0 .89-.31q1.56-1.27 3.17-3.94 1.68-2.77 6.87-7.12Z"/><path fill="#694ec4" d="M203.5 45.46q1.41.41 1.18 1.81a.42.4-84.4 0 0 .38.49c23.81.84 41.65 16.63 45.42 40.18l-1.69.31c-2.62-21.7-19.79-36.96-41.13-38.73a.41.41-9.4 0 0-.41.57q9.5 21.36.11 41.71c-.18.39-.13.6.14.91l-1.4.95a.57.54 52.1 0 1-.72-.11q-1.22-1.36-1.67.7l-.87.89q-16.52.82-28.34 12.15l-.75-2.33c7.99-7.72 17.57-11.07 28.59-12.44a.32.31-19.7 0 0 .23-.48q-5.69-8.71-14.61-14.04l1.29-1.46q9.49 5.58 15.5 14.75.29.44.51-.03 9.71-20.46-.18-40.84a1.61 1.07 79.8 0 0-.7-.73q-.98-.4-2.13-.23-.49-.89.25-1.67l-.04-1.29 1.04-1.04Z"/><path fill="#2f56b7" d="M202.5 47.79q-.74.78-.25 1.67-15.38 1.87-27.21 11.79-.02-1.27-1.29-1.29 12.06-11.41 28.75-12.17Z"/><path fill="#1a1b1c" d="M120.29 76.25q.36 4.4 1.88 8.52a.43.26 65.9 0 1-.05.43c-.07.05-.65-.15-.68-.18q-10.01-11.05-24.69-13.73-3.65-.42-6.78-1.78 6.71-9.77 16.82-15.01 8.48-4.16 17.78-4.92.79-.07.43.64-6.28 12.29-4.71 26.03Zm8.63-26.63q20.77 1.64 33.08 17.42l1.72 2.54a.33.33-21.9 0 1-.22.51l-3.25.62q-16.63 2.13-28.07 14.14-.33.35-.21-.13 4.71-18.17-3.05-35.1Zm73.33-.16q1.15-.17 2.13.23a1.61 1.07 79.8 0 1 .7.73q9.89 20.38.18 40.84-.22.47-.51.03-6.01-9.17-15.5-14.75-9.54-5.32-20.44-6.55a.32.32 18.1 0 1-.24-.48q2.72-4.52 6.47-8.26 11.83-9.92 27.21-11.79Z"/><path fill="#1a1b1c" d="M248.79 88.25c.96 7.49.02 18.23-4.57 24.99a.35.34-45.2 0 1-.57.01q-5.41-7.68-13.11-12.75-10.28-7.41-23.04-7.79c-.27-.31-.32-.52-.14-.91q9.39-20.35-.11-41.71a.41.41-9.4 0 1 .41-.57c21.34 1.77 38.51 17.03 41.13 38.73ZM68.75 74.29q-12.34 5.87-20 17.17l-.54-.46q-5.5-12.29-4.25-25.75 1.49-7.66 4.84-14.66a1.49 1.47-74.9 0 1 1.45-.84q22.53 1.6 35.25 20.01.27.4-.28.43-8.65.61-16.47 4.1Z"/><path fill="#1a1b1c" d="M42.04 65q-2 14 4.42 26.5c.18.68-.1 1-.77 1.06q-22.84 2.17-35.86 20.89a.29.29-41.3 0 1-.5-.03Q3.38 101.27 4.96 88 8.39 66.43 27 55.29c5.13-2.64 12.97-5.78 19.05-5.14a.36.36-74.8 0 1 .29.51q-3.28 6.89-4.3 14.34Zm85.46 25.21c-2 1.75-5.09-13.01-5.29-14.21.21-9 .32-15.67 4.12-23.73q.57-1.2 1.1.01 8.28 18.95.07 37.93Z"/><path fill="#1ac5c3" d="m106 52.54.79 1.96q-10.11 5.24-16.82 15.01-1.38.08-1.88-.95Q95.08 58.13 106 52.54Z"/><path fill="#1ab346" d="M25.46 54.25 27 55.29Q8.39 66.43 4.96 88q-.48-1.03-1.67-.75 3.42-21.73 22.17-33Z"/><path fill="#20c753" d="m42.04 65 1.92.25Q42.71 78.71 48.21 91l-1.75.5Q40.04 79 42.04 65Z"/><path fill="#22c7cd" d="M96.75 71.29q14.68 2.68 24.69 13.73c.03.03.61.23.68.18a.43.26 65.9 0 0 .05-.43q-1.52-4.12-1.88-8.52l1.92-.25c.2 1.2 3.29 15.96 5.29 14.21l2.29 1.04q-.68.63-.38 1.14a.9.58-15.2 0 0 .84.27l7.21-1.16q1.34.33 1.2 2.02l12.38 5.98-1.54 1.29q-9.05-5.19-19.44-5.7-.5-.03-.23.4 5.14 8.19 13.46 13.26-.58 1.15-1.79 1.29-5.34-3.38-9.69-8.09-.4-.43-.25.03 4.5 14.09.13 28.22-.17.55.25.18l1.31-1.17 1.75.83-4.5 5.25q-3.08-.04-1.29 2.21l.04.21-1.25.75-.5-1-.54-1.46q9.29-19.29.36-38.83-.55-1.22-1.06.02l-1.51 3.6q-1.14.34-1.8-.38-.49-.53-.27.15.76 2.31-.93 1.94l-1.75-1.29 4.15-5.32q.88-1.13-.58-1.02l-4.57.34q-1.47-1.71-3.09-1.52l-1.66-.73q-.1-1.19 1-1.75l8.76 1.54q1 .17.42-.67-10.2-14.7-27.68-18.87v-1.92Z"/><path fill="#1a1b1c" d="M82.04 83.5q-1.84 7.16-1 14.5l1.47 9.04q.1.57-.26.2-12.57-13.25-30.99-14.58a.32.31 18.6 0 1-.25-.49l.45-.67q6.84-9.98 17.79-15.21 7.46-3.12 15.51-4.05 1.17-.13.67.93-2.27 4.87-3.39 10.33Zm14.71-10.29q17.48 4.17 27.68 18.87.58.84-.42.67l-8.76-1.54Q100 86.52 90.59 73.64q-1.1-1.5.74-1.23l5.42.8ZM187.96 78q8.92 5.33 14.61 14.04a.32.31-19.7 0 1-.23.48c-11.02 1.37-20.6 4.72-28.59 12.44-4.81 5.56-1.55-2.34-1.42-3.17q1.98-12.77-2.33-24.36-1.19-3.18-1.59-4.67a.35.35-5.2 0 1 .37-.44q10.19.92 19.18 5.68Zm-27.46-5.54q3.17-.8 2.79 1.24-9.85 13.35-25.83 17.8l-7.21 1.16a.9.58-15.2 0 1-.84-.27q-.3-.51.38-1.14 11.54-15.49 30.71-18.79Z"/><path fill="#1a1b1c" d="M92.54 90q.29 7.09-1.25 14l-3.07 8.71q-.46 1.29-1.04.01-3.27-7.14-4.22-15.22-.52-6.66.79-13.21l3.58-10.23q.28-.79.62 0 3.33 7.65 4.59 15.94Z"/><path fill="#2a8fe1" d="M163.29 73.7q1.42-.28 2 .8-7.37 16.7-1.5 34 .6 1.61-.53 2.72-1.25 1.22.58 1.22 1.61 0 1.16 1.77l-1.21.54q-5.68-8.47-14.29-13.96l1.54-1.29 9.41 7.23q.61.46.4-.26-3.76-13.21.17-26.42.14-.49-.24-.08-8.91 9.73-22.12 13.55.14-1.69-1.2-2.02 15.98-4.45 25.83-17.8Z"/><path fill="#1a1b1c" d="M163.79 108.5q-5.87-17.3 1.5-34 .31-.44.72-.38a1.17.65 73.3 0 1 .71.69q8.38 18.72-.01 37.41-.81 1.8-1.51-.04l-1.41-3.68Z"/><path fill="#20c753" d="m68.75 74.29.5 2Q58.3 81.52 51.46 91.5q-1.42.9-2.71-.04 7.66-11.3 20-17.17Z"/><path fill="#1a1b1c" d="m151.04 99.5-12.38-5.98q13.21-3.82 22.12-13.55.38-.41.24.08-3.93 13.21-.17 26.42.21.72-.4.26l-9.41-7.23Zm-36.79-6.54 1.66.73q-11.31 3.28-20.16 11.02l-2.56 2.39q-.48.45-.34-.17l.44-1.93q2.13-7.9 1-16c-.03-1.27-1.42-8.06-1.28-8.41a.4.35 36.5 0 1 .62-.05q8.61 9.01 20.62 12.42Z"/><path fill="#20c753" d="m82.04 83.5 1.71.79q-1.31 6.55-.79 13.21l-1.92.5q-.84-7.34 1-14.5Z"/><path fill="#6fd83e" d="M3.29 87.25q1.19-.28 1.67.75-1.58 13.27 4.37 25.42a.29.29-41.3 0 0 .5.03q13.02-18.72 35.86-20.89c.67-.06.95-.38.77-1.06l1.75-.5.54.46q1.29.94 2.71.04l-.45.67a.32.31 18.6 0 0 .25.49q18.42 1.33 30.99 14.58.36.37.26-.2L81.04 98l1.92-.5q.95 8.08 4.22 15.22.58 1.28 1.04-.01l3.07-8.71q1.33-.06 2 1l-.44 1.93q-.14.62.34.17l2.56-2.39q2 .15.54 2.04-3.66 3.69-6.08 8.25l-2.25-.81a.47.46-70.2 0 0-.6.29q-.65 1.92-2.1.5-11.93-17.95-33.69-20.13-.99-.1-.43.73 6.87 10.21 18.11 15.63-1.21.31-1.54 1.54-11.37-5.54-18.41-16.16a.52.52-48.1 0 0-.9.05q-4.04 7.87-4.69 16.36-.6-1.56-1.67-.5.41-8.56 3.8-15.43 1.24-2.51-1.53-2.13-21.77 2.97-33.34 21.15l-2.53.5q-6.95-13.84-5.15-29.34Z"/><path fill="#b631ab" d="M250.48 87.94q1.57 14.58-5.34 27.36a1.09.97 51 0 0-.04.89l2.11 5.31-1.17.75-1.68-3.52q-.24-.49-.47-.13-9.98 14.98-27.38 19.67a.38.36-6.5 0 0-.29.34c-.01.12 5.14 1.79 5.78 2.1l-.79 1.79-8.17-2.22a1.18.1 14.9 0 1-.99-.35q-.51-.74-1.22-.08a1.31.91 25.4 0 1-1.09.18l-2.23-.57q-.64-.17-.37.56l2.15 5.73-1.75 1.25q-.72-2.89-2.43-5.28a.39.35-42.8 0 0-.59.01l-6.73 7.77q-.58-1.09-1.79-1.04 3.87-3.57 6.71-8.03.54-.84-.46-.76-16.51 1.34-28.46 13.08l-1.79-.79q8.71-9.54 21.31-12.94 1.73-.47-.01-.91-8.3-2.09-15.34-7.36.52-1.18 1.79-1.29 10.26 7.13 22.69 7.95.57.03.22-.39l-6.16-7.48 1.54-1.04q3.35 2.83 5.66 6.56 1.16 1.88 2.13-.1 3.71-7.65 4.21-16.96.82-.8 1.92-1 .04 10.4-4.68 19.82a.32.3-76 0 0 .26.46c13.59-.11 27.54-8.59 34.69-20.21a2.11 2.1 44.1 0 0-.04-2.26q-5.09-7.65-12.73-12.81 1.05-.45 1.08-1.5 7.7 5.07 13.11 12.75a.35.34-45.2 0 0 .57-.01c4.59-6.76 5.53-17.5 4.57-24.99l1.69-.31Z"/><path fill="#20c753" d="M94.29 89q1.13 8.1-1 16-.67-1.06-2-1 1.54-6.91 1.25-14 1.31.15 1.75-1Z"/><path fill="#a04dd3" d="M207.5 92.71q12.76.38 23.04 7.79-.03 1.05-1.08 1.5-8.7-5.53-17.46-6.53c-1.37-.15-5.51-1.62-4.47.72q4.59 10.31 4.43 20.81-1.1.2-1.92 1 .4-11.57-5.04-21.71.63-1.5-1.29-2.04.45-2.06 1.67-.7a.57.54 52.1 0 0 .72.11l1.4-.95Z"/><path fill="#1ecb85" d="M115.91 93.69q1.62-.19 3.09 1.52-12.89 2.8-22.71 11.54 1.46-1.89-.54-2.04 8.85-7.74 20.16-11.02Z"/><path fill="#8551d4" d="M203.71 94.25q1.92.54 1.29 2.04c-7.18 9.47-15.96 16.44-27.38 19.57a.86.45-10.3 0 0-.62.48q-.05.31.48.44 12.18 3.06 20.56 11.72l-1.54 1.04q-11.51-10.37-27-12.08-.44-1.38.71-2.46 20.81-2.58 32.63-19.86l.87-.89Z"/><path fill="#1a1b1c" d="M85.26 114.98q-8.63-.39-16.01-3.77-11.24-5.42-18.11-15.63-.56-.83.43-.73 21.76 2.18 33.69 20.13ZM120 101.21q-6.1 6.3-14.04 10.04-6.87 2.86-14.25 4l-1.5-.25q2.42-4.56 6.08-8.25 9.82-8.74 22.71-11.54l4.57-.34q1.46-.11.58 1.02l-4.15 5.32Zm82.84-6.07q-11.82 17.28-32.63 19.86-.69.02-1.14-.38a.57.51-49.6 0 1-.02-.76l5.45-6.57q11.82-11.33 28.34-12.15Zm26.62 6.86q7.64 5.16 12.73 12.81a2.11 2.1 44.1 0 1 .04 2.26c-7.15 11.62-21.1 20.1-34.69 20.21a.32.3-76 0 1-.26-.46q4.72-9.42 4.68-19.82.16-10.5-4.43-20.81c-1.04-2.34 3.1-.87 4.47-.72q8.76 1 17.46 6.53ZM42.04 112.5c-1.32 8.71 1.12 16.51 4.22 24.59a.32.31 81.5 0 1-.31.43q-20.74-1.83-33.2-18.31l-1.78-3.12q11.57-18.18 33.34-21.15 2.77-.38 1.53 2.13-3.39 6.87-3.8 15.43Zm107.46-11.71q8.61 5.49 14.29 13.96-11.07-.2-20.5-6-8.32-5.07-13.46-13.26-.27-.43.23-.4 10.39.51 19.44 5.7Z"/><path fill="#1a1b1c" d="M67.71 112.75q4.43 2.19 9.27 3.45.53.13.02.27-17.44 4.6-27.75 19.29-.61.86-1.05-.09-5.11-11.06-4.49-22.67.65-8.49 4.69-16.36a.52.52-48.1 0 1 .9-.05q7.04 10.62 18.41 16.16ZM205 96.29q5.44 10.14 5.04 21.71-.5 9.31-4.21 16.96-.97 1.98-2.13.1-2.31-3.73-5.66-6.56-8.38-8.66-20.56-11.72-.53-.13-.48-.44a.86.45-10.3 0 1 .62-.48c11.42-3.13 20.2-10.1 27.38-19.57ZM126.96 136l-1.92-3.28-2.08-6.97q-2.49-12.75 1.79-24.96l1.51-3.6q.51-1.24 1.06-.02 8.93 19.54-.36 38.83Z"/><path fill="#1ecb85" d="M124.75 100.79q-4.28 12.21-1.79 24.96-.71-1.45-2.17-.75-1.65-11.35.96-22.5 1.69.37.93-1.94-.22-.68.27-.15.66.72 1.8.38Z"/><path fill="#22cc6f" d="m120 101.21 1.75 1.29q-6.86 6.95-15.75 10.96.32-1.09-.04-2.21 7.94-3.74 14.04-10.04Z"/><path fill="#1a1b1c" d="M141.5 110.04q6.61 3.95 14.02 6.07.47.14-.01.26-13.01 3.21-22.26 12.84l-1.31 1.17q-.42.37-.25-.18 4.37-14.13-.13-28.22-.15-.46.25-.03 4.35 4.71 9.69 8.09Zm-19.75-7.54q-2.61 11.15-.96 22.5l.75 5.5q-9.06-10.59-22.57-13.79-1.23-.29 0-.73l7.03-2.52q8.89-4.01 15.75-10.96Z"/><path fill="#289ee4" d="M143.29 108.75q9.43 5.8 20.5 6l1.21-.54 1.04 1.29q-1.16 2.18-3.79 1.96-15.77 1.73-27.25 12.58l-1.75-.83q9.25-9.63 22.26-12.84.48-.12.01-.26-7.41-2.12-14.02-6.07 1.21-.14 1.79-1.29Z"/><path fill="#f0ef1f" d="M69.25 111.21q7.38 3.38 16.01 3.77 1.45 1.42 2.1-.5a.47.46-70.2 0 1 .6-.29l2.25.81 1.5.25q.07.86-.52 2.19-1.53.1-.34 1.68 11.51 15.22 30.73 18.27-1.26 2.99-5.08 1.32-13.53-3.64-23.34-13.54-.34-.35-.23.12 2.13 8.47 1.78 17.21-1.08.87-2.42.75 1.23-12.64-4.56-23.81-.23-.45-.44.02-8.86 19.31 0 38.79-.64 1.44-2.25 1.25-12.09-17.51-33.37-19.49-1.01-.09-.44.74 7.35 10.76 19.27 16.04.24 1.02-.5 1.92-12.64-5.11-20.59-16.73-.7-1.01-1.23.1-8.85 18.47-.39 37.92l-1.79.79q-9.15-20.17.51-40.09.47-.98-.5-.89-22.18 2.08-34.59 20.39a1.89 1.76 45.9 0 0 .04 2.03q11.92 17.8 33.29 20.31l-.31 2.23q-21.93-2.57-34.58-20.63a.3.3 40.4 0 0-.51.04c-9.37 18.53-4.32 40.4 11.44 53.57q.03 1.37-1.54 1.29-21.23-18.77-15.24-46.47c.77-3.58 2.82-7.43 3.96-11.35a1.27 1.21 40.7 0 0-.09-.92q-9.56-19.1-1.59-39.05 1.07-.94 1.92 0-7.69 18.86 1.02 37.11.33.69.73.1 9.92-14.69 27.05-19.44.8-.22.01-.45-15.67-4.56-25.56-17.32-.13-1.63 1.29-2.04 12.46 16.48 33.2 18.31a.32.31 81.5 0 0 .31-.43c-3.1-8.08-5.54-15.88-4.22-24.59q1.07-1.06 1.67.5-.62 11.61 4.49 22.67.44.95 1.05.09Q59.56 121.07 77 116.47q.51-.14-.02-.27-4.84-1.26-9.27-3.45.33-1.23 1.54-1.54Zm15.51 6.22c-13.7 1.01-25.61 7.98-33.49 19.35q-.56.81.47.71 21.23-2.12 33.32-19.44.47-.68-.3-.62Zm-24.68 21.35q12.8 3.88 22.13 13.35.35.36.25-.12c-2.17-10.65-2.14-15.72-.1-26.5q.12-.64-.29-.21-9.16 9.54-21.91 13.09-.71.2-.08.39Z"/><path fill="#9ddc33" d="M105.96 111.25q.36 1.12.04 2.21l-7.03 2.52q-1.23.44 0 .73 13.51 3.2 22.57 13.79 1.14 2.19 3.5 2.22l1.92 3.28.54 1.46q-.89.43-1.44-.07a.64.62 51.5 0 0-.71-.09q-.28.15-.6.16-12.21-17.49-33.56-20.02.59-1.33.52-2.19 7.38-1.14 14.25-4Z"/><path fill="#634dbb" d="M166.04 115.5q1.38 1.99-.04 4.21l-1.5 2.33q-1.18-.16-1.93.57a1.89 1.36-66.2 0 1-.82.48q-2.22.51-1.19 2.34c-5.95 5.55-13.13 10.37-21.04 12.41q-3.21.82-.01 1.68 8.55 2.3 15.95 7.87-1.56 1.45.29 3.07-10.82-9.69-26.22-10.34 1.64-2.4-1.74-1.37l.21-.29 1.25-.75q21.44-1.93 33.71-19.2c.52-.74.29-1.29-.71-1.05q2.63.22 3.79-1.96Zm-31.04 23q-.06.36.18.57a.54.48-63.8 0 0 .81-.33q.21-.84-.48-.74a.62.6-88.5 0 0-.51.5Z"/><path fill="#b2dd29" d="m10.97 116.09 1.78 3.12q-1.42.41-1.29 2.04l-1.67-2.34a.29.29 40.1 0 0-.5.04l-1.08 2.3q-.85-.94-1.92 0 .39-2.2 2.15-4.66l2.53-.5Z"/><path fill="#1a1b1c" d="M51.27 136.78c7.88-11.37 19.79-18.34 33.49-19.35q.77-.06.3.62-12.09 17.32-33.32 19.44-1.03.1-.47-.71Zm39.92-19.34q21.35 2.53 33.56 20.02l-3.17-.07q-19.22-3.05-30.73-18.27-1.19-1.58.34-1.68Z"/><path fill="#694ec4" d="M169.04 117.5q.47 2.31 2.25 4-.74.68-1.77.59-.5-.04-.27.36.81 1.46 2.27 2.45l-.52.14q-1.65-1.16-2.04.96l-2.5-6.25q.29-2.38 2.58-2.25Z"/><path fill="#1a1b1c" d="M162.25 117.46c1-.24 1.23.31.71 1.05q-12.27 17.27-33.71 19.2l-.04-.21 1.29-2.21 4.5-5.25q11.48-10.85 27.25-12.58Zm6.79.04.46-.04q15.49 1.71 27 12.08l6.16 7.48q.35.42-.22.39-12.43-.82-22.69-7.95-4.64-3.55-8.46-7.96-1.78-1.69-2.25-4Zm77 4.75q6.9 18.48-1.57 36.05a.29.29-49.3 0 1-.5.04q-8.29-12.15-21.97-17.63c-.64-.31-5.79-1.98-5.78-2.1a.38.36-6.5 0 1 .29-.34q17.4-4.69 27.38-19.67.23-.36.47.13l1.68 3.52Zm-234.58-1q9.89 12.76 25.56 17.32.79.23-.01.45-17.13 4.75-27.05 19.44-.4.59-.73-.1-8.71-18.25-1.02-37.11l1.08-2.3a.29.29 40.1 0 1 .5-.04l1.67 2.34Zm80.83 22q-1.02 7.23-3.75 14l-1.25 1q-8.86-19.48 0-38.79.21-.47.44-.02 5.79 11.17 4.56 23.81ZM166 119.71l.46.04 2.5 6.25q3.79 13.58-.42 27l-2.24 5.01q-.22.47-.47 0-2.87-5.32-4.12-11.26-1.73-12.73 2.79-24.71l1.5-2.33Z"/><path fill="#a04dd3" d="M171.29 121.5q3.82 4.41 8.46 7.96-1.27.11-1.79 1.29-3.7-2.35-6.44-5.85-1.46-.99-2.27-2.45-.23-.4.27-.36 1.03.09 1.77-.59Z"/><path fill="#ed189e" d="M247.21 121.5c6.15 13.8 4.32 25.78-1.53 39.2a1.7 1.68-47.2 0 0 .05 1.45c11.23 21.62 4.4 46.37-15.73 59.89q-1.45.13-1-1.5c18.54-12.39 25.93-36.22 15.5-56.45a.4.28 52.7 0 0-.56-.18q-12.81 18.78-35.69 20.98a.86.85-15.7 0 0-.7 1.22q6.7 13.53 3.66 28.89l-1.75-1.75q2.04-13.78-3.94-26.32-.47-1-1.08-.08-6.36 9.63-16.69 15.11.12-.93.79-1.29.35-.19-.03-.27l-1.76-.36q9.78-5.32 15.82-14.34a.55.54 19.1 0 0-.42-.84q-17.75-1.45-30.18-14.07-1.22-1.23-.74.45 3.55 12.41.02 24.8l-2.21.21q4.57-15.94-2.4-31.27-.71-1.56-1.27.01l-3.16 9.01q-1.46.02-1.75-1.25.41-1.12.34-2.25-.03-.52-.39-.15-8.57 8.86-20.41 12.44-.72-.82-.75-2 14.17-4.41 23.71-17.06 1.15-1.53-.76-1.3-16.02 1.96-26.7 12.36l-2.25-1.33q9.07-8.81 20.75-11.99 1.26-.34 0-.68-12.66-3.42-21.47-13.07-.32-.35-.52-.28a.58.31 70.9 0 0-.1.65q2.49 7.52 1.63 15.41l-2 1.5q.87-12.25-4.35-23.39l-.19-2.07.79-.79q3.38-1.03 1.74 1.37 11.38 17.78 32.74 20.13 2.21.24.9-1.55-3.14-4.33-7.42-8.24-1.85-1.62-.29-3.07l5.39 5.17q.27.26.2-.1l-1.05-5.42 1.71-.29q1.25 5.94 4.12 11.26.25.47.47 0l2.24-5.01q1.11-.66 2.25-.25l1.21-.79 1.79.79-4.73 5.81q-1.58 1.93.95 1.6 14.91-1.93 25.99-11.7 1.21-.05 1.79 1.04-8.53 8.51-19.46 11.26-1.64.41 0 .88 16.84 4.79 26.39 19.41.25.39.55-.19 8.24-16.4 2.27-33.86l1.75-1.25q6.46 18.49-1.96 36.09-.46.95.64.84 22.6-2.25 34.77-21.24a.86.81 46.1 0 0-.01-.91q-7.91-12.4-21.52-18.03l.79-1.79q13.68 5.48 21.97 17.63a.29.29-49.3 0 0 .5-.04q8.47-17.57 1.57-36.05l1.17-.75Zm-44.62 60.28c-7.85-11.41-19.92-18.49-33.81-19.43q-.74-.05-.26.63 12.23 17.53 33.73 19.58.95.09.34-.78Z"/><path fill="#7552d9" d="M164.5 122.04q-4.52 11.98-2.79 24.71l-1.71.29q-2.08-10.81.56-21.61-1.03-1.83 1.19-2.34a1.89 1.36-66.2 0 0 .82-.48q.75-.73 1.93-.57Z"/><path fill="#a04dd3" d="M171 125.04q4.08 13.89-.21 27.71-1.14-.41-2.25.25 4.21-13.42.42-27 .39-2.12 2.04-.96Z"/><path fill="#1a1b1c" d="M116.5 138.71q-13.44 3.48-23.33 13.13-.36.34-.26-.14l1.8-9.2q.35-8.74-1.78-17.21-.11-.47.23-.12 9.81 9.9 23.34 13.54Z"/><path fill="#56d343" d="m122.96 125.75 2.08 6.97q-2.36-.03-3.5-2.22l-.75-5.5q1.46-.7 2.17.75Z"/><path fill="#1a1b1c" d="M60.08 138.78q-.63-.19.08-.39 12.75-3.55 21.91-13.09.41-.43.29.21c-2.04 10.78-2.07 15.85.1 26.5q.1.48-.25.12-9.33-9.47-22.13-13.35ZM171 125.04l.52-.14q2.74 3.5 6.44 5.85 7.04 5.27 15.34 7.36 1.74.44.01.91-12.6 3.4-21.31 12.94l-1.21.79q4.29-13.82.21-27.71Zm-10.44.39q-2.64 10.8-.56 21.61l1.05 5.42q.07.36-.2.1l-5.39-5.17q-7.4-5.57-15.95-7.87-3.2-.86.01-1.68c7.91-2.04 15.09-6.86 21.04-12.41Z"/><path fill="#6a8ca6" d="m130.5 135.29-1.29 2.21q-1.79-2.25 1.29-2.21Z"/><path fill="#f4b91b" d="m127.5 137.46.5 1-.21.29-.79.79q-1.74-.85-2.59.5-20.17 1.26-32.41 16.75l-3.46.46q2.73-6.77 3.75-14 1.34.12 2.42-.75l-1.8 9.2q-.1.48.26.14 9.89-9.65 23.33-13.13 3.82 1.67 5.08-1.32l3.17.07q.32-.01.6-.16a.64.62 51.5 0 1 .71.09q.55.5 1.44.07Z"/><path fill="#6a8ca6" d="M135.51 138q.69-.1.48.74a.54.48-63.8 0 1-.81.33q-.24-.21-.18-.57a.62.6-88.5 0 1 .51-.5Z"/><path fill="#f5371e" d="m127 139.54.19 2.07q-1.38 1.05-1.69 2.43c-.74-2.49-3.47 3.07-3.81 3.62q-8.62 8.97-20.4 12.59l-.29-1.96q14.97-4.97 23.41-18.25.85-1.35 2.59-.5Z"/><path fill="#1a1b1c" d="M196 148.46q-11.08 9.77-25.99 11.7-2.53.33-.95-1.6l4.73-5.81q11.95-11.74 28.46-13.08 1-.08.46.76-2.84 4.46-6.71 8.03Zm25.21-5.96q13.61 5.63 21.52 18.03a.86.81 46.1 0 1 .01.91q-12.17 18.99-34.77 21.24-1.1.11-.64-.84 8.42-17.6 1.96-36.09l-2.15-5.73q-.27-.73.37-.56l2.23.57a1.31.91 25.4 0 0 1.09-.18q.71-.66 1.22.08a1.18.1 14.9 0 0 .99.35l8.17 2.22ZM46 180.79q1.52 2.6-1.25 1.75-21.37-2.51-33.29-20.31a1.89 1.76 45.9 0 1-.04-2.03q12.41-18.31 34.59-20.39.97-.09.5.89-9.66 19.92-.51 40.09Zm83.53-40.67q15.4.65 26.22 10.34 4.28 3.91 7.42 8.24 1.31 1.79-.9 1.55-21.36-2.35-32.74-20.13ZM85.04 159.5l-.58.75q-7.21-.83-13.96-3.46-11.92-5.28-19.27-16.04-.57-.83.44-.74 21.28 1.98 33.37 19.49Zm39.37-19.46q-8.44 13.28-23.41 18.25Q95.77 160 90.29 160q.47-1.79 1.71-3.21 12.24-15.49 32.41-16.75Z"/><path fill="#1a1b1c" d="M207.54 147q5.97 17.46-2.27 33.86-.3.58-.55.19-9.55-14.62-26.39-19.41-1.64-.47 0-.88 10.93-2.75 19.46-11.26l6.73-7.77a.39.35-42.8 0 1 .59-.01q1.71 2.39 2.43 5.28ZM70 158.71l6.76 2.54q.52.2.01.34-17.26 4.63-27.43 19.24a.67.61-59.3 0 1-.8.25q-.65-.33-.75-1.08-8.46-19.45.39-37.92.53-1.11 1.23-.1Q57.36 153.6 70 158.71Zm57.19-17.1q5.22 11.14 4.35 23.39-.69 8.26-4.26 15.52-.5 1.03-.97-.02-8.12-18.07-.81-36.46.31-1.38 1.69-2.43Z"/><path fill="#f4125c" d="M125.5 144.04q-7.31 18.39.81 36.46.47 1.05.97.02 3.57-7.26 4.26-15.52l2-1.5c.32 3.98-1.14 6.86-1.25 10.44q-.02.4.3.12l.66-.6 2.25 1.33-5.96 6.76q-1.26 1.43.58 1.06l9.13-1.82q.03 1.18.75 2l-2.03.78q-.47.18 0 .36l3.28 1.28q-1.11 1-.04 2.04-5.77-1.77-11.62-2.11-.77-.05-.32.59 7.86 10.99 20.23 16.48-.88.33-1.01 1.69-9.31-3.77-16.08-11.09-.96-1.04-.54.32 2.57 8.39 1.84 17.62l-2.33.24q1.31-12.47-4.01-23.54-.6-1.25-1.13.04l-2.03 5.01q-1.73-1.29-2.25-3.5l2.17-3.05a.36.34-64 0 0-.17-.54q-1.88-.53-3.71.3.3-.73 1.01-.76a1.1.96 12.5 0 0 .83-.45q.57-.89.03-1.62a.77.65-24.4 0 0-.79-.22q-.82.24-1.29-.41 1.95-.24 3.7.52 1.51.66.54-.78-3.69-5.47-8.78-9.7 1.25-.1 1.54-1.29l3.92 3.53q1.01.91.69-.34-3.31-13.13.04-26.53c.34-.55 3.07-6.11 3.81-3.62Z"/><path fill="#1a1b1c" d="m133.25 173.46-.66.6q-.32.28-.3-.12c.11-3.58 1.57-6.46 1.25-10.44q.86-7.89-1.63-15.41a.58.31 70.9 0 1 .1-.65q.2-.07.52.28 8.81 9.65 21.47 13.07 1.26.34 0 .68-11.68 3.18-20.75 11.99Zm-11.56-25.8q-3.35 13.4-.04 26.53.32 1.25-.69.34l-3.92-3.53q-7.96-6.95-18.29-9.29.71-1.29 2.54-1.46 11.78-3.62 20.4-12.59Z"/><path fill="#f5ca1a" d="M70.5 156.79q6.75 2.63 13.96 3.46.52 1.27-.21 2.21-21.2 2.41-33.24 19.82-.25.36.18.33 14.75-1.24 26.06-10.65 1.45.06 1.75 1.33-11.84 10.42-27.7 11.57-.88.06-.37.77 4.89 6.82 11.82 11.91.08 1.21-1 1.75-7.43-4.84-12.33-12.33-.66-1.03-1.19.08-10.2 21.31 1.94 41.01 1.38 1.94-.92 2.99c-.68-.95-1.33-1.46-2.59-1.5q-15.53-.52-27.41-10.5 1.57.08 1.54-1.29 11.21 9.02 25.64 9.89a.22.2 77 0 0 .18-.32q-9.94-20.76-.13-41.55a.72.53-62.5 0 0-.13-.84q-.75-.46-1.91-.16l.31-2.23q2.77.85 1.25-1.75l1.79-.79q.1.75.75 1.08a.67.61-59.3 0 0 .8-.25q10.17-14.61 27.43-19.24.51-.14-.01-.34L70 158.71q.74-.9.5-1.92Z"/><path fill="#f48f17" d="M92 156.79q-1.24 1.42-1.71 3.21-2.22 2.02-2.95 4.38-8.01 17.25-1.63 34.87l-1.92.75q-5.49-14.28-1.3-29.02.34-1.21-.64-.31L79 173.29q-.3-1.27-1.75-1.33 4.46-3.87 7.72-8.79a.49.39-62.6 0 0-.14-.69q-.26-.08-.58-.02.73-.94.21-2.21l.58-.75q1.61.19 2.25-1.25l1.25-1 3.46-.46Z"/><path fill="#f66d19" d="m101 158.29.29 1.96q-1.83.17-2.54 1.46-1.18.45-1.25 1.75l-6.19-1.04a.5.46 7.2 0 0-.58.41c-.13 1.76 2.93 4.56 4.06 5.92q.11 1.26-1.47 1.32-.75 1.94.39 4.18l-2 1.25q-.95-6.07-4.37-11.12.73-2.36 2.95-4.38 5.48 0 10.71-1.71Z"/><path fill="#f5371e" d="M98.75 161.71q10.33 2.34 18.29 9.29-.29 1.19-1.54 1.29-8.1-6.23-18-8.83.07-1.3 1.25-1.75Z"/><path fill="#1a1b1c" d="M97.5 163.46q9.9 2.6 18 8.83 5.09 4.23 8.78 9.7.97 1.44-.54.78-1.75-.76-3.7-.52-14.71-2.94-25.25-13.5c-1.13-1.36-4.19-4.16-4.06-5.92a.5.46 7.2 0 1 .58-.41l6.19 1.04Zm41.75 17.33-9.13 1.82q-1.84.37-.58-1.06l5.96-6.76q10.68-10.4 26.7-12.36 1.91-.23.76 1.3-9.54 12.65-23.71 17.06Zm29.53-18.44c13.89.94 25.96 8.02 33.81 19.43q.61.87-.34.78-21.5-2.05-33.73-19.58-.48-.68.26-.63Zm-84.53.11q.32-.06.58.02a.49.39-62.6 0 1 .14.69q-3.26 4.92-7.72 8.79-11.31 9.41-26.06 10.65-.43.03-.18-.33 12.04-17.41 33.24-19.82Zm-39.81 22.31q1.16-.3 1.91.16a.72.53-62.5 0 1 .13.84q-9.81 20.79.13 41.55a.22.2 77 0 1-.18.32q-14.43-.87-25.64-9.89C5.03 204.58-.02 182.71 9.35 164.18a.3.3 40.4 0 1 .51-.04q12.65 18.06 34.58 20.63ZM229 220.54q-9.74 6.07-21.18 6.87a.31.31 9.8 0 1-.31-.43q2.51-5.79 3.7-11.98 3.04-15.36-3.66-28.89a.86.85-15.7 0 1 .7-1.22q22.88-2.2 35.69-20.98a.4.28 52.7 0 1 .56.18c10.43 20.23 3.04 44.06-15.5 56.45Zm-59.96-24.29-2.38 6.47q-.51 1.4-1.14.01-6.22-13.83-3.31-28.73l3.16-9.01q.56-1.57 1.27-.01 6.97 15.33 2.4 31.27Zm-81.7-31.87q3.42 5.05 4.37 11.12 2.52 13.89-3.28 26.7-.78 1.73-1.48.04l-1.24-2.99q-6.38-17.62 1.63-34.87Z"/><path fill="#f52724" d="M94.79 168.75q10.54 10.56 25.25 13.5.47.65 1.29.41a.77.65-24.4 0 1 .79.22q.54.73-.03 1.62a1.1.96 12.5 0 1-.83.45q-.71.03-1.01.76l-6 1.08-1-1.75 3.46-1.08q.47-.15-.01-.26-13.67-3.2-23.38-13.63 1.58-.06 1.47-1.32Z"/><path fill="#1a1b1c" d="M93.32 170.07q9.71 10.43 23.38 13.63.48.11.01.26l-3.46 1.08q-11.97 3.74-20.59 12.79-.34.35-.18-.12 3.85-11.51 1.23-23.46-1.14-2.24-.39-4.18Zm67.14 2.68q-3.25 12.51.79 24.55.59 1.77-.65.38-7.98-8.87-19.35-12.47l-3.28-1.28q-.47-.18 0-.36l2.03-.78q11.84-3.58 20.41-12.44.36-.37.39.15.07 1.13-.34 2.25ZM83.79 200l1.73 4.47a.48.47-19.1 0 1-.31.63q-1.45.42-2.96-.06-10.6-1.6-19.5-7.5-6.93-5.09-11.82-11.91-.51-.71.37-.77 15.86-1.15 27.7-11.57l2.85-2.62q.98-.9.64.31-4.19 14.74 1.3 29.02Zm102.96.04q-8.2 4.44-17.62 5.24a.96.89-81.3 0 1-.88-1.3l3-7.94q3.53-12.39-.02-24.8-.48-1.68.74-.45 12.43 12.62 30.18 14.07a.55.54 19.1 0 1 .42.84q-6.04 9.02-15.82 14.34Z"/><path fill="#f21980" d="M160.46 172.75q.29 1.27 1.75 1.25-2.91 14.9 3.31 28.73.63 1.39 1.14-.01l2.38-6.47 2.21-.21-3 7.94a.96.89-81.3 0 0 .88 1.3q9.42-.8 17.62-5.24l1.76.36q.38.08.03.27-.67.36-.79 1.29-8.31 4.5-18.8 5.39-.81.07-.33.74 12.93 17.95 35.15 19.58a.75.65-72.3 0 0 .67-.41q3.5-6.64 5.02-14.01l1.75 1.75q-1.19 6.19-3.7 11.98a.31.31 9.8 0 0 .31.43q11.44-.8 21.18-6.87-.45 1.63 1 1.5-10.72 6.76-23.48 7.38a1.12 1.08 17.5 0 0-.82.41c-3.33 4.14-5.54 7.74-10.2 11.46l-1.5-1.33q4.83-4.4 8.73-9.6.53-.7-.14-.75-18.29-1.39-30.93-14.54-.47-.49-.36.15l1.24 7.28q-.82 1.26-2 1-.92-7.31-4.09-13.96-.63-1.33-1.42-.1-7.75 11.95-21.53 17.02.17-1.21-1-1.67 12.95-5.21 20.94-16.61.53-.76-.4-.8-7.4-.37-14.55-3.48.13-1.36 1.01-1.69 6.33 2.26 13.01 3.04 1.68.19.71-1.2-8.13-11.65-22.01-16.8-1.07-1.04.04-2.04 11.37 3.6 19.35 12.47 1.24 1.39.65-.38-4.04-12.04-.79-24.55Z"/><path fill="#f64818" d="M93.71 174.25q2.62 11.95-1.23 23.46-.16.47.18.12 8.62-9.05 20.59-12.79l1 1.75q-15.07 4.89-23.32 16.84-1.38 1.99 1.01 1.62 12.69-1.95 22.06-8.54.7 1.04.25 2.25-10.59 7.6-23.7 8.4-.77.05-.33.68 4.71 6.69 11.28 11.67l-1.75 1.08q-6.56-4.76-11.1-11.46-.69-1.02-1.22.15-9.23 20.36.73 40.35a1.01.9 74.4 0 0 .89.57q6-.26 11.7-2.11 1.36.32 1.54 1.71-5.69 2.04-11.73 2.41a.3.29-17.4 0 0-.24.45q6.17 10.02 16.72 15.39l-.83 1.5q-11.52-5.74-18.27-16.71a2 1.99 72.7 0 0-1.8-.95q-3.85.19-8.14-.88l.25-1.67 6.65.77q1.14.13.65-.94-7.57-16.32-3.02-34.28-.95-1.09-1.78-1.13l4.25-6.03q.37-.52-.23-.56l-2.27-.16q1.13-1.27-.25-2.17 1.51.48 2.96.06a.48.47-19.1 0 0 .31-.63L83.79 200l1.92-.75 1.24 2.99q.7 1.69 1.48-.04 5.8-12.81 3.28-26.7l2-1.25Z"/><path fill="#1a1b1c" d="M141.21 187.25q13.88 5.15 22.01 16.8.97 1.39-.71 1.2-6.68-.78-13.01-3.04-12.37-5.49-20.23-16.48-.45-.64.32-.59 5.85.34 11.62 2.11ZM121.96 189l-7.96 7.71q-9.37 6.59-22.06 8.54-2.39.37-1.01-1.62 8.25-11.95 23.32-16.84l6-1.08q1.83-.83 3.71-.3a.36.34-64 0 1 .17.54l-2.17 3.05Zm-60.21 10.29q9.38 6.5 20.75 7.92l2.27.16q.6.04.23.56l-4.25 6.03q-12.13 11.97-30.58 14.09-12.14-19.7-1.94-41.01.53-1.11 1.19-.08 4.9 7.49 12.33 12.33Zm147.71 13.96q-1.52 7.37-5.02 14.01a.75.65-72.3 0 1-.67.41q-22.22-1.63-35.15-19.58-.48-.67.33-.74 10.49-.89 18.8-5.39 10.33-5.48 16.69-15.11.61-.92 1.08.08 5.98 12.54 3.94 26.32Zm-78.08-2.26q-.74 7.62-3.97 14.33-.5 1.05-.98-.01-7.18-15.91-2.22-32.81l2.03-5.01q.53-1.29 1.13-.04 5.32 11.07 4.01 23.54Z"/><path fill="#f31631" d="M121.96 189q.52 2.21 2.25 3.5-4.96 16.9 2.22 32.81.48 1.06.98.01 3.23-6.71 3.97-14.33l2.33-.24q-.97 8.66-4.79 16.48-.25.52.33.48 6.75-.48 13.25-2.92 1.17.46 1 1.67-6.6 2.98-12.39 3.26-2.41.11-.89 1.99 13.55 16.76 33.79 18.31 1.78.14 2.28-1.27 1.08-.01 1.92.75l.54.54q-.99.78-1 1.92-1.11.03-2.07 1.49c-12.92 19.55-38.28 27.66-59.47 16.3l.83-1.5c20.6 9.55 43.74 3.92 56.6-15.1a.54.51 19.1 0 0-.42-.8q-22.8-2.22-35.72-20.83a.66.63 45.7 0 0-1.06-.04q-9.48 13.72-24.15 18.52-.18-1.39-1.54-1.71 15.1-4.66 23.7-17.81.51-.78-.42-.83-13.57-.69-24.28-8.86l1.75-1.08q10.3 6.9 22.71 7.97 1.07.1.54-.99-7.83-16.03-3.09-33.45.14-.5-.33-.12l-7.08 5.84q.45-1.21-.25-2.25l7.96-7.71Z"/><path fill="#1a1b1c" d="M148.49 203.9q7.15 3.11 14.55 3.48.93.04.4.8-7.99 11.4-20.94 16.61-6.5 2.44-13.25 2.92-.58.04-.33-.48 3.82-7.82 4.79-16.48.73-9.23-1.84-17.62-.42-1.36.54-.32 6.77 7.32 16.08 11.09Zm-46.99 15.81q-6.57-4.98-11.28-11.67-.44-.63.33-.68 13.11-.8 23.7-8.4l7.08-5.84q.47-.38.33.12-4.74 17.42 3.09 33.45.53 1.09-.54.99-12.41-1.07-22.71-7.97Z"/><path fill="#f48f17" d="M62.75 197.54q8.9 5.9 19.5 7.5 1.38.9.25 2.17-11.37-1.42-20.75-7.92 1.08-.54 1-1.75Z"/><path fill="#1a1b1c" d="M170.54 223.5q1.59 13.27-4.25 25.25-.5 1.41-2.28 1.27-20.24-1.55-33.79-18.31-1.52-1.88.89-1.99 5.79-.28 12.39-3.26 13.78-5.07 21.53-17.02.79-1.23 1.42.1 3.17 6.65 4.09 13.96Zm-70.79-2.71q10.71 8.17 24.28 8.86.93.05.42.83-8.6 13.15-23.7 17.81-5.7 1.85-11.7 2.11a1.01.9 74.4 0 1-.89-.57q-9.96-19.99-.73-40.35.53-1.17 1.22-.15 4.54 6.7 11.1 11.46Z"/><path fill="#f48f17" d="M80.75 213.96q.83.04 1.78 1.13-12.93 13.4-31.24 14.74-.81.06-.35.74 9.98 14.5 27.31 18.97l-.25 1.67q-18.48-4.31-28.75-20.17 2.3-1.05.92-2.99 18.45-2.12 30.58-14.09Z"/><path fill="#1a1b1c" d="M78.25 249.54q-17.33-4.47-27.31-18.97-.46-.68.35-.74 18.31-1.34 31.24-14.74-4.55 17.96 3.02 34.28.49 1.07-.65.94l-6.65-.77ZM194 239.96q-11.06 8.84-25.25 10.08l-.54-.54q6.33-12.83 4.33-27l-1.24-7.28q-.11-.64.36-.15 12.64 13.15 30.93 14.54.67.05.14.75-3.9 5.2-8.73 9.6Z"/><path fill="#f4125c" d="M172.54 222.5q2 14.17-4.33 27-.84-.76-1.92-.75 5.84-11.98 4.25-25.25 1.18.26 2-1Z"/><path fill="#1a1b1c" d="M107.04 268.25q-10.55-5.37-16.72-15.39a.3.29-17.4 0 1 .24-.45q6.04-.37 11.73-2.41 14.67-4.8 24.15-18.52a.66.63 45.7 0 1 1.06.04q12.92 18.61 35.72 20.83a.54.51 19.1 0 1 .42.8c-12.86 19.02-36 24.65-56.6 15.1Z"/><path fill="#f4125c" d="m194 239.96 1.5 1.33q-11.97 10.12-27.75 10.67.01-1.14 1-1.92 14.19-1.24 25.25-10.08Z"/></svg>