<svg xmlns="http://www.w3.org/2000/svg" viewBox="0 0 440 381"><g fill="none" stroke-width="2"><path stroke="#9edaba" d="M144.75 48.21q-3.13 3.24-5.48 7.1a.89.89-74.3 0 1-.76.43c-24.74-.21-44.25 19.4-47.79 43.05" vector-effect="non-scaling-stroke"/><path stroke="#c0dfa7" d="M90.72 98.79q-1.42 16.03 5.82 30.46" vector-effect="non-scaling-stroke"/><path stroke="#f4ee98" d="M96.54 129.25q-12.42 23.4-.19 46.81a1.03 1.02 43.4 0 1 .03.89c-5.54 12.29-7.79 23-4.11 36.3 5.95 21.44 23.74 35.32 45.87 36.51a2.24 2.22 75.2 0 1 1.77 1.04q8.89 14.14 24.59 19.74" vector-effect="non-scaling-stroke"/><path stroke="#e99798" d="M164.5 270.54q7.51 3.09 15.74 3.19a.91.91 73.3 0 1 .76.41c20.55 31.35 64.05 31.63 84.07-.17a.94.92-73.9 0 1 .76-.43q16.57-.45 29.21-10.79" vector-effect="non-scaling-stroke"/><path stroke="#e690c5" d="M295.04 262.75q6.61-5.08 11.12-12.3a2.51 2.5-74.9 0 1 2.05-1.18c35.99-.91 57.37-39.59 41.33-71.8a2 1.99-44.8 0 1 .01-1.8q11.4-22.23.45-44.71" vector-effect="non-scaling-stroke"/><path stroke="#d3a3ce" d="m350 130.96-.72-2.46a1.42 1.02-45.9 0 1 .14-.93c11.69-22.31 4.99-49.03-15.63-63.32" vector-effect="non-scaling-stroke"/><path stroke="#b2afd1" d="M333.79 64.25q-11.97-8.13-26.49-8.79a.93.92 75.1 0 1-.75-.44Q295.2 37.3 274.5 32.79" vector-effect="non-scaling-stroke"/><path stroke="#98d5e6" d="m274.5 32.79-8.99-1.26a1.15 1.02-10.8 0 1-.76-.45C244.19.25 201.54.09 181.19 31.25a.98.96 14.8 0 1-.78.44q-21.31.94-35.66 16.52" vector-effect="non-scaling-stroke"/><path stroke="#4b84b8" d="m274.5 32.79-.75 1.75" vector-effect="non-scaling-stroke"/><path stroke="#98d5e6" d="m273.75 34.54-6.65-.77q-.93-.11-.53.7 8.61 17.28 3.48 36.05-.16.57.36.14l6.34-5.2" vector-effect="non-scaling-stroke"/><path stroke="#4b84b8" d="m276.75 65.46 1.75 1.33" vector-effect="non-scaling-stroke"/><path stroke="#98d5e6" d="M278.5 66.79q-6.88 5.2-11.72 12.29a.35.33-68.4 0 0 .21.53l5.01.68" vector-effect="non-scaling-stroke"/><path stroke="#4b84b8" d="M272 80.29q-.24 1.21-1 2" vector-effect="non-scaling-stroke"/><path stroke="#98d5e6" d="m271 82.29-4.01-.12a.38.32 77 0 0-.27.53l2.49 5.8" vector-effect="non-scaling-stroke"/><path stroke="#4b84b8" d="m269.21 88.5-2.17.25" vector-effect="non-scaling-stroke"/><path stroke="#98d5e6" d="m267.04 88.75-2.19-4.79q-.43-.94-.86.02-9.43 20.89.26 41.48" vector-effect="non-scaling-stroke"/><path stroke="#4b84b8" d="m264.25 125.46-2.04 1.54" vector-effect="non-scaling-stroke"/><path stroke="#98d5e6" d="M262.21 127q-12.3-17.77-34.63-21.25-2.98-.46-1.26 2.01 12.51 17.97 35.97 19.74" vector-effect="non-scaling-stroke"/><path stroke="#4b84b8" d="M262.29 127.5q1.09 1.29-.01 2.39" vector-effect="non-scaling-stroke"/><path stroke="#98d5e6" d="M262.28 129.89q-23.98 1.87-37.28 21.57" vector-effect="non-scaling-stroke"/><path stroke="#826d7f" d="m225 151.46-2.75.25" vector-effect="non-scaling-stroke"/><path stroke="#92ceb0" d="M222.25 151.71q-.84-1.47-2.29-2.46" vector-effect="non-scaling-stroke"/><path stroke="#8dc37f" d="m219.96 149.25-2.29-5.39" vector-effect="non-scaling-stroke"/><path stroke="#98d5e6" d="M217.67 143.86q-4.22-14.79-.05-29.12a.19.14-80.8 0 0-.12-.24h-.25a.87.71 17.6 0 0-.55.22q-10.24 10.36-24.45 13.99" vector-effect="non-scaling-stroke"/><path stroke="#8dc37f" d="M192.25 128.71q.49-1.23-.25-2.25" vector-effect="non-scaling-stroke"/><path stroke="#98d5e6" d="M192 126.46q17.88-4.65 28.21-19.79a.29.29 19.8 0 0-.22-.46q-5.64-.44-10.99 1.58" vector-effect="non-scaling-stroke"/><path stroke="#37b0a1" d="M209 107.79v-2.25" vector-effect="non-scaling-stroke"/><path stroke="#98d5e6" d="M209 105.54q1.62.12 1.96-1.04" vector-effect="non-scaling-stroke"/><path stroke="#37b0a1" d="M210.96 104.5q-1.05-1.2-.21-2.46" vector-effect="non-scaling-stroke"/><path stroke="#98d5e6" d="M210.75 102.04q4.51 1.44 9.08 1.49.94.01.4-.76-9.4-13.49-25.02-18.77" vector-effect="non-scaling-stroke"/><path stroke="#37b0a1" d="M195.21 84q.45-1.15 1.58-1.5" vector-effect="non-scaling-stroke"/><path stroke="#98d5e6" d="M196.79 82.5q11.48 3.67 19.8 12.29 1.48 1.54.93-.53-4.97-18.56 3.22-35.76a.52.49-78.1 0 0-.45-.75q-18.72 1.42-31.54 14.79" vector-effect="non-scaling-stroke"/><path stroke="#37b0a1" d="m188.75 72.54-1.25-1.83" vector-effect="non-scaling-stroke"/><path stroke="#98d5e6" d="M187.5 70.71q13.38-13.57 32.5-15.13a.38.38-19.9 0 0 .28-.59c-8.24-11.97-22.9-21.56-38-20.74a.87.84-77.1 0 0-.72.47q-6.97 13.69-5.1 29.03" vector-effect="non-scaling-stroke"/><path stroke="#37b0a1" d="m176.46 63.75-1.75.5" vector-effect="non-scaling-stroke"/><path stroke="#98d5e6" d="M174.71 64.25q-2.45-15.55 4.53-29.52.4-.8-.49-.74-19.36 1.39-32.46 15.51" vector-effect="non-scaling-stroke"/><path stroke="#37b0a1" d="M146.29 49.5q.03-1.37-1.54-1.29" vector-effect="non-scaling-stroke"/><path stroke="#9edaba" d="m188.75 72.54-5.18 6.72q-.33.42.24.45 6.75.29 12.98 2.79m-1.58 1.5q-5.36-1.51-10.91-1.95-.86-.07-.38.65 9.74 14.47 26.83 19.34" vector-effect="non-scaling-stroke"/><path stroke="#9edaba" d="M210.96 104.5q-13.98-3.84-23.67-14.01-1.26-1.31-.7.43 4.26 13.41.16 26.82-.78 2.57.98.62 8.17-9.02 21.27-12.82" vector-effect="non-scaling-stroke"/><path stroke="#9edaba" d="M209 107.79q-15.6 5.38-25.25 18.75" vector-effect="non-scaling-stroke"/><path stroke="#92c953" d="m183.75 126.54-2.75-1.5" vector-effect="non-scaling-stroke"/><path stroke="#9edaba" d="m181 125.04.52-.18a1.41.88-79.8 0 0 .68-.75q8.43-20.04-.49-39.8-.57-1.25-1.13.01-5.52 12.35-4.37 25.93" vector-effect="non-scaling-stroke"/><path stroke="#5eba62" d="m176.21 110.25-1.67.5" vector-effect="non-scaling-stroke"/><path stroke="#9edaba" d="M174.54 110.75q-2.49-14.66 4.47-27.83.61-1.16-.69-1.05-22.71 1.85-36.16 21.22" vector-effect="non-scaling-stroke"/><path stroke="#5eba62" d="m142.16 103.09-1.95-1.34" vector-effect="non-scaling-stroke"/><path stroke="#9edaba" d="M140.21 101.75q13.76-19.8 38.38-22a.36.31 68.9 0 0 .19-.54q-13.53-19.77-37.75-21.34a.88.78-71.9 0 0-.76.44c-7.6 13.06-7.38 29.39-1.27 42.9" vector-effect="non-scaling-stroke"/><path stroke="#5eba62" d="m139 101.21-1.96.79" vector-effect="non-scaling-stroke"/><path stroke="#9edaba" d="M137.04 102q-10.23-22.03.6-43.58.37-.73-.44-.65c-22.51 2.16-41.05 17.57-43.99 40.73" vector-effect="non-scaling-stroke"/><path stroke="#5eba62" d="M93.21 98.5q-1.25 1.05-2.49.29" vector-effect="non-scaling-stroke"/><path stroke="#eee762" d="M219.96 149.25h-.42" vector-effect="non-scaling-stroke"/><path stroke="#f4ee98" d="M219.54 149.25c-7.67-10.08-22.27-20.02-35.55-19.23q-.59.03-.25.51 11.84 17.15 32.51 20.51" vector-effect="non-scaling-stroke"/><path stroke="#eee762" d="M216.25 151.04c1.26 1.34 3.82.78 5.5 1" vector-effect="non-scaling-stroke"/><path stroke="#de8631" d="M221.75 152.04q-.59 1.47-1.29 2.11" vector-effect="non-scaling-stroke"/><path stroke="#f4ee98" d="M220.46 154.15q-24.02.76-36.74 21.34" vector-effect="non-scaling-stroke"/><path stroke="#de8631" d="M183.72 175.49q-2.44-.71-4.72-.03" vector-effect="non-scaling-stroke"/><path stroke="#f4ee98" d="M179 175.46q-10.67-15.91-29.33-20.66-3.54-.9-6.38-.75-1.61.08-.66 1.38 12.75 17.47 34.12 20.11" vector-effect="non-scaling-stroke"/><path stroke="#de8631" d="M176.75 175.54q-2.6.51-3.57 2.75" vector-effect="non-scaling-stroke"/><path stroke="#f4ee98" d="M173.18 178.29q-19.45 4.05-30.88 20.27-.73 1.04.54.93 14.26-1.2 25.87-9.99" vector-effect="non-scaling-stroke"/><path stroke="#de8631" d="M168.71 189.5q1.47.02 1.58 1.25" vector-effect="non-scaling-stroke"/><path stroke="#f4ee98" d="M170.29 190.75q-11.47 9.02-27.69 10.94a.56.56-16.5 0 0-.44.81c5.05 9.96 18.13 17.63 28.59 20.21" vector-effect="non-scaling-stroke"/><path stroke="#de8631" d="m170.75 222.71-1 1.33" vector-effect="non-scaling-stroke"/><path stroke="#f4ee98" d="M169.75 224.04q-18.34-4.42-29.12-19.83a.92.91 41.6 0 0-1.56.09c-6.43 12.01-6.29 29.76.39 41.63q.99 1.78 3.03 1.6 14.98-1.36 26.76-10.57" vector-effect="non-scaling-stroke"/><path stroke="#de8631" d="m169.25 236.96 1.25 1.58" vector-effect="non-scaling-stroke"/><path stroke="#f4ee98" d="M170.5 238.54q-12.55 10.05-28.3 11.04a.44.44-18.6 0 0-.34.68q8.76 13.28 23.43 18.74" vector-effect="non-scaling-stroke"/><path stroke="#de8631" d="m165.29 269-.79 1.54" vector-effect="non-scaling-stroke"/><path stroke="#f4ee98" d="M217.67 143.86q-10.51-11.6-25.74-14.55-.85-.16-.5-.52.17-.17.82-.08m-.25-2.25-7.68 1.2a.67.54-9.7 0 1-.74-.41q-.07-.33.17-.71" vector-effect="non-scaling-stroke"/><path stroke="#e99798" d="m226.25 153.71-1 .08m-2.41 1.88q-10.25 20.75-.5 41.62a.46.45 61.8 0 0 .65.21q1.16-.73 1.3-2.25m2.5 1.5-1.28 2.22q-.31.53.3.43l8.44-1.36m.04 2.21q-.54 1.11.96 1.04m.25 2.25q-4.75-1.42-9.68-1.47-.51-.01-.24.41 8.95 13.82 24.71 19.02" vector-effect="non-scaling-stroke"/><path stroke="#e99798" d="M249.5 223.29q-11.95-3.71-20.42-12.88-1.26-1.37-.8.34 4.95 18.39-2.98 35.55-.56 1.22.76 1.09 9.53-.9 18.4-5.14m1.04 1.71q-9.28 4.83-19.63 5.51-.87.06-.37.77c8.46 12.09 22.76 21.13 38 20.76a.87.76 9.9 0 0 .75-.45l3-6.34m1.96.54-2.01 5.26a.75.73-81.2 0 0 .72 1.02q13.86-1.06 24.83-9.32M165.29 269q6.63 2.09 13.72 2.65.51.04.29-.42-8.39-17.51-3.38-36.43c.21-.78-.04-1.65-.9-.5q-1.87 2.5-4.52 4.24m-1.25-1.58q5.25-4.77 9.1-9.95a.81.77 23.6 0 0-.52-1.23l-8.08-1.74m1-1.33q3.93.91 8.07.62a.36.28-11.6 0 0 .35-.41q-8.27-17.7-3.17-36.63.16-.63-.35-.43c-1.2.44-3.73 3.84-5.36 4.89m-1.58-1.25q5.88-4.84 9.71-10.8.75-1.18-.66-1l-4.58.59m3.57-2.75 2.25-.08m4.72.03q23.85-1.54 36.74-21.34" vector-effect="non-scaling-stroke"/><path stroke="#9edaba" d="M174.71 64.25c0 .57 1.62 7.66.51 6.56q-13.66-13.64-33.06-15.23-.74-.06-.27-.64l4.4-5.44m41.21 21.21-5.86 6.85a.34.34 51.9 0 1-.56-.07q-3.29-6.52-4.62-13.74" vector-effect="non-scaling-stroke"/><path stroke="#e99798" d="m227.21 151.5-2.21-.04" vector-effect="non-scaling-stroke"/><path stroke="#e39161" d="m222.25 151.71-.5.33" vector-effect="non-scaling-stroke"/><path stroke="#8652a0" d="M333.79 64.25q.15 1.18-.79 1.79" vector-effect="non-scaling-stroke"/><path stroke="#b2afd1" d="M333 66.04q-11.08-7.48-24.43-8.26a.34.31 77.8 0 0-.28.48q10.62 22.24.05 44.49a.44.4-70.2 0 0 .25.61l3.16.68" vector-effect="non-scaling-stroke"/><path stroke="#8652a0" d="M311.75 104.04q-.81.99-.25 2.17" vector-effect="non-scaling-stroke"/><path stroke="#b2afd1" d="M311.5 106.21q-1.4-.44-2.77-.1a.43.41 70.4 0 0-.27.59q5.52 11.88 5 25.05" vector-effect="non-scaling-stroke"/><path stroke="#8652a0" d="M313.46 131.75q-1.01.73-2.17.5" vector-effect="non-scaling-stroke"/><path stroke="#b2afd1" d="M311.29 132.25q.81-13.04-4.92-24.75a.38.37 49 0 0-.65-.05q-10.83 15.95-29.5 21-.61.16-.14.48 1.05.72 2.17.78" vector-effect="non-scaling-stroke"/><path stroke="#8652a0" d="M278.25 129.71v2.25" vector-effect="non-scaling-stroke"/><path stroke="#b2afd1" d="M278.25 131.96q-5.22-1.67-10.7-1.88-.56-.02-.23.42l4.47 6" vector-effect="non-scaling-stroke"/><path stroke="#8652a0" d="m271.79 136.5-1.04 2.04" vector-effect="non-scaling-stroke"/><path stroke="#b2afd1" d="M270.75 138.54q-.31-.39-.69-.48-.53-.12-.35.48 4.4 14.04.04 28.17" vector-effect="non-scaling-stroke"/><path stroke="#994097" d="m269.75 166.71-2.21.04" vector-effect="non-scaling-stroke"/><path stroke="#b2afd1" d="M267.54 166.75q5.53-17.91-2.56-34.69-.36-.73-.72 0-6.42 12.94-4.55 27.44" vector-effect="non-scaling-stroke"/><path stroke="#994097" d="M259.71 159.5q-1.16-.07-1.92.75" vector-effect="non-scaling-stroke"/><path stroke="#b2afd1" d="M257.79 160.25q-1.76-10.82 1.4-21.27.55-1.83-.75-.53-9.99 10.04-23.71 13.75-1.78.48.01.9 12.23 2.86 21.55 11.9" vector-effect="non-scaling-stroke"/><path stroke="#994097" d="m256.29 165-1.04 1.54" vector-effect="non-scaling-stroke"/><path stroke="#b2afd1" d="M255.25 166.54q-12.22-11.48-29-12.83" vector-effect="non-scaling-stroke"/><path stroke="#9c476a" d="m226.25 153.71.96-2.21" vector-effect="non-scaling-stroke"/><path stroke="#b2afd1" d="M227.21 151.5q22.44-2.91 35.07-21.61m.01-2.39-.08-.5m2.04-1.54q.5.09.75-.46 8.16-17.84 2.04-36.25" vector-effect="non-scaling-stroke"/><path stroke="#b2afd1" d="M269.21 88.5q4.96 14.78.99 30.02-.22.86.35.28 13.41-13.7 32.69-15.17a.39.38-18.4 0 0 .31-.59Q291.82 85.74 271 82.29" vector-effect="non-scaling-stroke"/><path stroke="#b2afd1" d="M272 80.29q20.8 3.65 33.13 20.96 1.03 1.45 1.76-.17 9.57-21.42-.82-42.39a1.79 1.75 74.7 0 0-1.7-.99q-14.57 1-25.87 9.09" vector-effect="non-scaling-stroke"/><path stroke="#b2afd1" d="M276.75 65.46q11.14-8.25 26.41-9.87a.63.62 69.4 0 0 .44-.98q-10.95-15.66-29.85-20.07" vector-effect="non-scaling-stroke"/><path stroke="#b4ce40" d="m180.21 124-2.42 1.25" vector-effect="non-scaling-stroke"/><path stroke="#c0dfa7" d="M177.79 125.25q-13.1-16.72-34.37-19.31-1.92-.24-.82 1.35 5.54 8.01 14.65 13.67" vector-effect="non-scaling-stroke"/><path stroke="#b4ce40" d="m157.25 120.96-1.75 1.5" vector-effect="non-scaling-stroke"/><path stroke="#c0dfa7" d="M155.5 122.46q-9.08-5.44-15-14.36a.78.77 41.6 0 0-1.34.08q-4.01 7.99-4.7 17.32" vector-effect="non-scaling-stroke"/><path stroke="#b4ce40" d="m134.46 125.5-1.96-.04" vector-effect="non-scaling-stroke"/><path stroke="#c0dfa7" d="M132.5 125.46q.33-9.8 4.81-18.77a.33.33-75.8 0 0-.28-.47c-15.13-.6-30.23 10.33-37.57 22.53" vector-effect="non-scaling-stroke"/><path stroke="#b4ce40" d="m99.46 128.75-2.92.5" vector-effect="non-scaling-stroke"/><path stroke="#c0dfa7" d="M174.54 110.75q.11 3.87 1.43 7.52.71 1.97-.9.41-13.78-13.35-32.91-15.59m-1.95-1.34q-.86.47-1.21-.54m-1.96.79q.36.57.41 1.11a.55.48-4.8 0 1-.52.53c-16.27 1.06-28.64 8.89-38.46 21.59a.55.54 50.5 0 1-.92-.09q-6.22-12.59-4.34-26.64" vector-effect="non-scaling-stroke"/><path stroke="#f4ee98" d="m181 125.04-.79-1.04" vector-effect="non-scaling-stroke"/><path stroke="#c0dfa7" d="M180.21 124q-2.93-6.6-4-13.75" vector-effect="non-scaling-stroke"/><path stroke="#f9f9c9" d="M219.54 149.25q-.85 2.06-3.29 1.79" vector-effect="non-scaling-stroke"/><path stroke="#f4ee98" d="M177.79 125.25q2.38 2.52-1.03 2.16-10.47-1.1-19.51-6.45m-1.75 1.5q6.49 4.13 13.94 6.1 1.02.27.06.52-18.38 4.85-29.16 20.51a.62.57 50.5 0 1-1.02-.14q-5.67-11.69-4.86-23.95" vector-effect="non-scaling-stroke"/><path stroke="#f4ee98" d="M132.5 125.46q-.78 7.96 1.21 15.65c.75 2.92 2.37 6.36 3.39 9.68a.34.34-6.5 0 1-.35.44c-15.35-.84-29.23-9.5-37.29-22.48" vector-effect="non-scaling-stroke"/><path stroke="#d0285e" d="M295.04 262.75q-1.35-.02-2.29-1.04" vector-effect="non-scaling-stroke"/><path stroke="#e690c5" d="M292.75 261.71q6.39-5.01 11.05-11.65.37-.53-.29-.59-19.83-1.74-33.47-16.03-.86-.9-.48.3 4.99 15.57-.35 31.01" vector-effect="non-scaling-stroke"/><path stroke="#d0285e" d="m269.21 264.75-1.96-.54" vector-effect="non-scaling-stroke"/><path stroke="#e690c5" d="M267.25 264.21q6.13-19.02-2.26-36.32-.63-1.3-1.43-.1-6.98 10.4-18.06 16.17" vector-effect="non-scaling-stroke"/><path stroke="#d0285e" d="M245.5 243.96q-.09-1.09-1.04-1.71" vector-effect="non-scaling-stroke"/><path stroke="#e690c5" d="M244.46 242.25q10.67-5.78 17.16-15.33a.78.78 19.2 0 0-.59-1.22q-5.94-.48-11.53-2.41" vector-effect="non-scaling-stroke"/><path stroke="#d0285e" d="m249.5 223.29.79-1.79" vector-effect="non-scaling-stroke"/><path stroke="#e690c5" d="m250.29 221.5 11.71 2.2q.6.11.25-.42-9.78-14.73-26.75-19.74" vector-effect="non-scaling-stroke"/><path stroke="#d0285e" d="M235.5 203.54q.9-1.21-.25-2.25" vector-effect="non-scaling-stroke"/><path stroke="#e690c5" d="M235.25 201.29q13.74 3.66 23.5 13.95 1.41 1.48.75-.51-4.67-14.1-.14-28.19c.27-.85-.28-1.07-.82-.51q-10.23 10.88-24.25 14.22" vector-effect="non-scaling-stroke"/><path stroke="#d0285e" d="m234.29 200.25-.04-2.21" vector-effect="non-scaling-stroke"/><path stroke="#e690c5" d="M234.25 198.04q17.71-4.65 27.66-19.81.28-.42-.22-.38-21.67 1.73-34.9 18.9" vector-effect="non-scaling-stroke"/><path stroke="#d0285e" d="M226.79 196.75q-.53-2-2.5-1.5" vector-effect="non-scaling-stroke"/><path stroke="#e690c5" d="M224.29 195.25q8.16-20.08-1.45-39.58" vector-effect="non-scaling-stroke"/><path stroke="#d0285e" d="m222.84 155.67 2.41-1.88" vector-effect="non-scaling-stroke"/><path stroke="#e690c5" d="M225.25 153.79q0 .8.48 1.47 13.17 18.44 35.81 20.31 1.19.1.46-.8l-6.75-8.23m1.04-1.54 2.45 1.73q.47.33.34-.29l-1.29-6.19m1.92-.75q1.28 7.02 4.28 13.42.49 1.04.92.02l2.63-6.19m2.21-.04h1m1.75 1.33q-3.13 3.13-4.23 4.91-1.99 3.22 1.74 2.53 19-3.52 30.53-16.73" vector-effect="non-scaling-stroke"/><path stroke="#e690c5" d="M303 158.79c-7.15 9.88-15.18 13.27-26.05 17.76q-.53.22.07.39 18.23 5 28.62 20.65a.37.36 44.4 0 0 .62 0c7.46-12.55 6-29.71-.05-42.34" vector-effect="non-scaling-stroke"/><path stroke="#e690c5" d="M307.92 154.21c7.75 13.46 7.11 30.85.42 44.36q-.52 1.04.67.92 23.41-2.2 36.55-21.43 1.11-1.63-.01-3.2-10.81-15.09-27.05-19.65" vector-effect="non-scaling-stroke"/><path stroke="#e690c5" d="M319.29 153.25c12.73 3.38 20.05 10.46 28.36 20.12a.32.32 37.3 0 0 .54-.07q9.66-20.76.06-41.51" vector-effect="non-scaling-stroke"/><path stroke="#d3a3ce" d="M333 66.04c18.58 13.85 25.96 38.16 14.98 59.54a.34.34-50.8 0 1-.56.06c-10-12.18-19.5-19.74-35.67-21.6" vector-effect="non-scaling-stroke"/><path stroke="#b93494" d="M350 130.96q-1.2-.33-1.75.83" vector-effect="non-scaling-stroke"/><path stroke="#d3a3ce" d="M348.25 131.79q-.58-.96-1.24-.01-10.69 15.34-28.73 20.39a.34.31-28.2 0 0-.19.53q.44.47 1.2.55" vector-effect="non-scaling-stroke"/><path stroke="#b93494" d="m319.29 153.25-.79 1.96" vector-effect="non-scaling-stroke"/><path stroke="#d3a3ce" d="M318.5 155.21q-5.19-2.03-10.58-1" vector-effect="non-scaling-stroke"/><path stroke="#b93494" d="m307.92 154.21-1.71 1.04" vector-effect="non-scaling-stroke"/><path stroke="#d3a3ce" d="m306.21 155.25-3.21 3.54" vector-effect="non-scaling-stroke"/><path stroke="#b93494" d="m303 158.79-2.46-.04" vector-effect="non-scaling-stroke"/><path stroke="#d3a3ce" d="m300.54 158.75 2.62-3.43q1.44-1.9-.92-1.67-17.61 1.73-29.74 14.39" vector-effect="non-scaling-stroke"/><path stroke="#b93494" d="m272.5 168.04-1.75-1.33" vector-effect="non-scaling-stroke"/><path stroke="#d3a3ce" d="M270.75 166.71q9.68-10.07 23.21-13.78 1.3-.36 0-.72-13.4-3.76-23.21-13.67" vector-effect="non-scaling-stroke"/><path stroke="#d3a3ce" d="M271.79 136.5q12.83 13.53 31.46 14.72.5.03.22-.38-9.33-13.75-25.22-18.88" vector-effect="non-scaling-stroke"/><path stroke="#d3a3ce" d="M278.25 129.71q17.13 5.1 27.17 19.91a.64.64 40.8 0 0 1.1-.08q4-8.1 4.77-17.29" vector-effect="non-scaling-stroke"/><path stroke="#d3a3ce" d="M313.46 131.75q-.78 10.13-4.68 18.09-.84 1.71 1.25 1.48 23.25-2.52 35.87-21.93a1.47 1.38-45.6 0 0 .03-1.54q-12.22-18.61-34.43-21.64" vector-effect="non-scaling-stroke"/><path stroke="#fcda95" d="m353.13 352.6 3.41 8.14q1.06 2.52-1.48 3.08l-3.64.8a.99.25-12.3 0 0-.86.43v1.4a.95.38 1.1 0 0 .94.39q10.72.29 21.46.13c1.24-.02 2.64-.84 1.35-2.14a1.24 1.13-18.9 0 0-.81-.35q-2.9-.11-5.32-1.63a2.03.9 77.2 0 1-.66-.89l-17.42-40.25q-1.38-3.18-2.75.11-7.82 18.72-16.12 37.25c-1.58 3.53-3.44 5.22-7.19 5.6a1.24.99 10.5 0 0-.81.43q-1.34 1.89 1.27 1.88 10.33-.04 14.03-.21a1.18.44 1.9 0 0 .95-.32q.49-.89-.44-1.51a1.44.55 42.5 0 0-.81-.32c-7.51.15-1.92-9.63-.32-12.3a1.13.85-70.8 0 1 .84-.56l13.82.04a1.05.26 68.9 0 1 .56.8" vector-effect="non-scaling-stroke"/><path stroke="#f29196" d="M60.26 327.03a.7.68 34.8 0 1-1.15.19c-10.28-11.12-26.47-6.69-33.17 5.52-11.66 21.27 12.55 46.72 33.21 30.37a.96.74-49.3 0 1 .87-.18c1.21.52.11 2.96 1.92 3.66a.38.37 10.4 0 0 .52-.34l-.23-15.75a.4.3 79.4 0 0-.44-.4c-.43.23-1.82 4.62-2.18 5.43-2.74 6.12-7.66 9.6-14.62 8.95-16.12-1.5-15.92-38.19-.18-39.67 8.21-.77 14.57 6.53 16.19 14.03a1.6 1.09-84.9 0 0 .47.84c1.75 1.4.99-12.67.97-13.62q-.05-2.77-1.52-.36-.36.59-.66 1.33" vector-effect="non-scaling-stroke"/><path stroke="#e789c3" d="M120.32 344.163a24.84 23.65-.5 0 0-25.046-23.432 24.84 23.65-.5 0 0-24.633 23.866 24.84 23.65-.5 0 0 25.045 23.432 24.84 23.65-.5 0 0 24.633-23.866" vector-effect="non-scaling-stroke"/><path stroke="#c196c6" d="M125.69 323.99q5.92.76 5.92 6.76.02 13.96-.25 27.94-.1 5.09-4.6 5.82c-2.31.38-2.97 2.46.1 2.47q19.84.08 39.74-.03a.67.47.8 0 0 .66-.45l.47-8.5a1.16.97 26.7 0 0-.36-.84c-1.38-1.32-2.09.54-2.31 1.68q-.98 5.09-6.55 5.02c-6.26-.08-18.12 2.44-18.44-6.92q-.24-7.26-.01-26.89.07-5.54 5.63-5.7c2.05-.05 2.64-1.77.15-1.81q-10.04-.17-20.1.1a.8.66 5.7 0 0-.71.47q-.24.77.66.88" vector-effect="non-scaling-stroke"/><path stroke="#8fbdd6" d="M174.19 324.06q7.02-.04 7.07 6.9.09 13.74-.12 27.47-.08 5.05-6.55 6.05a2.63 2.62 11.4 0 0-1.86 1.23c-1.25 2.06 20.92 1.29 22.63 1.28q10.49-.08 14.86-1.77c18.18-6.98 17.45-34.82-.78-41.13-9.29-3.21-25.03-1.62-35.62-1.31a.78.61 3.9 0 0-.71.48q-.2.81 1.08.8" vector-effect="non-scaling-stroke"/><path stroke="#9dd8aa" d="M268.12 340.68c4.38-9.31-3.13-18.06-12.63-18.13-5.29-.04-25.74-.38-25.77.68a.79.67 8.4 0 0 .61.69l3.4.86q2.52.63 2.66 3.47.76 15.4-.06 30.84-.29 5.44-5.91 5.71a.8.69 6.1 0 0-.69.48q-.51 1.52 1.7 1.6 9.72.34 19.45-.06c1.06-.04 1.94-.86 1.02-1.85a1.4.96-12.6 0 0-.87-.35c-7.21-.46-5.7-10.62-5.5-15.46a1.07 1.07 2.9 0 1 1.14-1.03c7.71.56 17.55.85 21.45-7.45" vector-effect="non-scaling-stroke"/><path stroke="#c4e2a2" d="M291.09 361.41q-1.19-1.94-1.18-5.16.04-13.51.13-26.99c.05-7.22 6.2-3.53 7.08-5.93a.44.38 9.6 0 0-.43-.51q-11.1-.36-22.18-.52-2.54-.04-1.37 1.45a1.13.89-14.8 0 0 .83.36c5.85.06 5.26 4 5.27 8.82q.02 12.7.01 25.43c0 3.81-.83 6.24-5.07 6.15a1.05.89 16.3 0 0-.81.36c-1.8 2.42 1.42 2.07 2.92 2.08q19.83.16 39.66-.29a.58.41-.9 0 0 .56-.41l.2-8.75a.75.48-88.6 0 0-.46-.76q-.95-.01-1.56.7a1.45 1.28-25.5 0 0-.34.8c-.17 2.99-1.59 4.96-4.81 5.23q-7.34.6-14.8.14-2.4-.15-3.65-2.2" vector-effect="non-scaling-stroke"/><path stroke="#f4a39d" d="M371.93 323.88q5.98.88 9.35 5.81 5.25 7.69 10.57 15.36c2.42 3.49 1.5 11.06 1.06 15.13q-.34 3.11-3.88 3.98c-4.76 1.16-1.83 2.91.42 2.89q9.04-.09 18.08-.05c1.21.01 2.03-.78 1.51-1.97a.87.73-8.9 0 0-.73-.44c-8.19-.22-6.83-10.27-6.58-15.72.24-5.02 11.18-18.96 12.49-20.65q2.91-3.76 8.05-4.07a1.24.8 8.5 0 0 .84-.38c1.52-2.06-15.63-1.13-16.92-1.06a.74.62 1.1 0 0-.69.56q-.04.27.15.64a2.66.7 3.6 0 0 2.19.73q2.54.26 2.83 1.76c.44 2.34-7.21 12.75-8.88 14.96a.53.52 46.1 0 1-.86-.02q-4.25-6.19-8.42-12.41c-2.67-3.98 1.41-4.07 3.72-4.82a1.02.83-5.7 0 0 .64-.64q.23-.93-.87-.96-6.29-.18-23.3.07-2.18.03-1.6.87a1.35.83-4.1 0 0 .83.43" vector-effect="non-scaling-stroke"/><path stroke="#98d5e6" d="M183.6 31.85c16.42 1.09 29.49 9.08 39.04 22.28a.43.36-47.3 0 0 .64-.08q14-20.3 38.79-22.45a.23.22-19.3 0 0 .17-.35c-19.71-28.81-58.72-28.12-78.82.23q-.24.34.18.37" vector-effect="non-scaling-stroke"/><path stroke="#98d5e6" d="M225.88 55.57c16.79 1.5 28.24 9.32 38.27 22.29a.51.51-51.5 0 0 .86-.1q9.91-21.73-.62-43.11a1.73 1.67-14.9 0 0-1.65-.92q-23.77 1.7-37.21 21.05a.51.49-69.6 0 0 .35.79" vector-effect="non-scaling-stroke"/><path stroke="#98d5e6" d="M262.16 79.08c-7.77-12.66-22.25-20.5-36.93-21.1a.34.33 77.5 0 0-.3.49q8.59 17.54 3.32 36.44-.37 1.31.53.37 13.42-14.04 32.99-15.46a.49.48-17.7 0 0 .39-.74" vector-effect="non-scaling-stroke"/><path stroke="#98d5e6" d="M222.29 60.56q-9.26 20.37.23 40.65.48 1.03.95-.02 9.03-20.33-.04-40.62-.57-1.27-1.14-.01m3.74 43.11c13.72-1.12 29.24-8.94 36.17-21.46q.26-.47-.21-.43-23.17 2.13-36.49 20.97-.72 1.02.53.92" vector-effect="non-scaling-stroke"/><path stroke="#98d5e6" d="M247.88 99.67a.31.31 15.4 0 1-.09.06l-12.97 4.78a.31.31 0 0 0 0 .58l12.97 4.78a.31.31-15 0 1 .09.06l10.63 8.84a.31.31 16.2 0 0 .5-.29l-2.34-13.63a.31.31 0 0 1 0-.1l2.34-13.63a.31.31-10.8 0 0-.5-.29l-10.63 8.84m-24.5 50.43c5.85-14.23 6.51-28.22-.08-41.92q-.47-.99-.93 0-9.75 21.22.59 41.93.23.46.42-.01" vector-effect="non-scaling-stroke"/><path stroke="#98d5e6" d="M239.78 123.42a.31.31-13.9 0 1-.09-.05l-10.98-9.13a.31.31-75.1 0 0-.51.29l2.47 14.07a.31.31 44.4 0 1 0 .1l-2.42 14.08a.31.31-18.3 0 0 .51.29l10.95-9.17a.31.31-75.2 0 1 .09-.05l13.4-4.95a.31.31 44.6 0 0 0-.58l-13.42-4.9" vector-effect="non-scaling-stroke"/><path stroke="#b2afd1" d="M303.21 106.38c-12.69-.99-29.92 9.96-35.83 20.63q-.32.57.38.5 22.68-2.33 35.75-20.75.24-.34-.3-.38" vector-effect="non-scaling-stroke"/><path stroke="#f4ee98" d="M174.86 130.33c-13.21 1.94-24.69 8.94-32.31 20q-.75 1.08.56.96 21.01-1.95 33.64-18.26c2.75-3.55 1.66-3.22-1.89-2.7m-48.36 21.92q-17.6-5.38-28.03-20.46-.57-.82-.95.02-9.43 20.72-.05 41.49.54 1.2 1.24.17 10.25-15.11 27.79-20.22 1.68-.48 0-1m53.89-19.59q-8.99 20.24.14 40.38.61 1.35 1.25-.05 9.2-20.14.12-40.31-.76-1.7-1.51-.02" vector-effect="non-scaling-stroke"/><path stroke="#f4ee98" d="M198.2 147.31a.32.32 75.1 0 1-.09-.05l-10.75-8.78a.32.32-74.6 0 0-.52.3l2.13 13.71a.32.32 45.2 0 1 0 .1l-2.22 13.69a.32.32-14.5 0 0 .51.3l10.81-8.69a.32.32-74.7 0 1 .09-.05l12.97-4.93a.32.32 45.5 0 0 0-.59l-12.93-5.01m-33.71.03a.34.34 15 0 1-.09.05l-12.33 4.84a.34.34-44.3 0 0 0 .63l12.31 4.88a.34.34 75.2 0 1 .09.05l10.36 8.26a.34.34 15.1 0 0 .55-.31l-1.93-13.11a.34.34-45.6 0 1 0-.1l1.97-13.1a.34.34 75.1 0 0-.55-.31l-10.38 8.22m-64.86 29.64c7.77 13.32 22.06 21.5 37.34 22.42a.37.36 84.2 0 0 .37-.46c-.81-3.11-2.57-6.33-3.29-8.91q-5.06-18.08 3.11-34.53.87-1.75-1.18-1.53-23.57 2.44-36.37 22.13a.9.76 48.6 0 0 .02.88" vector-effect="non-scaling-stroke"/><path stroke="#f4ee98" d="M168.54 176.29q-17.64-5.12-28.13-20.24a.64.64-48 0 0-1.09.06c-6.89 12.75-6.08 28.49-.24 41.26q.58 1.27 1.39.11 11.06-15.81 29.78-20.55.53-.14-.01-.35c-.39-.16-1.37-.2-1.7-.29m-70.93 3.4c-14.9 30.85 5.91 65.27 39.42 67.8a.46.43 77.7 0 0 .39-.66q-10.48-21.97 0-43.91a.85.82-74.4 0 0-.66-1.21q-24.43-2.06-38.19-22.04a.58.53 41.6 0 0-.96.02" vector-effect="non-scaling-stroke"/><path stroke="#e690c5" d="M239.64 171.39a.31.31 74 0 1-.08-.05l-10.49-8.43a.31.31-74.8 0 0-.5.29l2.1 13.29a.31.31 45.1 0 1 0 .1l-2.05 13.29a.31.31-14.3 0 0 .5.29l10.46-8.46a.31.31-75.2 0 1 .08-.05l12.54-4.87a.31.31-45.6 0 0 0-.58l-12.56-4.82m64.34 27.65c-7.76-12.14-21.56-20.26-35.69-21.21q-1.82-.13-.74 1.36 13.33 18.4 36.2 20.32.56.04.23-.47m43.31-19.5q-13.94 20.33-38.78 22.25a.33.26 73 0 0-.17.45q10.44 22.2.08 44.36a.34.32 12.5 0 0 .31.46q2.95.08 6.6-.7c30.43-6.49 46.39-38.54 33.07-66.68q-.49-1.04-1.11-.14m-83.34.88c-6.45 12.37-5.65 27.87-.04 39.92q.7 1.51 1.4-.02 8.97-19.92-.02-39.79-.65-1.44-1.34-.11" vector-effect="non-scaling-stroke"/><path stroke="#e690c5" d="M269.86 186.85c3.6 11.94 2.32 24.78-3.09 35.63q-.62 1.23.76 1.09 23.01-2.2 36.07-20.94.55-.79-.34-.87-19.4-1.62-32.81-15.45-.29-.3-.5-.11a.72.42 67.8 0 0-.09.65" vector-effect="non-scaling-stroke"/><path stroke="#e690c5" d="M305.7 203.43q-13.59 19.83-37.69 22.36a.68.6-19.2 0 0-.54.97q13.61 18.93 37.06 20.61a.95.8-69.6 0 0 .78-.44c8.08-12.69 7.58-30.29 1.24-43.38a.52.47 50.4 0 0-.85-.12" vector-effect="non-scaling-stroke"/><path stroke="#e99798" d="M206.05 171.53a.31.31-74.7 0 1-.09.05l-13.2 4.91a.31.31-44.2 0 0 0 .58l13.22 4.86a.31.31-15.2 0 1 .09.06l10.85 8.98a.31.31 14.7 0 0 .51-.3l-2.4-13.88a.31.31-45 0 1 0-.1l2.35-13.89a.31.31-73.6 0 0-.5-.29l-10.83 9.02" vector-effect="non-scaling-stroke"/><path stroke="#e99798" d="M220.21 198.98c-6.89-11.89-20.7-19.11-34.29-21.15q-2.99-.45-1.21 1.94 13.16 17.7 35.31 19.62.45.04.19-.41m-39.65-18.58q-9.56 20.37.12 40.65.47.99.93.03 9.59-20.29.19-40.57-.64-1.39-1.24-.11" vector-effect="non-scaling-stroke"/><path stroke="#e99798" d="M198.19 195.45a.31.31 75 0 1-.09-.06l-10.95-9.14a.31.31 14.1 0 0-.51.29l2.39 14.07a.31.31 45.2 0 1 0 .1l-2.44 14.06a.31.31 89.3 0 0 .51.29l10.98-9.1a.31.31 14.1 0 1 .09-.05l13.39-4.92a.31.31 44.5 0 0 0-.58l-13.37-4.96" vector-effect="non-scaling-stroke"/><path stroke="#e99798" d="M220.02 201.92c-14.21 1.24-28.86 8.66-36.19 21.2q-.41.7.41.61 23.04-2.46 36.25-21.25.44-.63-.47-.56m2.26 2.38q-9.13 20.35.12 40.61.62 1.36 1.21.01 8.91-20.36-.1-40.63-.61-1.37-1.23.01" vector-effect="non-scaling-stroke"/><path stroke="#e99798" d="M183.67 226.55c8.86 12.2 21.38 19.71 36.53 20.86q1 .07.53-.9-8.42-17.34-3.27-36 .26-.94-.43-.23-13.52 13.95-33.04 15.43-.88.07-.32.84" vector-effect="non-scaling-stroke"/><path stroke="#e99798" d="M219.97 249.56q-23.63-2.07-37.35-21.2a1.13 1.1 40 0 0-1.92.14q-9.87 21.49 1.02 42.48a1.64 1.42-14.5 0 0 1.53.76q23.63-1.93 37.1-21.17a.66.59-68.6 0 0-.38-1.01" vector-effect="non-scaling-stroke"/><path stroke="#e99798" d="M262.08 273.61q-24.79-2.14-38.73-22.47a.57.53-46.2 0 0-.9.05q-13.91 20.65-39.01 22.46a.21.2-19.3 0 0-.16.32c19.15 28.58 59.88 28.95 79.06.14a.33.32 18.8 0 0-.26-.5" vector-effect="non-scaling-stroke"/><path stroke="#fcda95" d="M339.69 347.94a.31.31-77.3 0 0 .27.44l10.99.23a.31.31-11.1 0 0 .29-.43l-5.23-12.33a.31.31-43.8 0 0-.57-.02l-5.75 12.11" vector-effect="non-scaling-stroke"/><path stroke="#e789c3" d="M95.46 364.34a19.99 14.72 90 0 0 14.72-19.99 19.99 14.72 90 0 0-14.72-19.99 19.99 14.72 90 0 0-14.72 19.99 19.99 14.72 90 0 0 14.72 19.99" vector-effect="non-scaling-stroke"/><path stroke="#8fbdd6" d="M192.92 362.81q10.2 2.9 15.44-3.35c7.12-8.5 6.56-30.77-7.6-32.99q-5.25-.82-9.94-.16a.73.67 87.3 0 0-.58.69q-.74 16.51.28 33.01.14 2.15 2.4 2.8" vector-effect="non-scaling-stroke"/><path stroke="#9dd8aa" d="M246.09 344.4c18.65 2.16 16.91-21.1-.01-18.13a.69.44-6.9 0 0-.58.48v17a.67.65 3.5 0 0 .59.65" vector-effect="non-scaling-stroke"/></g><path fill="#fff" d="M0 0h440v381H0V0Zm144.75 48.21q-3.13 3.24-5.48 7.1a.89.89-74.3 0 1-.76.43c-24.74-.21-44.25 19.4-47.79 43.05q-1.42 16.03 5.82 30.46-12.42 23.4-.19 46.81a1.03 1.02 43.4 0 1 .03.89c-5.54 12.29-7.79 23-4.11 36.3 5.95 21.44 23.74 35.32 45.87 36.51a2.24 2.22 75.2 0 1 1.77 1.04q8.89 14.14 24.59 19.74 7.51 3.09 15.74 3.19a.91.91 73.3 0 1 .76.41c20.55 31.35 64.05 31.63 84.07-.17a.94.92-73.9 0 1 .76-.43q16.57-.45 29.21-10.79 6.61-5.08 11.12-12.3a2.51 2.5-74.9 0 1 2.05-1.18c35.99-.91 57.37-39.59 41.33-71.8a2 1.99-44.8 0 1 .01-1.8q11.4-22.23.45-44.71l-.72-2.46a1.42 1.02-45.9 0 1 .14-.93c11.69-22.31 4.99-49.03-15.63-63.32q-11.97-8.13-26.49-8.79a.93.92 75.1 0 1-.75-.44Q295.2 37.3 274.5 32.79l-8.99-1.26a1.15 1.02-10.8 0 1-.76-.45C244.19.25 201.54.09 181.19 31.25a.98.96 14.8 0 1-.78.44q-21.31.94-35.66 16.52ZM353.13 352.6l3.41 8.14q1.06 2.52-1.48 3.08l-3.64.8a.99.25-12.3 0 0-.86.43v1.4a.95.38 1.1 0 0 .94.39q10.72.29 21.46.13c1.24-.02 2.64-.84 1.35-2.14a1.24 1.13-18.9 0 0-.81-.35q-2.9-.11-5.32-1.63a2.03.9 77.2 0 1-.66-.89l-17.42-40.25q-1.38-3.18-2.75.11-7.82 18.72-16.12 37.25c-1.58 3.53-3.44 5.22-7.19 5.6a1.24.99 10.5 0 0-.81.43q-1.34 1.89 1.27 1.88 10.33-.04 14.03-.21a1.18.44 1.9 0 0 .95-.32q.49-.89-.44-1.51a1.44.55 42.5 0 0-.81-.32c-7.51.15-1.92-9.63-.32-12.3a1.13.85-70.8 0 1 .84-.56l13.82.04a1.05.26 68.9 0 1 .56.8ZM60.26 327.03a.7.68 34.8 0 1-1.15.19c-10.28-11.12-26.47-6.69-33.17 5.52-11.66 21.27 12.55 46.72 33.21 30.37a.96.74-49.3 0 1 .87-.18c1.21.52.11 2.96 1.92 3.66a.38.37 10.4 0 0 .52-.34l-.23-15.75a.4.3 79.4 0 0-.44-.4c-.43.23-1.82 4.62-2.18 5.43-2.74 6.12-7.66 9.6-14.62 8.95-16.12-1.5-15.92-38.19-.18-39.67 8.21-.77 14.57 6.53 16.19 14.03a1.6 1.09-84.9 0 0 .47.84c1.75 1.4.99-12.67.97-13.62q-.05-2.77-1.52-.36-.36.59-.66 1.33Zm60.06 17.133a24.84 23.65-.5 0 0-25.046-23.432 24.84 23.65-.5 0 0-24.633 23.866 24.84 23.65-.5 0 0 25.045 23.432 24.84 23.65-.5 0 0 24.633-23.866Zm5.37-20.173q5.92.76 5.92 6.76.02 13.96-.25 27.94-.1 5.09-4.6 5.82c-2.31.38-2.97 2.46.1 2.47q19.84.08 39.74-.03a.67.47.8 0 0 .66-.45l.47-8.5a1.16.97 26.7 0 0-.36-.84c-1.38-1.32-2.09.54-2.31 1.68q-.98 5.09-6.55 5.02c-6.26-.08-18.12 2.44-18.44-6.92q-.24-7.26-.01-26.89.07-5.54 5.63-5.7c2.05-.05 2.64-1.77.15-1.81q-10.04-.17-20.1.1a.8.66 5.7 0 0-.71.47q-.24.77.66.88Zm48.5.07q7.02-.04 7.07 6.9.09 13.74-.12 27.47-.08 5.05-6.55 6.05a2.63 2.62 11.4 0 0-1.86 1.23c-1.25 2.06 20.92 1.29 22.63 1.28q10.49-.08 14.86-1.77c18.18-6.98 17.45-34.82-.78-41.13-9.29-3.21-25.03-1.62-35.62-1.31a.78.61 3.9 0 0-.71.48q-.2.81 1.08.8Zm93.93 16.62c4.38-9.31-3.13-18.06-12.63-18.13-5.29-.04-25.74-.38-25.77.68a.79.67 8.4 0 0 .61.69l3.4.86q2.52.63 2.66 3.47.76 15.4-.06 30.84-.29 5.44-5.91 5.71a.8.69 6.1 0 0-.69.48q-.51 1.52 1.7 1.6 9.72.34 19.45-.06c1.06-.04 1.94-.86 1.02-1.85a1.4.96-12.6 0 0-.87-.35c-7.21-.46-5.7-10.62-5.5-15.46a1.07 1.07 2.9 0 1 1.14-1.03c7.71.56 17.55.85 21.45-7.45Zm22.97 20.73q-1.19-1.94-1.18-5.16.04-13.51.13-26.99c.05-7.22 6.2-3.53 7.08-5.93a.44.38 9.6 0 0-.43-.51q-11.1-.36-22.18-.52-2.54-.04-1.37 1.45a1.13.89-14.8 0 0 .83.36c5.85.06 5.26 4 5.27 8.82q.02 12.7.01 25.43c0 3.81-.83 6.24-5.07 6.15a1.05.89 16.3 0 0-.81.36c-1.8 2.42 1.42 2.07 2.92 2.08q19.83.16 39.66-.29a.58.41-.9 0 0 .56-.41l.2-8.75a.75.48-88.6 0 0-.46-.76q-.95-.01-1.56.7a1.45 1.28-25.5 0 0-.34.8c-.17 2.99-1.59 4.96-4.81 5.23q-7.34.6-14.8.14-2.4-.15-3.65-2.2Zm80.84-37.53q5.98.88 9.35 5.81 5.25 7.69 10.57 15.36c2.42 3.49 1.5 11.06 1.06 15.13q-.34 3.11-3.88 3.98c-4.76 1.16-1.83 2.91.42 2.89q9.04-.09 18.08-.05c1.21.01 2.03-.78 1.51-1.97a.87.73-8.9 0 0-.73-.44c-8.19-.22-6.83-10.27-6.58-15.72.24-5.02 11.18-18.96 12.49-20.65q2.91-3.76 8.05-4.07a1.24.8 8.5 0 0 .84-.38c1.52-2.06-15.63-1.13-16.92-1.06a.74.62 1.1 0 0-.69.56q-.04.27.15.64a2.66.7 3.6 0 0 2.19.73q2.54.26 2.83 1.76c.44 2.34-7.21 12.75-8.88 14.96a.53.52 46.1 0 1-.86-.02q-4.25-6.19-8.42-12.41c-2.67-3.98 1.41-4.07 3.72-4.82a1.02.83-5.7 0 0 .64-.64q.23-.93-.87-.96-6.29-.18-23.3.07-2.18.03-1.6.87a1.35.83-4.1 0 0 .83.43Z"/><path fill="#31aacd" d="m274.5 32.79-.75 1.75-6.65-.77q-.93-.11-.53.7 8.61 17.28 3.48 36.05-.16.57.36.14l6.34-5.2 1.75 1.33q-6.88 5.2-11.72 12.29a.35.33-68.4 0 0 .21.53l5.01.68q-.24 1.21-1 2l-4.01-.12a.38.32 77 0 0-.27.53l2.49 5.8-2.17.25-2.19-4.79q-.43-.94-.86.02-9.43 20.89.26 41.48l-2.04 1.54q-12.3-17.77-34.63-21.25-2.98-.46-1.26 2.01 12.51 17.97 35.97 19.74 1.09 1.29-.01 2.39-23.98 1.87-37.28 21.57l-2.75.25q-.84-1.47-2.29-2.46l-2.29-5.39q-4.22-14.79-.05-29.12a.19.14-80.8 0 0-.12-.24h-.25a.87.71 17.6 0 0-.55.22q-10.24 10.36-24.45 13.99.49-1.23-.25-2.25 17.88-4.65 28.21-19.79a.29.29 19.8 0 0-.22-.46q-5.64-.44-10.99 1.58v-2.25q1.62.12 1.96-1.04-1.05-1.2-.21-2.46 4.51 1.44 9.08 1.49.94.01.4-.76-9.4-13.49-25.02-18.77.45-1.15 1.58-1.5 11.48 3.67 19.8 12.29 1.48 1.54.93-.53-4.97-18.56 3.22-35.76a.52.49-78.1 0 0-.45-.75q-18.72 1.42-31.54 14.79l-1.25-1.83q13.38-13.57 32.5-15.13a.38.38-19.9 0 0 .28-.59c-8.24-11.97-22.9-21.56-38-20.74a.87.84-77.1 0 0-.72.47q-6.97 13.69-5.1 29.03l-1.75.5q-2.45-15.55 4.53-29.52.4-.8-.49-.74-19.36 1.39-32.46 15.51.03-1.37-1.54-1.29 14.35-15.58 35.66-16.52a.98.96 14.8 0 0 .78-.44c20.35-31.16 63-31 83.56-.17a1.15 1.02-10.8 0 0 .76.45l8.99 1.26Zm-90.9-.94c16.42 1.09 29.49 9.08 39.04 22.28a.43.36-47.3 0 0 .64-.08q14-20.3 38.79-22.45a.23.22-19.3 0 0 .17-.35c-19.71-28.81-58.72-28.12-78.82.23q-.24.34.18.37Zm42.28 23.72c16.79 1.5 28.24 9.32 38.27 22.29a.51.51-51.5 0 0 .86-.1q9.91-21.73-.62-43.11a1.73 1.67-14.9 0 0-1.65-.92q-23.77 1.7-37.21 21.05a.51.49-69.6 0 0 .35.79Zm36.28 23.51c-7.77-12.66-22.25-20.5-36.93-21.1a.34.33 77.5 0 0-.3.49q8.59 17.54 3.32 36.44-.37 1.31.53.37 13.42-14.04 32.99-15.46a.49.48-17.7 0 0 .39-.74Zm-39.87-18.52q-9.26 20.37.23 40.65.48 1.03.95-.02 9.03-20.33-.04-40.62-.57-1.27-1.14-.01Zm3.74 43.11c13.72-1.12 29.24-8.94 36.17-21.46q.26-.47-.21-.43-23.17 2.13-36.49 20.97-.72 1.02.53.92Zm21.85-4a.31.31 15.4 0 1-.09.06l-12.97 4.78a.31.31 0 0 0 0 .58l12.97 4.78a.31.31-15 0 1 .09.06l10.63 8.84a.31.31 16.2 0 0 .5-.29l-2.34-13.63a.31.31 0 0 1 0-.1l2.34-13.63a.31.31-10.8 0 0-.5-.29l-10.63 8.84Zm-24.5 50.43c5.85-14.23 6.51-28.22-.08-41.92q-.47-.99-.93 0-9.75 21.22.59 41.93.23.46.42-.01Zm16.4-26.68a.31.31-13.9 0 1-.09-.05l-10.98-9.13a.31.31-75.1 0 0-.51.29l2.47 14.07a.31.31 44.4 0 1 0 .1l-2.42 14.08a.31.31-18.3 0 0 .51.29l10.95-9.17a.31.31-75.2 0 1 .09-.05l13.4-4.95a.31.31 44.6 0 0 0-.58l-13.42-4.9Z"/><path fill="#fff" d="M222.64 54.13c-9.55-13.2-22.62-21.19-39.04-22.28q-.42-.03-.18-.37c20.1-28.35 59.11-29.04 78.82-.23a.23.22-19.3 0 1-.17.35q-24.79 2.15-38.79 22.45a.43.36-47.3 0 1-.64.08Z"/><path fill="#655ea3" d="M274.5 32.79q20.7 4.51 32.05 22.23a.93.92 75.1 0 0 .75.44q14.52.66 26.49 8.79.15 1.18-.79 1.79-11.08-7.48-24.43-8.26a.34.31 77.8 0 0-.28.48q10.62 22.24.05 44.49a.44.4-70.2 0 0 .25.61l3.16.68q-.81.99-.25 2.17-1.4-.44-2.77-.1a.43.41 70.4 0 0-.27.59q5.52 11.88 5 25.05-1.01.73-2.17.5.81-13.04-4.92-24.75a.38.37 49 0 0-.65-.05q-10.83 15.95-29.5 21-.61.16-.14.48 1.05.72 2.17.78v2.25q-5.22-1.67-10.7-1.88-.56-.02-.23.42l4.47 6-1.04 2.04q-.31-.39-.69-.48-.53-.12-.35.48 4.4 14.04.04 28.17l-2.21.04q5.53-17.91-2.56-34.69-.36-.73-.72 0-6.42 12.94-4.55 27.44-1.16-.07-1.92.75-1.76-10.82 1.4-21.27.55-1.83-.75-.53-9.99 10.04-23.71 13.75-1.78.48.01.9 12.23 2.86 21.55 11.9l-1.04 1.54q-12.22-11.48-29-12.83l.96-2.21q22.44-2.91 35.07-21.61 1.1-1.1.01-2.39l-.08-.5 2.04-1.54q.5.09.75-.46 8.16-17.84 2.04-36.25l2.17-.25q4.96 14.78.99 30.02-.22.86.35.28 13.41-13.7 32.69-15.17a.39.38-18.4 0 0 .31-.59Q291.82 85.74 271 82.29q.76-.79 1-2 20.8 3.65 33.13 20.96 1.03 1.45 1.76-.17 9.57-21.42-.82-42.39a1.79 1.75 74.7 0 0-1.7-.99q-14.57 1-25.87 9.09l-1.75-1.33q11.14-8.25 26.41-9.87a.63.62 69.4 0 0 .44-.98q-10.95-15.66-29.85-20.07l.75-1.75Zm28.71 73.59c-12.69-.99-29.92 9.96-35.83 20.63q-.32.57.38.5 22.68-2.33 35.75-20.75.24-.34-.3-.38Z"/><path fill="#fff" d="M264.15 77.86c-10.03-12.97-21.48-20.79-38.27-22.29a.51.49-69.6 0 1-.35-.79q13.44-19.35 37.21-21.05a1.73 1.67-14.9 0 1 1.65.92q10.53 21.38.62 43.11a.51.51-51.5 0 1-.86.1Z"/><path fill="#fff" d="M273.75 34.54q18.9 4.41 29.85 20.07a.63.62 69.4 0 1-.44.98q-15.27 1.62-26.41 9.87l-6.34 5.2q-.52.43-.36-.14 5.13-18.77-3.48-36.05-.4-.81.53-.7l6.65.77Zm-99.04 29.71c0 .57 1.62 7.66.51 6.56q-13.66-13.64-33.06-15.23-.74-.06-.27-.64l4.4-5.44q13.1-14.12 32.46-15.51.89-.06.49.74-6.98 13.97-4.53 29.52Z"/><path fill="#fff" d="m187.5 70.71-5.86 6.85a.34.34 51.9 0 1-.56-.07q-3.29-6.52-4.62-13.74-1.87-15.34 5.1-29.03a.87.84-77.1 0 1 .72-.47c15.1-.82 29.76 8.77 38 20.74a.38.38-19.9 0 1-.28.59q-19.12 1.56-32.5 15.13Z"/><path fill="#3cb575" d="M144.75 48.21q1.57-.08 1.54 1.29l-4.4 5.44q-.47.58.27.64 19.4 1.59 33.06 15.23c1.11 1.1-.51-5.99-.51-6.56l1.75-.5q1.33 7.22 4.62 13.74a.34.34 51.9 0 0 .56.07l5.86-6.85 1.25 1.83-5.18 6.72q-.33.42.24.45 6.75.29 12.98 2.79-1.13.35-1.58 1.5-5.36-1.51-10.91-1.95-.86-.07-.38.65 9.74 14.47 26.83 19.34-.84 1.26.21 2.46-13.98-3.84-23.67-14.01-1.26-1.31-.7.43 4.26 13.41.16 26.82-.78 2.57.98.62 8.17-9.02 21.27-12.82v2.25q-15.6 5.38-25.25 18.75l-2.75-1.5.52-.18a1.41.88-79.8 0 0 .68-.75q8.43-20.04-.49-39.8-.57-1.25-1.13.01-5.52 12.35-4.37 25.93l-1.67.5q-2.49-14.66 4.47-27.83.61-1.16-.69-1.05-22.71 1.85-36.16 21.22l-1.95-1.34q13.76-19.8 38.38-22a.36.31 68.9 0 0 .19-.54q-13.53-19.77-37.75-21.34a.88.78-71.9 0 0-.76.44c-7.6 13.06-7.38 29.39-1.27 42.9l-1.96.79q-10.23-22.03.6-43.58.37-.73-.44-.65c-22.51 2.16-41.05 17.57-43.99 40.73q-1.25 1.05-2.49.29c3.54-23.65 23.05-43.26 47.79-43.05a.89.89-74.3 0 0 .76-.43q2.35-3.86 5.48-7.1Z"/><path fill="#fff" d="M137.04 102q.36.57.41 1.11a.55.48-4.8 0 1-.52.53c-16.27 1.06-28.64 8.89-38.46 21.59a.55.54 50.5 0 1-.92-.09q-6.22-12.59-4.34-26.64c2.94-23.16 21.48-38.57 43.99-40.73q.81-.08.44.65-10.83 21.55-.6 43.58Zm59.75-19.5q-6.23-2.5-12.98-2.79-.57-.03-.24-.45l5.18-6.72q12.82-13.37 31.54-14.79a.52.49-78.1 0 1 .45.75q-8.19 17.2-3.22 35.76.55 2.07-.93.53-8.32-8.62-19.8-12.29Zm28.44-24.52c14.68.6 29.16 8.44 36.93 21.1a.49.48-17.7 0 1-.39.74q-19.57 1.42-32.99 15.46-.9.94-.53-.37 5.27-18.9-3.32-36.44a.34.33 77.5 0 1 .3-.49ZM272 80.29l-5.01-.68a.35.33-68.4 0 1-.21-.53q4.84-7.09 11.72-12.29 11.3-8.09 25.87-9.09a1.79 1.75 74.7 0 1 1.7.99q10.39 20.97.82 42.39-.73 1.62-1.76.17Q292.8 83.94 272 80.29Z"/><path fill="#fff" d="M333 66.04c18.58 13.85 25.96 38.16 14.98 59.54a.34.34-50.8 0 1-.56.06c-10-12.18-19.5-19.74-35.67-21.6l-3.16-.68a.44.4-70.2 0 1-.25-.61q10.57-22.25-.05-44.49a.34.31 77.8 0 1 .28-.48q13.35.78 24.43 8.26Zm-192.79 35.71q-.86.47-1.21-.54c-6.11-13.51-6.33-29.84 1.27-42.9a.88.78-71.9 0 1 .76-.44q24.22 1.57 37.75 21.34a.36.31 68.9 0 1-.19.54q-24.62 2.2-38.38 22Zm82.08-41.19q.57-1.26 1.14.01 9.07 20.29.04 40.62-.47 1.05-.95.02-9.49-20.28-.23-40.65Z"/><path fill="#a6469c" d="M333.79 64.25c20.62 14.29 27.32 41.01 15.63 63.32a1.42 1.02-45.9 0 0-.14.93l.72 2.46q-1.2-.33-1.75.83-.58-.96-1.24-.01-10.69 15.34-28.73 20.39a.34.31-28.2 0 0-.19.53q.44.47 1.2.55l-.79 1.96q-5.19-2.03-10.58-1l-1.71 1.04-3.21 3.54-2.46-.04 2.62-3.43q1.44-1.9-.92-1.67-17.61 1.73-29.74 14.39l-1.75-1.33q9.68-10.07 23.21-13.78 1.3-.36 0-.72-13.4-3.76-23.21-13.67l1.04-2.04q12.83 13.53 31.46 14.72.5.03.22-.38-9.33-13.75-25.22-18.88v-2.25q17.13 5.1 27.17 19.91a.64.64 40.8 0 0 1.1-.08q4-8.1 4.77-17.29 1.16.23 2.17-.5-.78 10.13-4.68 18.09-.84 1.71 1.25 1.48 23.25-2.52 35.87-21.93a1.47 1.38-45.6 0 0 .03-1.54q-12.22-18.61-34.43-21.64-.56-1.18.25-2.17c16.17 1.86 25.67 9.42 35.67 21.6a.34.34-50.8 0 0 .56-.06c10.98-21.38 3.6-45.69-14.98-59.54q.94-.61.79-1.79Z"/><path fill="#fff" d="M174.54 110.75q.11 3.87 1.43 7.52.71 1.97-.9.41-13.78-13.35-32.91-15.59 13.45-19.37 36.16-21.22 1.3-.11.69 1.05-6.96 13.17-4.47 27.83Zm87.66-28.54c-6.93 12.52-22.45 20.34-36.17 21.46q-1.25.1-.53-.92 13.32-18.84 36.49-20.97.47-.04.21.43ZM195.21 84q15.62 5.28 25.02 18.77.54.77-.4.76-4.57-.05-9.08-1.49-17.09-4.87-26.83-19.34-.48-.72.38-.65 5.55.44 10.91 1.95ZM271 82.29q20.82 3.45 32.55 20.75a.39.38-18.4 0 1-.31.59q-19.28 1.47-32.69 15.17-.57.58-.35-.28 3.97-15.24-.99-30.02l-2.49-5.8a.38.32 77 0 1 .27-.53l4.01.12Z"/><path fill="#fff" d="M267.04 88.75q6.12 18.41-2.04 36.25-.25.55-.75.46-9.69-20.59-.26-41.48.43-.96.86-.02l2.19 4.79ZM181 125.04l-.79-1.04q-2.93-6.6-4-13.75-1.15-13.58 4.37-25.93.56-1.26 1.13-.01 8.92 19.76.49 39.8a1.41.88-79.8 0 1-.68.75l-.52.18Z"/><path fill="#fff" d="M210.96 104.5q-.34 1.16-1.96 1.04-13.1 3.8-21.27 12.82-1.76 1.95-.98-.62 4.1-13.41-.16-26.82-.56-1.74.7-.43 9.69 10.17 23.67 14.01Zm36.92-4.83 10.63-8.84a.31.31-9.7 0 1 .5.29l-2.34 13.63a.31.31 0 0 0 0 .1l2.34 13.63a.31.31 4.9 0 1-.5.29l-10.63-8.84a.31.31-15 0 0-.09-.06l-12.97-4.78a.31.31 0 0 1 0-.58l12.97-4.78a.31.31 15.2 0 0 .09-.06Z"/><path fill="#80bf4e" d="M93.21 98.5q-1.88 14.05 4.34 26.64a.55.54 50.5 0 0 .92.09c9.82-12.7 22.19-20.53 38.46-21.59a.55.48-4.8 0 0 .52-.53q-.05-.54-.41-1.11l1.96-.79q.35 1.01 1.21.54l1.95 1.34q19.13 2.24 32.91 15.59 1.61 1.56.9-.41-1.32-3.65-1.43-7.52l1.67-.5q1.07 7.15 4 13.75l-2.42 1.25q-13.1-16.72-34.37-19.31-1.92-.24-.82 1.35 5.54 8.01 14.65 13.67l-1.75 1.5q-9.08-5.44-15-14.36a.78.77 41.6 0 0-1.34.08q-4.01 7.99-4.7 17.32l-1.96-.04q.33-9.8 4.81-18.77a.33.33-75.8 0 0-.28-.47c-15.13-.6-30.23 10.33-37.57 22.53l-2.92.5q-7.24-14.43-5.82-30.46 1.24.76 2.49-.29Z"/><path fill="#fff" d="m262.21 127 .08.5q-23.46-1.77-35.97-19.74-1.72-2.47 1.26-2.01 22.33 3.48 34.63 21.25Zm-129.71-1.54q-.78 7.96 1.21 15.65c.75 2.92 2.37 6.36 3.39 9.68a.34.34-6.5 0 1-.35.44c-15.35-.84-29.23-9.5-37.29-22.48 7.34-12.2 22.44-23.13 37.57-22.53a.33.33-75.8 0 1 .28.47q-4.48 8.97-4.81 18.77Zm45.29-.21q2.38 2.52-1.03 2.16-10.47-1.1-19.51-6.45-9.11-5.66-14.65-13.67-1.1-1.59.82-1.35 21.27 2.59 34.37 19.31Zm14.21 1.21-7.68 1.2a.67.54-9.7 0 1-.74-.41q-.07-.33.17-.71 9.65-13.37 25.25-18.75 5.35-2.02 10.99-1.58a.29.29 19.8 0 1 .22.46q-10.33 15.14-28.21 19.79Zm119.5-20.25q22.21 3.03 34.43 21.64a1.47 1.38-45.6 0 1-.03 1.54q-12.62 19.41-35.87 21.93-2.09.23-1.25-1.48 3.9-7.96 4.68-18.09.52-13.17-5-25.05a.43.41 70.4 0 1 .27-.59q1.37-.34 2.77.1Zm-44.12 20.8c5.91-10.67 23.14-21.62 35.83-20.63q.54.04.3.38-13.07 18.42-35.75 20.75-.7.07-.38-.5Z"/><path fill="#fff" d="M311.29 132.25q-.77 9.19-4.77 17.29a.64.64 40.8 0 1-1.1.08q-10.04-14.81-27.17-19.91-1.12-.06-2.17-.78-.47-.32.14-.48 18.67-5.05 29.5-21a.38.37 49 0 1 .65.05q5.73 11.71 4.92 24.75Zm-155.79-9.79q6.49 4.13 13.94 6.1 1.02.27.06.52-18.38 4.85-29.16 20.51a.62.57 50.5 0 1-1.02-.14q-5.67-11.69-4.86-23.95.69-9.33 4.7-17.32a.78.77 41.6 0 1 1.34-.08q5.92 8.92 15 14.36Zm67.46 27.65q-10.34-20.71-.59-41.93.46-.99.93 0c6.59 13.7 5.93 27.69.08 41.92q-.19.47-.42.01Z"/><path fill="#fff" d="m239.78 123.42 13.42 4.9a.31.31 44.6 0 1 0 .58l-13.4 4.95a.31.31-74.7 0 0-.09.05l-10.95 9.17a.31.31-20.6 0 1-.51-.29l2.42-14.08a.31.31 44.9 0 0 0-.1l-2.47-14.07a.31.31-76.7 0 1 .51-.29l10.98 9.13a.31.31-15 0 0 .09.05Zm-22.11 20.44q-10.51-11.6-25.74-14.55-.85-.16-.5-.52.17-.17.82-.08 14.21-3.63 24.45-13.99a.87.71 17.6 0 1 .55-.22h.25a.19.14-80.8 0 1 .12.24q-4.17 14.33.05 29.12Z"/><path fill="#e8dc31" d="M157.25 120.96q9.04 5.35 19.51 6.45 3.41.36 1.03-2.16l2.42-1.25.79 1.04 2.75 1.5q-.24.38-.17.71a.67.54-9.7 0 0 .74.41l7.68-1.2q.74 1.02.25 2.25-.65-.09-.82.08-.35.36.5.52 15.23 2.95 25.74 14.55l2.29 5.39h-.42c-7.67-10.08-22.27-20.02-35.55-19.23q-.59.03-.25.51 11.84 17.15 32.51 20.51c1.26 1.34 3.82.78 5.5 1q-.59 1.47-1.29 2.11-24.02.76-36.74 21.34-2.44-.71-4.72-.03-10.67-15.91-29.33-20.66-3.54-.9-6.38-.75-1.61.08-.66 1.38 12.75 17.47 34.12 20.11-2.6.51-3.57 2.75-19.45 4.05-30.88 20.27-.73 1.04.54.93 14.26-1.2 25.87-9.99 1.47.02 1.58 1.25-11.47 9.02-27.69 10.94a.56.56-16.5 0 0-.44.81c5.05 9.96 18.13 17.63 28.59 20.21l-1 1.33q-18.34-4.42-29.12-19.83a.92.91 41.6 0 0-1.56.09c-6.43 12.01-6.29 29.76.39 41.63q.99 1.78 3.03 1.6 14.98-1.36 26.76-10.57l1.25 1.58q-12.55 10.05-28.3 11.04a.44.44-18.6 0 0-.34.68q8.76 13.28 23.43 18.74l-.79 1.54q-15.7-5.6-24.59-19.74a2.24 2.22 75.2 0 0-1.77-1.04c-22.13-1.19-39.92-15.07-45.87-36.51-3.68-13.3-1.43-24.01 4.11-36.3a1.03 1.02 43.4 0 0-.03-.89q-12.23-23.41.19-46.81l2.92-.5c8.06 12.98 21.94 21.64 37.29 22.48a.34.34-6.5 0 0 .35-.44c-1.02-3.32-2.64-6.76-3.39-9.68q-1.99-7.69-1.21-15.65l1.96.04q-.81 12.26 4.86 23.95a.62.57 50.5 0 0 1.02.14q10.78-15.66 29.16-20.51.96-.25-.06-.52-7.45-1.97-13.94-6.1l1.75-1.5Zm17.61 9.37c-13.21 1.94-24.69 8.94-32.31 20q-.75 1.08.56.96 21.01-1.95 33.64-18.26c2.75-3.55 1.66-3.22-1.89-2.7Zm-48.36 21.92q-17.6-5.38-28.03-20.46-.57-.82-.95.02-9.43 20.72-.05 41.49.54 1.2 1.24.17 10.25-15.11 27.79-20.22 1.68-.48 0-1Zm53.89-19.59q-8.99 20.24.14 40.38.61 1.35 1.25-.05 9.2-20.14.12-40.31-.76-1.7-1.51-.02Zm17.81 14.65a.32.32 75.1 0 1-.09-.05l-10.75-8.78a.32.32-74.6 0 0-.52.3l2.13 13.71a.32.32 45.2 0 1 0 .1l-2.22 13.69a.32.32-14.5 0 0 .51.3l10.81-8.69a.32.32-74.7 0 1 .09-.05l12.97-4.93a.32.32 45.5 0 0 0-.59l-12.93-5.01Zm-33.71.03a.34.34 15 0 1-.09.05l-12.33 4.84a.34.34-44.3 0 0 0 .63l12.31 4.88a.34.34 75.2 0 1 .09.05l10.36 8.26a.34.34 15.1 0 0 .55-.31l-1.93-13.11a.34.34-45.6 0 1 0-.1l1.97-13.1a.34.34 75.1 0 0-.55-.31l-10.38 8.22Zm-64.86 29.64c7.77 13.32 22.06 21.5 37.34 22.42a.37.36 84.2 0 0 .37-.46c-.81-3.11-2.57-6.33-3.29-8.91q-5.06-18.08 3.11-34.53.87-1.75-1.18-1.53-23.57 2.44-36.37 22.13a.9.76 48.6 0 0 .02.88Zm68.91-.69q-17.64-5.12-28.13-20.24a.64.64-48 0 0-1.09.06c-6.89 12.75-6.08 28.49-.24 41.26q.58 1.27 1.39.11 11.06-15.81 29.78-20.55.53-.14-.01-.35c-.39-.16-1.37-.2-1.7-.29Zm-70.93 3.4c-14.9 30.85 5.91 65.27 39.42 67.8a.46.43 77.7 0 0 .39-.66q-10.48-21.97 0-43.91a.85.82-74.4 0 0-.66-1.21q-24.43-2.06-38.19-22.04a.58.53 41.6 0 0-.96.02Z"/><path fill="#fff" d="M262.28 129.89q-12.63 18.7-35.07 21.61l-2.21-.04q13.3-19.7 37.28-21.57Zm-119.73 20.44c7.62-11.06 19.1-18.06 32.31-20 3.55-.52 4.64-.85 1.89 2.7q-12.63 16.31-33.64 18.26-1.31.12-.56-.96Zm76.99-1.08q-.85 2.06-3.29 1.79-20.67-3.36-32.51-20.51-.34-.48.25-.51c13.28-.79 27.88 9.15 35.55 19.23Zm58.71-17.29q15.89 5.13 25.22 18.88.28.41-.22.38-18.63-1.19-31.46-14.72l-4.47-6q-.33-.44.23-.42 5.48.21 10.7 1.88Z"/><path fill="#cc218b" d="M350 130.96q10.95 22.48-.45 44.71a2 1.99-44.8 0 0-.01 1.8c16.04 32.21-5.34 70.89-41.33 71.8a2.51 2.5-74.9 0 0-2.05 1.18q-4.51 7.22-11.12 12.3-1.35-.02-2.29-1.04 6.39-5.01 11.05-11.65.37-.53-.29-.59-19.83-1.74-33.47-16.03-.86-.9-.48.3 4.99 15.57-.35 31.01l-1.96-.54q6.13-19.02-2.26-36.32-.63-1.3-1.43-.1-6.98 10.4-18.06 16.17-.09-1.09-1.04-1.71 10.67-5.78 17.16-15.33a.78.78 19.2 0 0-.59-1.22q-5.94-.48-11.53-2.41l.79-1.79 11.71 2.2q.6.11.25-.42-9.78-14.73-26.75-19.74.9-1.21-.25-2.25 13.74 3.66 23.5 13.95 1.41 1.48.75-.51-4.67-14.1-.14-28.19c.27-.85-.28-1.07-.82-.51q-10.23 10.88-24.25 14.22l-.04-2.21q17.71-4.65 27.66-19.81.28-.42-.22-.38-21.67 1.73-34.9 18.9-.53-2-2.5-1.5 8.16-20.08-1.45-39.58l2.41-1.88q0 .8.48 1.47 13.17 18.44 35.81 20.31 1.19.1.46-.8l-6.75-8.23 1.04-1.54 2.45 1.73q.47.33.34-.29l-1.29-6.19q.76-.82 1.92-.75 1.28 7.02 4.28 13.42.49 1.04.92.02l2.63-6.19 2.21-.04h1l1.75 1.33q-3.13 3.13-4.23 4.91-1.99 3.22 1.74 2.53 19-3.52 30.53-16.73l2.46.04c-7.15 9.88-15.18 13.27-26.05 17.76q-.53.22.07.39 18.23 5 28.62 20.65a.37.36 44.4 0 0 .62 0c7.46-12.55 6-29.71-.05-42.34l1.71-1.04c7.75 13.46 7.11 30.85.42 44.36q-.52 1.04.67.92 23.41-2.2 36.55-21.43 1.11-1.63-.01-3.2-10.81-15.09-27.05-19.65l.79-1.96c12.73 3.38 20.05 10.46 28.36 20.12a.32.32 37.3 0 0 .54-.07q9.66-20.76.06-41.51.55-1.16 1.75-.83Zm-110.36 40.43a.31.31 74 0 1-.08-.05l-10.49-8.43a.31.31-74.8 0 0-.5.29l2.1 13.29a.31.31 45.1 0 1 0 .1l-2.05 13.29a.31.31-14.3 0 0 .5.29l10.46-8.46a.31.31-75.2 0 1 .08-.05l12.54-4.87a.31.31-45.6 0 0 0-.58l-12.56-4.82Zm64.34 27.65c-7.76-12.14-21.56-20.26-35.69-21.21q-1.82-.13-.74 1.36 13.33 18.4 36.2 20.32.56.04.23-.47Zm43.31-19.5q-13.94 20.33-38.78 22.25a.33.26 73 0 0-.17.45q10.44 22.2.08 44.36a.34.32 12.5 0 0 .31.46q2.95.08 6.6-.7c30.43-6.49 46.39-38.54 33.07-66.68q-.49-1.04-1.11-.14Zm-83.34.88c-6.45 12.37-5.65 27.87-.04 39.92q.7 1.51 1.4-.02 8.97-19.92-.02-39.79-.65-1.44-1.34-.11Zm5.91 6.43c3.6 11.94 2.32 24.78-3.09 35.63q-.62 1.23.76 1.09 23.01-2.2 36.07-20.94.55-.79-.34-.87-19.4-1.62-32.81-15.45-.29-.3-.5-.11a.72.42 67.8 0 0-.09.65Zm35.84 16.58q-13.59 19.83-37.69 22.36a.68.6-19.2 0 0-.54.97q13.61 18.93 37.06 20.61a.95.8-69.6 0 0 .78-.44c8.08-12.69 7.58-30.29 1.24-43.38a.52.47 50.4 0 0-.85-.12Z"/><path fill="#fff" d="M348.25 131.79q9.6 20.75-.06 41.51a.32.32 37.3 0 1-.54.07c-8.31-9.66-15.63-16.74-28.36-20.12q-.76-.08-1.2-.55a.34.31-28.2 0 1 .19-.53q18.04-5.05 28.73-20.39.66-.95 1.24.01ZM126.5 152.25q1.68.52 0 1-17.54 5.11-27.79 20.22-.7 1.03-1.24-.17-9.38-20.77.05-41.49.38-.84.95-.02 10.43 15.08 28.03 20.46Zm53.89-19.59q.75-1.68 1.51.02 9.08 20.17-.12 40.31-.64 1.4-1.25.05-9.13-20.14-.14-40.38Zm87.15 34.09-2.63 6.19q-.43 1.02-.92-.02-3-6.4-4.28-13.42-1.87-14.5 4.55-27.44.36-.73.72 0 8.09 16.78 2.56 34.69Z"/><path fill="#fff" d="m198.2 147.31 12.93 5.01a.32.32 45.2 0 1 0 .59l-12.97 4.93a.32.32-74.8 0 0-.09.05l-10.81 8.69a.32.32-12.5 0 1-.51-.3l2.22-13.69a.32.32 45.2 0 0 0-.1l-2.13-13.71a.32.32-75.1 0 1 .52-.3l10.75 8.78a.32.32 75.1 0 0 .09.05Zm59.59 12.94 1.29 6.19q.13.62-.34.29l-2.45-1.73q-9.32-9.04-21.55-11.9-1.79-.42-.01-.9 13.72-3.71 23.71-13.75 1.3-1.3.75.53-3.16 10.45-1.4 21.27Zm12.96-21.71q9.81 9.91 23.21 13.67 1.3.36 0 .72-13.53 3.71-23.21 13.78h-1q4.36-14.13-.04-28.17-.18-.6.35-.48.38.09.69.48Zm-106.26 8.8 10.38-8.22a.34.34 76.7 0 1 .55.31l-1.97 13.1a.34.34-45.1 0 0 0 .1l1.93 13.11a.34.34 14.8 0 1-.55.31l-10.36-8.26a.34.34 75.1 0 0-.09-.05l-12.31-4.88a.34.34-44.8 0 1 0-.63l12.33-4.84a.34.34 15.6 0 0 .09-.05Z"/><path fill="#f3f292" d="M219.54 149.25h.42q1.45.99 2.29 2.46l-.5.33c-1.68-.22-4.24.34-5.5-1q2.44.27 3.29-1.79Z"/><path fill="#d32f30" d="m225 151.46 2.21.04-.96 2.21-1 .08-2.41 1.88q-10.25 20.75-.5 41.62a.46.45 61.8 0 0 .65.21q1.16-.73 1.3-2.25 1.97-.5 2.5 1.5l-1.28 2.22q-.31.53.3.43l8.44-1.36.04 2.21q-.54 1.11.96 1.04 1.15 1.04.25 2.25-4.75-1.42-9.68-1.47-.51-.01-.24.41 8.95 13.82 24.71 19.02l-.79 1.79q-11.95-3.71-20.42-12.88-1.26-1.37-.8.34 4.95 18.39-2.98 35.55-.56 1.22.76 1.09 9.53-.9 18.4-5.14.95.62 1.04 1.71-9.28 4.83-19.63 5.51-.87.06-.37.77c8.46 12.09 22.76 21.13 38 20.76a.87.76 9.9 0 0 .75-.45l3-6.34 1.96.54-2.01 5.26a.75.73-81.2 0 0 .72 1.02q13.86-1.06 24.83-9.32.94 1.02 2.29 1.04-12.64 10.34-29.21 10.79a.94.92-73.9 0 0-.76.43c-20.02 31.8-63.52 31.52-84.07.17a.91.91 73.3 0 0-.76-.41q-8.23-.1-15.74-3.19l.79-1.54q6.63 2.09 13.72 2.65.51.04.29-.42-8.39-17.51-3.38-36.43c.21-.78-.04-1.65-.9-.5q-1.87 2.5-4.52 4.24l-1.25-1.58q5.25-4.77 9.1-9.95a.81.77 23.6 0 0-.52-1.23l-8.08-1.74 1-1.33q3.93.91 8.07.62a.36.28-11.6 0 0 .35-.41q-8.27-17.7-3.17-36.63.16-.63-.35-.43c-1.2.44-3.73 3.84-5.36 4.89q-.11-1.23-1.58-1.25 5.88-4.84 9.71-10.8.75-1.18-.66-1l-4.58.59q.97-2.24 3.57-2.75l2.25-.08q2.28-.68 4.72.03 23.85-1.54 36.74-21.34.7-.64 1.29-2.11l.5-.33 2.75-.25Zm-18.95 20.07a.31.31-74.7 0 1-.09.05l-13.2 4.91a.31.31-44.2 0 0 0 .58l13.22 4.86a.31.31-15.2 0 1 .09.06l10.85 8.98a.31.31 14.7 0 0 .51-.3l-2.4-13.88a.31.31-45 0 1 0-.1l2.35-13.89a.31.31-73.6 0 0-.5-.29l-10.83 9.02Zm14.16 27.45c-6.89-11.89-20.7-19.11-34.29-21.15q-2.99-.45-1.21 1.94 13.16 17.7 35.31 19.62.45.04.19-.41Zm-39.65-18.58q-9.56 20.37.12 40.65.47.99.93.03 9.59-20.29.19-40.57-.64-1.39-1.24-.11Zm17.63 15.05a.31.31 75 0 1-.09-.06l-10.95-9.14a.31.31 14.1 0 0-.51.29l2.39 14.07a.31.31 45.2 0 1 0 .1l-2.44 14.06a.31.31 89.3 0 0 .51.29l10.98-9.1a.31.31 14.1 0 1 .09-.05l13.39-4.92a.31.31 44.5 0 0 0-.58l-13.37-4.96Zm21.83 6.47c-14.21 1.24-28.86 8.66-36.19 21.2q-.41.7.41.61 23.04-2.46 36.25-21.25.44-.63-.47-.56Zm2.26 2.38q-9.13 20.35.12 40.61.62 1.36 1.21.01 8.91-20.36-.1-40.63-.61-1.37-1.23.01Zm-38.61 22.25c8.86 12.2 21.38 19.71 36.53 20.86q1 .07.53-.9-8.42-17.34-3.27-36 .26-.94-.43-.23-13.52 13.95-33.04 15.43-.88.07-.32.84Zm36.3 23.01q-23.63-2.07-37.35-21.2a1.13 1.1 40 0 0-1.92.14q-9.87 21.49 1.02 42.48a1.64 1.42-14.5 0 0 1.53.76q23.63-1.93 37.1-21.17a.66.59-68.6 0 0-.38-1.01Zm42.11 24.05q-24.79-2.14-38.73-22.47a.57.53-46.2 0 0-.9.05q-13.91 20.65-39.01 22.46a.21.2-19.3 0 0-.16.32c19.15 28.58 59.88 28.95 79.06.14a.33.32 18.8 0 0-.26-.5Z"/><path fill="#fff" d="m225.25 153.79 1-.08q16.78 1.35 29 12.83l6.75 8.23q.73.9-.46.8-22.64-1.87-35.81-20.31-.48-.67-.48-1.47Zm75.29 4.96q-11.53 13.21-30.53 16.73-3.73.69-1.74-2.53 1.1-1.78 4.23-4.91 12.13-12.66 29.74-14.39 2.36-.23.92 1.67l-2.62 3.43Zm17.96-3.54q16.24 4.56 27.05 19.65 1.12 1.57.01 3.2-13.14 19.23-36.55 21.43-1.19.12-.67-.92c6.69-13.51 7.33-30.9-.42-44.36q5.39-1.03 10.58 1ZM136.97 199.4c-15.28-.92-29.57-9.1-37.34-22.42a.9.76 48.6 0 1-.02-.88q12.8-19.69 36.37-22.13 2.05-.22 1.18 1.53-8.17 16.45-3.11 34.53c.72 2.58 2.48 5.8 3.29 8.91a.37.36 84.2 0 1-.37.46ZM179 175.46l-2.25.08q-21.37-2.64-34.12-20.11-.95-1.3.66-1.38 2.84-.15 6.38.75 18.66 4.75 29.33 20.66Zm41.46-21.31q-12.89 19.8-36.74 21.34 12.72-20.58 36.74-21.34Z"/><path fill="#fff" d="M306.21 155.25c6.05 12.63 7.51 29.79.05 42.34a.37.36 44.4 0 1-.62 0q-10.39-15.65-28.62-20.65-.6-.17-.07-.39c10.87-4.49 18.9-7.88 26.05-17.76l3.21-3.54Zm-137.67 21.04c.33.09 1.31.13 1.7.29q.54.21.01.35-18.72 4.74-29.78 20.55-.81 1.16-1.39-.11c-5.84-12.77-6.65-28.51.24-41.26a.64.64-48 0 1 1.09-.06q10.49 15.12 28.13 20.24Zm54.3-20.62q9.61 19.5 1.45 39.58-.14 1.52-1.3 2.25a.46.45 61.8 0 1-.65-.21q-9.75-20.87.5-41.62Z"/><path fill="#fff" d="m206.05 171.53 10.83-9.02a.31.31 0 0 1 .5.29l-2.35 13.89a.31.31-45.1 0 0 0 .1l2.4 13.88a.31.31 14.7 0 1-.51.3l-10.85-8.98a.31.31-15 0 0-.09-.06l-13.22-4.86a.31.31-43.2 0 1 0-.58l13.2-4.91a.31.31-74.9 0 0 .09-.05Zm33.59-.14 12.56 4.82a.31.31-44.1 0 1 0 .58l-12.54 4.87a.31.31-75.4 0 0-.08.05l-10.46 8.46a.31.31-16.4 0 1-.5-.29l2.05-13.29a.31.31 45.1 0 0 0-.1l-2.1-13.29a.31.31-75.8 0 1 .5-.29l10.49 8.43a.31.31 75.2 0 0 .08.05Zm-70.93 18.11q-11.61 8.79-25.87 9.99-1.27.11-.54-.93 11.43-16.22 30.88-20.27l4.58-.59q1.41-.18.66 1-3.83 5.96-9.71 10.8Z"/><path fill="#fff" d="m234.25 198.04-8.44 1.36q-.61.1-.3-.43l1.28-2.22q13.23-17.17 34.9-18.9.5-.04.22.38-9.95 15.16-27.66 19.81Zm34.04-20.21c14.13.95 27.93 9.07 35.69 21.21q.33.51-.23.47-22.87-1.92-36.2-20.32-1.08-1.49.74-1.36Zm-82.37 0c13.59 2.04 27.4 9.26 34.29 21.15q.26.45-.19.41-22.15-1.92-35.31-19.62-1.78-2.39 1.21-1.94Zm-48.89 69.66c-33.51-2.53-54.32-36.95-39.42-67.8a.58.53 41.6 0 1 .96-.02q13.76 19.98 38.19 22.04a.85.82-74.4 0 1 .66 1.21q-10.48 21.94 0 43.91a.46.43 77.7 0 1-.39.66Zm210.26-67.95q.62-.9 1.11.14c13.32 28.14-2.64 60.19-33.07 66.68q-3.65.78-6.6.7a.34.32 12.5 0 1-.31-.46q10.36-22.16-.08-44.36a.33.26 73 0 1 .17-.45q24.84-1.92 38.78-22.25Zm-166.73.86q.6-1.28 1.24.11 9.4 20.28-.19 40.57-.46.96-.93-.03-9.68-20.28-.12-40.65Zm83.39.02q.69-1.33 1.34.11 8.99 19.87.02 39.79-.7 1.53-1.4.02c-5.61-12.05-6.41-27.55.04-39.92Z"/><path fill="#fff" d="M170.75 222.71c-10.46-2.58-23.54-10.25-28.59-20.21a.56.56-16.5 0 1 .44-.81q16.22-1.92 27.69-10.94c1.63-1.05 4.16-4.45 5.36-4.89q.51-.2.35.43-5.1 18.93 3.17 36.63a.36.28-11.6 0 1-.35.41q-4.14.29-8.07-.62Zm27.44-27.26 13.37 4.96a.31.31 45.1 0 1 0 .58l-13.39 4.92a.31.31 14.9 0 0-.09.05l-10.98 9.1a.31.31 89.2 0 1-.51-.29l2.44-14.06a.31.31 45.2 0 0 0-.1l-2.39-14.07a.31.31 14.8 0 1 .51-.29l10.95 9.14a.31.31 75.1 0 0 .09.06Zm37.06 5.84q-1.5.07-.96-1.04 14.02-3.34 24.25-14.22c.54-.56 1.09-.34.82.51q-4.53 14.09.14 28.19.66 1.99-.75.51-9.76-10.29-23.5-13.95Zm31.52 21.19c5.41-10.85 6.69-23.69 3.09-35.63a.72.42 67.8 0 1 .09-.65q.21-.19.5.11 13.41 13.83 32.81 15.45.89.08.34.87-13.06 18.74-36.07 20.94-1.38.14-.76-1.09Z"/><path fill="#fff" d="M183.83 223.12c7.33-12.54 21.98-19.96 36.19-21.2q.91-.07.47.56-13.21 18.79-36.25 21.25-.82.09-.41-.61Zm51.67-19.58q16.97 5.01 26.75 19.74.35.53-.25.42l-11.71-2.2q-15.76-5.2-24.71-19.02-.27-.42.24-.41 4.93.05 9.68 1.47Zm70.2-.11a.52.47 50.4 0 1 .85.12c6.34 13.09 6.84 30.69-1.24 43.38a.95.8-69.6 0 1-.78.44q-23.45-1.68-37.06-20.61a.68.6-19.2 0 1 .54-.97q24.1-2.53 37.69-22.36Zm-135.95 20.61 8.08 1.74a.81.77 23.6 0 1 .52 1.23q-3.85 5.18-9.1 9.95-11.78 9.21-26.76 10.57-2.04.18-3.03-1.6c-6.68-11.87-6.82-29.62-.39-41.63a.92.91 41.6 0 1 1.56-.09q10.78 15.41 29.12 19.83Zm52.53-19.74q.62-1.38 1.23-.01 9.01 20.27.1 40.63-.59 1.35-1.21-.01-9.25-20.26-.12-40.61Z"/><path fill="#fff" d="M249.5 223.29q5.59 1.93 11.53 2.41a.78.78 19.2 0 1 .59 1.22q-6.49 9.55-17.16 15.33-8.87 4.24-18.4 5.14-1.32.13-.76-1.09 7.93-17.16 2.98-35.55-.46-1.71.8-.34 8.47 9.17 20.42 12.88Zm-29.3 24.12c-15.15-1.15-27.67-8.66-36.53-20.86q-.56-.77.32-.84 19.52-1.48 33.04-15.43.69-.71.43.23-5.15 18.66 3.27 36 .47.97-.53.9Z"/><path fill="#fff" d="M219.97 249.56a.66.59-68.6 0 1 .38 1.01q-13.47 19.24-37.1 21.17a1.64 1.42-14.5 0 1-1.53-.76q-10.89-20.99-1.02-42.48a1.13 1.1 40 0 1 1.92-.14q13.72 19.13 37.35 21.2Zm47.28 14.65-3 6.34a.87.76 9.9 0 1-.75.45c-15.24.37-29.54-8.67-38-20.76q-.5-.71.37-.77 10.35-.68 19.63-5.51 11.08-5.77 18.06-16.17.8-1.2 1.43.1 8.39 17.3 2.26 36.32Z"/><path fill="#fff" d="M292.75 261.71q-10.97 8.26-24.83 9.32a.75.73-81.2 0 1-.72-1.02l2.01-5.26q5.34-15.44.35-31.01-.38-1.2.48-.3 13.64 14.29 33.47 16.03.66.06.29.59-4.66 6.64-11.05 11.65ZM165.29 269q-14.67-5.46-23.43-18.74a.44.44-18.6 0 1 .34-.68q15.75-.99 28.3-11.04 2.65-1.74 4.52-4.24c.86-1.15 1.11-.28.9.5q-5.01 18.92 3.38 36.43.22.46-.29.42-7.09-.56-13.72-2.65Zm96.79 4.61a.33.32 18.8 0 1 .26.5c-19.18 28.81-59.91 28.44-79.06-.14a.21.2-19.3 0 1 .16-.32q25.1-1.81 39.01-22.46a.57.53-46.2 0 1 .9-.05q13.94 20.33 38.73 22.47Z"/><path fill="#f9b42b" d="m352.57 351.8-13.82-.04a1.13.85-70.8 0 0-.84.56c-1.6 2.67-7.19 12.45.32 12.3a1.44.55 42.5 0 1 .81.32q.93.62.44 1.51a1.18.44 1.9 0 1-.95.32q-3.7.17-14.03.21-2.61.01-1.27-1.88a1.24.99 10.5 0 1 .81-.43c3.75-.38 5.61-2.07 7.19-5.6q8.3-18.53 16.12-37.25 1.37-3.29 2.75-.11l17.42 40.25a2.03.9 77.2 0 0 .66.89q2.42 1.52 5.32 1.63a1.24 1.13-18.9 0 1 .81.35c1.29 1.3-.11 2.12-1.35 2.14q-10.74.16-21.46-.13a.95.38 1.1 0 1-.94-.39v-1.4a.99.25-12.3 0 1 .86-.43l3.64-.8q2.54-.56 1.48-3.08l-3.41-8.14a1.05.26 68.9 0 0-.56-.8Zm-12.88-3.86a.31.31-77.3 0 0 .27.44l10.99.23a.31.31-11.1 0 0 .29-.43l-5.23-12.33a.31.31-43.8 0 0-.57-.02l-5.75 12.11Z"/><path fill="#e4222c" d="M60.26 327.03q.3-.74.66-1.33 1.47-2.41 1.52.36c.02.95.78 15.02-.97 13.62a1.6 1.09-84.9 0 1-.47-.84c-1.62-7.5-7.98-14.8-16.19-14.03-15.74 1.48-15.94 38.17.18 39.67 6.96.65 11.88-2.83 14.62-8.95.36-.81 1.75-5.2 2.18-5.43a.4.3 79.4 0 1 .44.4l.23 15.75a.38.37 10.4 0 1-.52.34c-1.81-.7-.71-3.14-1.92-3.66a.96.74-49.3 0 0-.87.18c-20.66 16.35-44.87-9.1-33.21-30.37 6.7-12.21 22.89-16.64 33.17-5.52a.7.68 34.8 0 0 1.15-.19Z"/><path fill="#cf1386" d="M120.32 344.163a24.84 23.65-.5 0 1-24.634 23.866 24.84 23.65-.5 0 1-25.045-23.432 24.84 23.65-.5 0 1 24.633-23.866 24.84 23.65-.5 0 1 25.045 23.432ZM95.46 364.34a19.99 14.72 90 0 0 14.72-19.99 19.99 14.72 90 0 0-14.72-19.99 19.99 14.72 90 0 0-14.72 19.99 19.99 14.72 90 0 0 14.72 19.99Z"/><path fill="#822d8c" d="M125.69 323.99q-.9-.11-.66-.88a.8.66 5.7 0 1 .71-.47q10.06-.27 20.1-.1c2.49.04 1.9 1.76-.15 1.81q-5.56.16-5.63 5.7-.23 19.63.01 26.89c.32 9.36 12.18 6.84 18.44 6.92q5.57.07 6.55-5.02c.22-1.14.93-3 2.31-1.68a1.16.97 26.7 0 1 .36.84l-.47 8.5a.67.47.8 0 1-.66.45q-19.9.11-39.74.03c-3.07-.01-2.41-2.09-.1-2.47q4.5-.73 4.6-5.82.27-13.98.25-27.94 0-6-5.92-6.76Z"/><path fill="#1f7aac" d="M174.19 324.06q-1.28.01-1.08-.8a.78.61 3.9 0 1 .71-.48c10.59-.31 26.33-1.9 35.62 1.31 18.23 6.31 18.96 34.15.78 41.13q-4.37 1.69-14.86 1.77c-1.71.01-23.88.78-22.63-1.28a2.63 2.62 11.4 0 1 1.86-1.23q6.47-1 6.55-6.05.21-13.73.12-27.47-.05-6.94-7.07-6.9Zm18.73 38.75q10.2 2.9 15.44-3.35c7.12-8.5 6.56-30.77-7.6-32.99q-5.25-.82-9.94-.16a.73.67 87.3 0 0-.58.69q-.74 16.51.28 33.01.14 2.15 2.4 2.8Z"/><path fill="#3ab055" d="M255.49 322.55c9.5.07 17.01 8.82 12.63 18.13-3.9 8.3-13.74 8.01-21.45 7.45a1.07 1.07 2.9 0 0-1.14 1.03c-.2 4.84-1.71 15 5.5 15.46a1.4.96-12.6 0 1 .87.35c.92.99.04 1.81-1.02 1.85q-9.73.4-19.45.06-2.21-.08-1.7-1.6a.8.69 6.1 0 1 .69-.48q5.62-.27 5.91-5.71.82-15.44.06-30.84-.14-2.84-2.66-3.47l-3.4-.86a.79.67 8.4 0 1-.61-.69c.03-1.06 20.48-.72 25.77-.68Zm-9.4 21.85c18.65 2.16 16.91-21.1-.01-18.13a.69.44-6.9 0 0-.58.48v17a.67.65 3.5 0 0 .59.65Z"/><path fill="#88c444" d="M291.09 361.41q1.25 2.05 3.65 2.2 7.46.46 14.8-.14c3.22-.27 4.64-2.24 4.81-5.23a1.45 1.28-25.5 0 1 .34-.8q.61-.71 1.56-.7a.75.48-88.6 0 1 .46.76l-.2 8.75a.58.41-.9 0 1-.56.41q-19.83.45-39.66.29c-1.5-.01-4.72.34-2.92-2.08a1.05.89 16.3 0 1 .81-.36c4.24.09 5.07-2.34 5.07-6.15q.01-12.73-.01-25.43c-.01-4.82.58-8.76-5.27-8.82a1.13.89-14.8 0 1-.83-.36q-1.17-1.49 1.37-1.45 11.08.16 22.18.52a.44.38 9.6 0 1 .43.51c-.88 2.4-7.03-1.29-7.08 5.93q-.09 13.48-.13 26.99-.01 3.22 1.18 5.16Z"/><path fill="#e9473a" d="M371.1 323.45q-.58-.84 1.6-.87 17.01-.25 23.3-.07 1.1.03.87.96a1.02.83-5.7 0 1-.64.64c-2.31.75-6.39.84-3.72 4.82q4.17 6.22 8.42 12.41a.53.52 46.1 0 0 .86.02c1.67-2.21 9.32-12.62 8.88-14.96q-.29-1.5-2.83-1.76a2.66.7 3.6 0 1-2.19-.73q-.19-.37-.15-.64a.74.62 1.1 0 1 .69-.56c1.29-.07 18.44-1 16.92 1.06a1.24.8 8.5 0 1-.84.38q-5.14.31-8.05 4.07c-1.31 1.69-12.25 15.63-12.49 20.65-.25 5.45-1.61 15.5 6.58 15.72a.87.73-8.9 0 1 .73.44c.52 1.19-.3 1.98-1.51 1.97q-9.04-.04-18.08.05c-2.25.02-5.18-1.73-.42-2.89q3.54-.87 3.88-3.98c.44-4.07 1.36-11.64-1.06-15.13q-5.32-7.67-10.57-15.36-3.37-4.93-9.35-5.81a1.35.83-4.1 0 1-.83-.43Z"/><ellipse fill="#fff" rx="19.99" ry="14.72" transform="rotate(90 -124.445 219.905)"/><path fill="#fff" d="M192.92 362.81q-2.26-.65-2.4-2.8-1.02-16.5-.28-33.01a.73.67 87.3 0 1 .58-.69q4.69-.66 9.94.16c14.16 2.22 14.72 24.49 7.6 32.99q-5.24 6.25-15.44 3.35Zm53.16-36.54c16.92-2.97 18.66 20.29.01 18.13a.67.65 3.5 0 1-.59-.65v-17a.69.44-6.9 0 1 .58-.48Zm93.61 21.67 5.75-12.11a.31.31-43.8 0 1 .57.02l5.23 12.33a.31.31-10.2 0 1-.29.43l-10.99-.23a.31.31-88.5 0 1-.27-.44Z"/></svg>